<?xml version="1.0" encoding="UTF-8" standalone="no"?>
<!DOCTYPE svg PUBLIC "-//W3C//DTD SVG 1.1//EN"
 "http://www.w3.org/Graphics/SVG/1.1/DTD/svg11.dtd">
<!-- Generated by graphviz version 2.32.0 (20130801.1934)
 -->
<!-- Title: G Pages: 1 -->
<svg width="1022pt" height="243pt"
 viewBox="0.00 0.00 1022.00 243.00" xmlns="http://www.w3.org/2000/svg" xmlns:xlink="http://www.w3.org/1999/xlink">
<g id="graph0" class="graph" transform="scale(1 1) rotate(0) translate(4 239)">
<title>G</title>
<polygon fill="white" stroke="white" points="-4,5 -4,-239 1019,-239 1019,5 -4,5"/>
<g id="clust1" class="cluster"><title>cluster_0</title>
<polygon fill="lightgrey" stroke="lightgrey" points="430,-8 430,-227 518,-227 518,-8 430,-8"/>
<text text-anchor="middle" x="474" y="-211.8" font-family="Myriad Condensed Web" font-size="14.00">PIF</text>
</g>
<!-- 18. Sattelite
ES1WI1212 -->
<g id="node1" class="node"><title>18. Sattelite
ES1WI1212</title>
<polygon fill="white" stroke="white" points="504,-196 444,-196 444,-160 504,-160 504,-196"/>
<text text-anchor="middle" x="474" y="-181" font-family="Myriad Condensed Web" font-size="10.00">18. Sattelite</text>
<text text-anchor="middle" x="474" y="-170" font-family="Myriad Condensed Web" font-size="10.00">ES1WI1212</text>
</g>
<!-- 19. Database
ES1WI1470 -->
<g id="node2" class="node"><title>19. Database
ES1WI1470</title>
<polygon fill="white" stroke="white" points="505.25,-124 442.75,-124 442.75,-88 505.25,-88 505.25,-124"/>
<text text-anchor="middle" x="474" y="-109" font-family="Myriad Condensed Web" font-size="10.00">19. Database</text>
<text text-anchor="middle" x="474" y="-98" font-family="Myriad Condensed Web" font-size="10.00">ES1WI1470</text>
</g>
<!-- 18. Sattelite
ES1WI1212&#45;&gt;19. Database
ES1WI1470 -->
<g id="edge2" class="edge"><title>18. Sattelite
ES1WI1212&#45;&gt;19. Database
ES1WI1470</title>
<path fill="none" stroke="black" d="M474,-159.697C474,-151.983 474,-142.712 474,-134.112"/>
<polygon fill="black" stroke="black" points="477.5,-134.104 474,-124.104 470.5,-134.104 477.5,-134.104"/>
</g>
<!-- BPS DWH -->
<g id="node16" class="node"><title>BPS DWH</title>
<polygon fill="#999999" stroke="#999999" points="942,-42.5 888,-42.5 888,-25.5 942,-25.5 942,-42.5"/>
<text text-anchor="middle" x="915" y="-32.1" font-family="Myriad Condensed Web" font-size="8.00">BPS DWH</text>
</g>
<!-- 18. Sattelite
ES1WI1212&#45;&gt;BPS DWH -->
<g id="edge19" class="edge"><title>18. Sattelite
ES1WI1212&#45;&gt;BPS DWH</title>
<path fill="none" stroke="#ff0000" d="M504.221,-169.251C572.209,-151.478 741.975,-105.19 879,-52 882.876,-50.4954 886.918,-48.7592 890.835,-46.9833"/>
<polygon fill="#ff0000" stroke="#ff0000" points="892.59,-50.0253 900.144,-42.5965 889.606,-43.6932 892.59,-50.0253"/>
</g>
<!-- 20. Application
W2K3&#45;FOR03P -->
<g id="node3" class="node"><title>20. Application
W2K3&#45;FOR03P</title>
<polygon fill="white" stroke="white" points="509.25,-52 438.75,-52 438.75,-16 509.25,-16 509.25,-52"/>
<text text-anchor="middle" x="474" y="-37" font-family="Myriad Condensed Web" font-size="10.00">20. Application</text>
<text text-anchor="middle" x="474" y="-26" font-family="Myriad Condensed Web" font-size="10.00">W2K3&#45;FOR03P</text>
</g>
<!-- 19. Database
ES1WI1470&#45;&gt;20. Application
W2K3&#45;FOR03P -->
<g id="edge1" class="edge"><title>19. Database
ES1WI1470&#45;&gt;20. Application
W2K3&#45;FOR03P</title>
<path fill="none" stroke="black" d="M474,-87.6966C474,-79.9827 474,-70.7125 474,-62.1124"/>
<polygon fill="black" stroke="black" points="477.5,-62.1043 474,-52.1043 470.5,-62.1044 477.5,-62.1043"/>
</g>
<!-- Digip -->
<g id="node5" class="node"><title>Digip</title>
<polygon fill="#999999" stroke="#999999" points="870,-42.5 816,-42.5 816,-25.5 870,-25.5 870,-42.5"/>
<text text-anchor="middle" x="843" y="-32.1" font-family="Myriad Condensed Web" font-size="8.00">Digip</text>
</g>
<!-- 19. Database
ES1WI1470&#45;&gt;Digip -->
<g id="edge15" class="edge"><title>19. Database
ES1WI1470&#45;&gt;Digip</title>
<path fill="none" stroke="#ff0000" d="M505.718,-102.525C564.624,-97.6195 693.683,-84.2127 798,-52 802.549,-50.5954 807.255,-48.7161 811.881,-46.7191"/>
<polygon fill="#ff0000" stroke="#ff0000" points="813.479,-49.8389 821.187,-42.5693 810.628,-43.4458 813.479,-49.8389"/>
</g>
<!-- iProcess -->
<g id="node6" class="node"><title>iProcess</title>
<polygon fill="#999999" stroke="#999999" points="1014,-42.5 960,-42.5 960,-25.5 1014,-25.5 1014,-42.5"/>
<text text-anchor="middle" x="987" y="-32.1" font-family="Myriad Condensed Web" font-size="8.00">iProcess</text>
</g>
<!-- 19. Database
ES1WI1470&#45;&gt;iProcess -->
<g id="edge16" class="edge"><title>19. Database
ES1WI1470&#45;&gt;iProcess</title>
<path fill="none" stroke="#ff0000" d="M505.371,-105.055C582.668,-104.437 787.853,-98.1935 951,-52 955.537,-50.7154 960.212,-48.9083 964.63,-46.9483"/>
<polygon fill="#ff0000" stroke="#ff0000" points="966.249,-50.0533 973.736,-42.5571 963.208,-43.7482 966.249,-50.0533"/>
</g>
<!-- Sharepoint -->
<g id="node9" class="node"><title>Sharepoint</title>
<polygon fill="#999999" stroke="#999999" points="582,-42.5 528,-42.5 528,-25.5 582,-25.5 582,-42.5"/>
<text text-anchor="middle" x="555" y="-32.1" font-family="Myriad Condensed Web" font-size="8.00">Sharepoint</text>
</g>
<!-- 19. Database
ES1WI1470&#45;&gt;Sharepoint -->
<g id="edge17" class="edge"><title>19. Database
ES1WI1470&#45;&gt;Sharepoint</title>
<path fill="none" stroke="#ff0000" d="M488.107,-87.6966C500.758,-75.6937 519.147,-59.9226 533.568,-48.7716"/>
<polygon fill="#ff0000" stroke="#ff0000" points="536.039,-51.2944 541.948,-42.5006 531.845,-45.69 536.039,-51.2944"/>
</g>
<!-- Audit Base -->
<g id="node13" class="node"><title>Audit Base</title>
<polygon fill="#999999" stroke="#999999" points="654,-42.5 600,-42.5 600,-25.5 654,-25.5 654,-42.5"/>
<text text-anchor="middle" x="627" y="-32.1" font-family="Myriad Condensed Web" font-size="8.00">Audit Base</text>
</g>
<!-- 19. Database
ES1WI1470&#45;&gt;Audit Base -->
<g id="edge13" class="edge"><title>19. Database
ES1WI1470&#45;&gt;Audit Base</title>
<path fill="none" stroke="#ff0000" d="M505.347,-90.9622C528.943,-80.3562 562.058,-65.3876 591,-52 594.533,-50.3659 598.253,-48.6282 601.908,-46.9114"/>
<polygon fill="#ff0000" stroke="#ff0000" points="603.703,-49.9342 611.254,-42.5017 600.717,-43.6034 603.703,-49.9342"/>
</g>
<!-- Qlikview -->
<g id="node14" class="node"><title>Qlikview</title>
<polygon fill="#999999" stroke="#999999" points="726,-42.5 672,-42.5 672,-25.5 726,-25.5 726,-42.5"/>
<text text-anchor="middle" x="699" y="-32.1" font-family="Myriad Condensed Web" font-size="8.00">Qlikview</text>
</g>
<!-- 19. Database
ES1WI1470&#45;&gt;Qlikview -->
<g id="edge14" class="edge"><title>19. Database
ES1WI1470&#45;&gt;Qlikview</title>
<path fill="none" stroke="#ff0000" d="M505.282,-97.9346C543.189,-88.985 608.726,-72.2613 663,-52 667.079,-50.4771 671.331,-48.6742 675.424,-46.8213"/>
<polygon fill="#ff0000" stroke="#ff0000" points="676.983,-49.9554 684.527,-42.5155 673.99,-43.6275 676.983,-49.9554"/>
</g>
<!-- TIJSS -->
<g id="node15" class="node"><title>TIJSS</title>
<polygon fill="#999999" stroke="#999999" points="798,-42.5 744,-42.5 744,-25.5 798,-25.5 798,-42.5"/>
<text text-anchor="middle" x="771" y="-32.1" font-family="Myriad Condensed Web" font-size="8.00">TIJSS</text>
</g>
<!-- 19. Database
ES1WI1470&#45;&gt;TIJSS -->
<g id="edge18" class="edge"><title>19. Database
ES1WI1470&#45;&gt;TIJSS</title>
<path fill="none" stroke="#ff0000" d="M505.569,-101.092C555.293,-94.3831 654.482,-78.7508 735,-52 739.206,-50.6026 743.564,-48.8386 747.733,-46.9793"/>
<polygon fill="#ff0000" stroke="#ff0000" points="749.43,-50.0483 756.961,-42.5959 746.426,-43.7255 749.43,-50.0483"/>
</g>
<!-- 19. Database
ES1WI1470&#45;&gt;BPS DWH -->
<g id="edge20" class="edge"><title>19. Database
ES1WI1470&#45;&gt;BPS DWH</title>
<path fill="none" stroke="#ff0000" d="M505.416,-104.192C574.406,-101.708 743.773,-91.7139 879,-52 883.327,-50.7292 887.787,-49.0018 892.031,-47.1331"/>
<polygon fill="#ff0000" stroke="#ff0000" points="893.866,-50.1356 901.378,-42.6648 890.847,-43.8201 893.866,-50.1356"/>
</g>
<!-- Avaya -->
<g id="node4" class="node"><title>Avaya</title>
<polygon fill="#999999" stroke="#999999" points="126,-186.5 72,-186.5 72,-169.5 126,-169.5 126,-186.5"/>
<text text-anchor="middle" x="99" y="-176.1" font-family="Myriad Condensed Web" font-size="8.00">Avaya</text>
</g>
<!-- Avaya&#45;&gt;19. Database
ES1WI1470 -->
<g id="edge3" class="edge"><title>Avaya&#45;&gt;19. Database
ES1WI1470</title>
<path fill="none" stroke="#00ff00" d="M112.648,-169.421C119.226,-166.066 127.336,-162.355 135,-160 239.101,-128.01 367.408,-114.681 432.255,-109.674"/>
<polygon fill="#00ff00" stroke="#00ff00" points="432.767,-113.146 442.48,-108.914 432.248,-106.165 432.767,-113.146"/>
</g>
<!-- Digip&#45;&gt;19. Database
ES1WI1470 -->
<g id="edge4" class="edge"><title>Digip&#45;&gt;19. Database
ES1WI1470</title>
<path fill="none" stroke="#00ff00" d="M837.512,-42.5693C831.771,-45.9221 823.661,-49.6344 816,-52 711.091,-84.3956 581.158,-97.7711 515.643,-102.607"/>
<polygon fill="#00ff00" stroke="#00ff00" points="515.044,-99.1409 505.315,-103.338 515.537,-106.124 515.044,-99.1409"/>
</g>
<!-- iProcess&#45;&gt;18. Sattelite
ES1WI1212 -->
<g id="edge5" class="edge"><title>iProcess&#45;&gt;18. Sattelite
ES1WI1212</title>
<path fill="none" stroke="#00ff00" d="M972.116,-42.524C965.698,-45.6384 958.058,-49.1744 951,-52 856.663,-89.7639 832.18,-97.8053 734,-124 657.172,-144.498 565.747,-161.449 514.336,-170.317"/>
<polygon fill="#00ff00" stroke="#00ff00" points="513.565,-166.898 504.298,-172.034 514.745,-173.798 513.565,-166.898"/>
</g>
<!-- RMS -->
<g id="node7" class="node"><title>RMS</title>
<polygon fill="#999999" stroke="#999999" points="198,-186.5 144,-186.5 144,-169.5 198,-169.5 198,-186.5"/>
<text text-anchor="middle" x="171" y="-176.1" font-family="Myriad Condensed Web" font-size="8.00">RMS</text>
</g>
<!-- RMS&#45;&gt;19. Database
ES1WI1470 -->
<g id="edge6" class="edge"><title>RMS&#45;&gt;19. Database
ES1WI1470</title>
<path fill="none" stroke="#00ff00" d="M185.034,-169.389C191.56,-166.109 199.517,-162.468 207,-160 284.63,-134.398 379.247,-119.197 432.456,-112.03"/>
<polygon fill="#00ff00" stroke="#00ff00" points="433.072,-115.479 442.529,-110.703 432.157,-108.539 433.072,-115.479"/>
</g>
<!-- RWE AD servers -->
<g id="node8" class="node"><title>RWE AD servers</title>
<polygon fill="#999999" stroke="#999999" points="278,-186.5 216,-186.5 216,-169.5 278,-169.5 278,-186.5"/>
<text text-anchor="middle" x="247" y="-176.1" font-family="Myriad Condensed Web" font-size="8.00">RWE AD servers</text>
</g>
<!-- RWE AD servers&#45;&gt;19. Database
ES1WI1470 -->
<g id="edge7" class="edge"><title>RWE AD servers&#45;&gt;19. Database
ES1WI1470</title>
<path fill="none" stroke="#00ff00" d="M263.553,-169.412C270.686,-166.287 279.172,-162.76 287,-160 336.37,-142.59 394.577,-126.818 432.78,-117.091"/>
<polygon fill="#00ff00" stroke="#00ff00" points="433.683,-120.473 442.522,-114.632 431.969,-113.686 433.683,-120.473"/>
</g>
<!-- Sharepoint&#45;&gt;19. Database
ES1WI1470 -->
<g id="edge8" class="edge"><title>Sharepoint&#45;&gt;19. Database
ES1WI1470</title>
<path fill="none" stroke="#00ff00" d="M550.527,-42.681C541.968,-51.9244 524.174,-67.8814 507.81,-81.3341"/>
<polygon fill="#00ff00" stroke="#00ff00" points="505.515,-78.6884 499.938,-87.6966 509.916,-84.1325 505.515,-78.6884"/>
</g>
<!-- Thinconnect -->
<g id="node10" class="node"><title>Thinconnect</title>
<polygon fill="#999999" stroke="#999999" points="350,-186.5 296,-186.5 296,-169.5 350,-169.5 350,-186.5"/>
<text text-anchor="middle" x="323" y="-176.1" font-family="Myriad Condensed Web" font-size="8.00">Thinconnect</text>
</g>
<!-- Thinconnect&#45;&gt;19. Database
ES1WI1470 -->
<g id="edge9" class="edge"><title>Thinconnect&#45;&gt;19. Database
ES1WI1470</title>
<path fill="none" stroke="#00ff00" d="M339.114,-169.352C345.323,-166.415 352.486,-163.039 359,-160 383.643,-148.503 411.32,-135.743 433.347,-125.624"/>
<polygon fill="#00ff00" stroke="#00ff00" points="435.098,-128.671 442.726,-121.318 432.177,-122.31 435.098,-128.671"/>
</g>
<!-- Totalview -->
<g id="node11" class="node"><title>Totalview</title>
<polygon fill="#999999" stroke="#999999" points="422,-186.5 368,-186.5 368,-169.5 422,-169.5 422,-186.5"/>
<text text-anchor="middle" x="395" y="-176.1" font-family="Myriad Condensed Web" font-size="8.00">Totalview</text>
</g>
<!-- Totalview&#45;&gt;19. Database
ES1WI1470 -->
<g id="edge10" class="edge"><title>Totalview&#45;&gt;19. Database
ES1WI1470</title>
<path fill="none" stroke="#00ff00" d="M399.324,-169.241C407.609,-160.026 424.782,-144.218 440.66,-130.84"/>
<polygon fill="#00ff00" stroke="#00ff00" points="443.317,-133.184 448.791,-124.113 438.855,-127.79 443.317,-133.184"/>
</g>
<!-- Totalview&#45;&gt;19. Database
ES1WI1470 -->
<g id="edge11" class="edge"><title>Totalview&#45;&gt;19. Database
ES1WI1470</title>
<path fill="none" stroke="#00ff00" d="M408.189,-169.241C420.588,-160.111 438.872,-144.508 453.135,-131.208"/>
<polygon fill="#00ff00" stroke="#00ff00" points="455.757,-133.545 460.583,-124.113 450.929,-128.477 455.757,-133.545"/>
</g>
<!-- XM2 -->
<g id="node12" class="node"><title>XM2</title>
<polygon fill="#999999" stroke="#999999" points="54,-186.5 0,-186.5 0,-169.5 54,-169.5 54,-186.5"/>
<text text-anchor="middle" x="27" y="-176.1" font-family="Myriad Condensed Web" font-size="8.00">XM2</text>
</g>
<!-- XM2&#45;&gt;19. Database
ES1WI1470 -->
<g id="edge12" class="edge"><title>XM2&#45;&gt;19. Database
ES1WI1470</title>
<path fill="none" stroke="#00ff00" d="M40.6198,-169.329C47.1921,-165.954 55.3051,-162.252 63,-160 194.399,-121.544 357.555,-110.974 432.647,-108.082"/>
<polygon fill="#00ff00" stroke="#00ff00" points="432.778,-111.58 442.645,-107.723 432.526,-104.584 432.778,-111.58"/>
</g>
</g>
</svg>
