<?xml version="1.0" encoding="UTF-8" standalone="no"?>
<!DOCTYPE svg PUBLIC "-//W3C//DTD SVG 1.1//EN"
 "http://www.w3.org/Graphics/SVG/1.1/DTD/svg11.dtd">
<!-- Generated by graphviz version 2.32.0 (20130801.1934)
 -->
<!-- Title: G Pages: 1 -->
<svg width="134pt" height="155pt"
 viewBox="0.00 0.00 134.00 155.00" xmlns="http://www.w3.org/2000/svg" xmlns:xlink="http://www.w3.org/1999/xlink">
<g id="graph0" class="graph" transform="scale(1 1) rotate(0) translate(4 151)">
<title>G</title>
<polygon fill="white" stroke="white" points="-4,5 -4,-151 131,-151 131,5 -4,5"/>
<g id="clust1" class="cluster"><title>cluster_0</title>
<polygon fill="lightgrey" stroke="lightgrey" points="11,-46 11,-121 115,-121 115,-46 11,-46"/>
<text text-anchor="middle" x="63" y="-105.8" font-family="Myriad Condensed Web" font-size="14.00">Vaultage</text>
</g>
<!-- 15. Datawarehouse
SUES&#45;NLAMS&#45;011 -->
<g id="node1" class="node"><title>15. Datawarehouse
SUES&#45;NLAMS&#45;011</title>
<polygon fill="white" stroke="white" points="106.25,-90 19.75,-90 19.75,-54 106.25,-54 106.25,-90"/>
<text text-anchor="middle" x="63" y="-75" font-family="Myriad Condensed Web" font-size="10.00">15. Datawarehouse</text>
<text text-anchor="middle" x="63" y="-64" font-family="Myriad Condensed Web" font-size="10.00">SUES&#45;NLAMS&#45;011</text>
</g>
<!-- Qlikview -->
<g id="node3" class="node"><title>Qlikview</title>
<polygon fill="#999999" stroke="#999999" points="54,-17.5 0,-17.5 0,-0.5 54,-0.5 54,-17.5"/>
<text text-anchor="middle" x="27" y="-7.1" font-family="Myriad Condensed Web" font-size="8.00">Qlikview</text>
</g>
<!-- 15. Datawarehouse
SUES&#45;NLAMS&#45;011&#45;&gt;Qlikview -->
<g id="edge2" class="edge"><title>15. Datawarehouse
SUES&#45;NLAMS&#45;011&#45;&gt;Qlikview</title>
<path fill="none" stroke="#ff0000" d="M52.7801,-53.683C47.76,-45.1766 41.74,-34.9761 36.7803,-26.5722"/>
<polygon fill="#ff0000" stroke="#ff0000" points="39.6654,-24.5743 31.5686,-17.7412 33.6369,-28.1322 39.6654,-24.5743"/>
</g>
<!-- BPS DWH -->
<g id="node4" class="node"><title>BPS DWH</title>
<polygon fill="#999999" stroke="#999999" points="126,-17.5 72,-17.5 72,-0.5 126,-0.5 126,-17.5"/>
<text text-anchor="middle" x="99" y="-7.1" font-family="Myriad Condensed Web" font-size="8.00">BPS DWH</text>
</g>
<!-- 15. Datawarehouse
SUES&#45;NLAMS&#45;011&#45;&gt;BPS DWH -->
<g id="edge3" class="edge"><title>15. Datawarehouse
SUES&#45;NLAMS&#45;011&#45;&gt;BPS DWH</title>
<path fill="none" stroke="#ff0000" d="M73.2199,-53.683C78.24,-45.1766 84.26,-34.9761 89.2197,-26.5722"/>
<polygon fill="#ff0000" stroke="#ff0000" points="92.3631,-28.1322 94.4314,-17.7412 86.3346,-24.5743 92.3631,-28.1322"/>
</g>
<!-- Informatica -->
<g id="node2" class="node"><title>Informatica</title>
<polygon fill="#999999" stroke="#999999" points="90,-146.5 36,-146.5 36,-129.5 90,-129.5 90,-146.5"/>
<text text-anchor="middle" x="63" y="-136.1" font-family="Myriad Condensed Web" font-size="8.00">Informatica</text>
</g>
<!-- Informatica&#45;&gt;15. Datawarehouse
SUES&#45;NLAMS&#45;011 -->
<g id="edge1" class="edge"><title>Informatica&#45;&gt;15. Datawarehouse
SUES&#45;NLAMS&#45;011</title>
<path fill="none" stroke="#00ff00" d="M63,-129.152C63,-121.892 63,-110.667 63,-100.156"/>
<polygon fill="#00ff00" stroke="#00ff00" points="66.5001,-100.056 63,-90.0563 59.5001,-100.056 66.5001,-100.056"/>
</g>
</g>
</svg>
