<?xml version="1.0" encoding="UTF-8" standalone="no"?>
<!DOCTYPE svg PUBLIC "-//W3C//DTD SVG 1.1//EN"
 "http://www.w3.org/Graphics/SVG/1.1/DTD/svg11.dtd">
<!-- Generated by graphviz version 2.32.0 (20130801.1934)
 -->
<!-- Title: G Pages: 1 -->
<svg width="1080pt" height="245pt"
 viewBox="0.00 0.00 1080.00 244.68" xmlns="http://www.w3.org/2000/svg" xmlns:xlink="http://www.w3.org/1999/xlink">
<g id="graph0" class="graph" transform="scale(0.657734 0.657734) rotate(0) translate(4 368)">
<title>G</title>
<polygon fill="white" stroke="white" points="-4,5 -4,-368 1639,-368 1639,5 -4,5"/>
<!-- Source -->
<g id="node1" class="node"><title>Source</title>
<text text-anchor="middle" x="37" y="-343.5" font-family="Myriad Condensed Web" font-size="10.00">Source</text>
</g>
<!-- ETL -->
<g id="node2" class="node"><title>ETL</title>
<text text-anchor="middle" x="37" y="-261.5" font-family="Myriad Condensed Web" font-size="10.00">ETL</text>
</g>
<!-- Source&#45;&gt;ETL -->
<g id="edge1" class="edge"><title>Source&#45;&gt;ETL</title>
<path fill="none" stroke="black" d="M37,-327.641C37,-317.297 37,-303.941 37,-292.221"/>
<polygon fill="black" stroke="black" points="40.5001,-292.05 37,-282.05 33.5001,-292.05 40.5001,-292.05"/>
</g>
<!-- Datawarehouse -->
<g id="node3" class="node"><title>Datawarehouse</title>
<text text-anchor="middle" x="37" y="-179.5" font-family="Myriad Condensed Web" font-size="10.00">Datawarehouse</text>
</g>
<!-- ETL&#45;&gt;Datawarehouse -->
<g id="edge2" class="edge"><title>ETL&#45;&gt;Datawarehouse</title>
<path fill="none" stroke="black" d="M37,-245.641C37,-235.297 37,-221.941 37,-210.221"/>
<polygon fill="black" stroke="black" points="40.5001,-210.05 37,-200.05 33.5001,-210.05 40.5001,-210.05"/>
</g>
<!-- Application -->
<g id="node4" class="node"><title>Application</title>
<text text-anchor="middle" x="37" y="-97.5" font-family="Myriad Condensed Web" font-size="10.00">Application</text>
</g>
<!-- Datawarehouse&#45;&gt;Application -->
<g id="edge3" class="edge"><title>Datawarehouse&#45;&gt;Application</title>
<path fill="none" stroke="black" d="M37,-163.641C37,-153.297 37,-139.941 37,-128.221"/>
<polygon fill="black" stroke="black" points="40.5001,-128.05 37,-118.05 33.5001,-128.05 40.5001,-128.05"/>
</g>
<!-- Presentation -->
<g id="node5" class="node"><title>Presentation</title>
<text text-anchor="middle" x="37" y="-15.5" font-family="Myriad Condensed Web" font-size="10.00">Presentation</text>
</g>
<!-- Application&#45;&gt;Presentation -->
<g id="edge4" class="edge"><title>Application&#45;&gt;Presentation</title>
<path fill="none" stroke="black" d="M37,-81.6412C37,-71.2971 37,-57.941 37,-46.2206"/>
<polygon fill="black" stroke="black" points="40.5001,-46.0501 37,-36.0501 33.5001,-46.0501 40.5001,-46.0501"/>
</g>
<!-- Aprimo -->
<g id="node6" class="node"><title>Aprimo</title>
<g id="a_node6"><a xlink:href="http://localhost:8080/?focusapp=1" xlink:title="Aprimo">
<polygon fill="none" stroke="skyblue" points="850,-118 796,-118 796,-82 850,-82 850,-118"/>
<text text-anchor="middle" x="823" y="-97.5" font-family="Myriad Condensed Web" font-size="10.00">Aprimo</text>
</a>
</g>
</g>
<!-- RMS -->
<g id="node7" class="node"><title>RMS</title>
<g id="a_node7"><a xlink:href="http://localhost:8080/?focusapp=2" xlink:title="RMS">
<polygon fill="none" stroke="skyblue" points="490,-200 436,-200 436,-164 490,-164 490,-200"/>
<text text-anchor="middle" x="463" y="-179.5" font-family="Myriad Condensed Web" font-size="10.00">RMS</text>
</a>
</g>
</g>
<!-- RMS&#45;&gt;Aprimo -->
<g id="edge55" class="edge"><title>RMS&#45;&gt;Aprimo</title>
<path fill="none" stroke="#999999" d="M496.591,-158.584C511.166,-149.995 528.809,-141.052 546,-136 648.626,-105.84 682.433,-144.751 786,-118 786.103,-117.973 786.205,-117.947 786.308,-117.92"/>
<polygon fill="#999999" stroke="#999999" points="494.666,-155.658 487.944,-163.848 498.306,-161.638 494.666,-155.658"/>
<polygon fill="#999999" stroke="#999999" points="787.52,-121.206 795.921,-114.75 785.328,-114.558 787.52,-121.206"/>
</g>
<!-- PIF -->
<g id="node19" class="node"><title>PIF</title>
<g id="a_node19"><a xlink:href="http://localhost:8080/?focusapp=14" xlink:title="PIF">
<polygon fill="none" stroke="skyblue" points="404,-118 350,-118 350,-82 404,-82 404,-118"/>
<text text-anchor="middle" x="377" y="-97.5" font-family="Myriad Condensed Web" font-size="10.00">PIF</text>
</a>
</g>
</g>
<!-- RMS&#45;&gt;PIF -->
<g id="edge21" class="edge"><title>RMS&#45;&gt;PIF</title>
<path fill="none" stroke="#ffff33" d="M426.71,-165.03C417.586,-159.864 408.318,-153.496 401,-146 395.847,-140.722 391.506,-134.113 387.994,-127.599"/>
<polygon fill="#ffff33" stroke="#ffff33" points="425.234,-168.209 435.709,-169.793 428.508,-162.022 425.234,-168.209"/>
<polygon fill="#ffff33" stroke="#ffff33" points="390.98,-125.737 383.445,-118.288 384.69,-128.81 390.98,-125.737"/>
<text text-anchor="middle" x="409.5" y="-139.1" font-family="Myriad Condensed Web" font-size="8.00">&lt;5Gb</text>
</g>
<!-- BPS DWH -->
<g id="node25" class="node"><title>BPS DWH</title>
<g id="a_node25"><a xlink:href="http://localhost:8080/?focusapp=20" xlink:title="BPS DWH">
<polygon fill="none" stroke="skyblue" points="1089,-200 1035,-200 1035,-164 1089,-164 1089,-200"/>
<text text-anchor="middle" x="1062" y="-179.5" font-family="Myriad Condensed Web" font-size="10.00">BPS DWH</text>
</a>
</g>
</g>
<!-- RMS&#45;&gt;BPS DWH -->
<g id="edge54" class="edge"><title>RMS&#45;&gt;BPS DWH</title>
<path fill="none" stroke="#999999" d="M492.267,-206.039C502.342,-212.899 514.098,-219.468 526,-223 626.768,-252.902 898.232,-252.902 999,-223 1010.9,-219.468 1022.66,-212.899 1032.73,-206.039"/>
<polygon fill="#999999" stroke="#999999" points="494.045,-203.006 483.885,-200.003 489.955,-208.687 494.045,-203.006"/>
<polygon fill="#999999" stroke="#999999" points="1035.05,-208.687 1041.12,-200.003 1030.96,-203.006 1035.05,-208.687"/>
</g>
<!-- mail.essent.nl -->
<g id="node32" class="node"><title>mail.essent.nl</title>
<polygon fill="#999999" stroke="#999999" points="940.25,-36 873.75,-36 873.75,-0 940.25,-0 940.25,-36"/>
<text text-anchor="middle" x="907" y="-15.5" font-family="Myriad Condensed Web" font-size="10.00">mail.essent.nl</text>
</g>
<!-- RMS&#45;&gt;mail.essent.nl -->
<g id="edge20" class="edge"><title>RMS&#45;&gt;mail.essent.nl</title>
<path fill="none" stroke="#4daf4a" d="M490.089,-169.162C519.297,-156.486 562.74,-137.922 571,-136 633.457,-121.468 805.747,-153.724 859,-118 883.348,-101.667 895.755,-69.3296 901.786,-46.0515"/>
<polygon fill="#4daf4a" stroke="#4daf4a" points="905.248,-46.6193 904.129,-36.0837 898.434,-45.0176 905.248,-46.6193"/>
<text text-anchor="middle" x="897.5" y="-98.1" font-family="Myriad Condensed Web" font-size="8.00">&lt;1Gb</text>
</g>
<!-- ODS -->
<g id="node37" class="node"><title>ODS</title>
<g id="a_node37"><a xlink:href="http://localhost:8080/?focusapp=32" xlink:title="ODS">
<polygon fill="none" stroke="skyblue" points="580,-200 526,-200 526,-164 580,-164 580,-200"/>
<text text-anchor="middle" x="553" y="-179.5" font-family="Myriad Condensed Web" font-size="10.00">ODS</text>
</a>
</g>
</g>
<!-- RMS&#45;&gt;ODS -->
<g id="edge53" class="edge"><title>RMS&#45;&gt;ODS</title>
<path fill="none" stroke="#999999" d="M500.164,-182C505.404,-182 510.644,-182 515.883,-182"/>
<polygon fill="#999999" stroke="#999999" points="500.07,-178.5 490.07,-182 500.07,-185.5 500.07,-178.5"/>
<polygon fill="#999999" stroke="#999999" points="515.96,-185.5 525.96,-182 515.96,-178.5 515.96,-185.5"/>
</g>
<!-- XM2 -->
<g id="node8" class="node"><title>XM2</title>
<g id="a_node8"><a xlink:href="http://localhost:8080/?focusapp=3" xlink:title="XM2">
<polygon fill="none" stroke="skyblue" points="680,-282 626,-282 626,-246 680,-246 680,-282"/>
<text text-anchor="middle" x="653" y="-261.5" font-family="Myriad Condensed Web" font-size="10.00">XM2</text>
</a>
</g>
</g>
<!-- XM2&#45;&gt;RMS -->
<g id="edge45" class="edge"><title>XM2&#45;&gt;RMS</title>
<path fill="none" stroke="#999999" d="M616.369,-247.576C582.76,-233.425 533.237,-212.573 499.629,-198.423"/>
<polygon fill="#999999" stroke="#999999" points="615.203,-250.883 625.778,-251.538 617.919,-244.432 615.203,-250.883"/>
<polygon fill="#999999" stroke="#999999" points="500.746,-195.096 490.172,-194.441 498.03,-201.547 500.746,-195.096"/>
</g>
<!-- Digip -->
<g id="node9" class="node"><title>Digip</title>
<g id="a_node9"><a xlink:href="http://localhost:8080/?focusapp=4" xlink:title="Digip">
<polygon fill="none" stroke="skyblue" points="1089,-118 1035,-118 1035,-82 1089,-82 1089,-118"/>
<text text-anchor="middle" x="1062" y="-97.5" font-family="Myriad Condensed Web" font-size="10.00">Digip</text>
</a>
</g>
</g>
<!-- XM2&#45;&gt;Digip -->
<g id="edge35" class="edge"><title>XM2&#45;&gt;Digip</title>
<path fill="none" stroke="#ffff33" d="M680.086,-251.257C727.65,-231.014 829.626,-189.293 919,-164 958.67,-152.773 972.954,-164.093 1010,-146 1020.68,-140.785 1030.91,-132.823 1039.44,-125.038"/>
<polygon fill="#ffff33" stroke="#ffff33" points="1041.95,-127.472 1046.74,-118.023 1037.11,-122.422 1041.95,-127.472"/>
<text text-anchor="middle" x="927.5" y="-180.1" font-family="Myriad Condensed Web" font-size="8.00">&lt;5Gb</text>
</g>
<!-- Qlikview -->
<g id="node11" class="node"><title>Qlikview</title>
<g id="a_node11"><a xlink:href="http://localhost:8080/?focusapp=6" xlink:title="Qlikview">
<polygon fill="none" stroke="skyblue" points="1034,-36 980,-36 980,-0 1034,-0 1034,-36"/>
<text text-anchor="middle" x="1007" y="-15.5" font-family="Myriad Condensed Web" font-size="10.00">Qlikview</text>
</a>
</g>
</g>
<!-- XM2&#45;&gt;Qlikview -->
<g id="edge36" class="edge"><title>XM2&#45;&gt;Qlikview</title>
<path fill="none" stroke="#999999" d="M647.033,-245.925C635.826,-213.174 613.412,-144.041 621,-136 644.679,-110.906 900.509,-134.148 931,-118 960.789,-102.224 982.438,-69.0633 994.841,-45.4722"/>
<polygon fill="#999999" stroke="#999999" points="998.069,-46.8428 999.437,-36.3367 991.816,-43.6964 998.069,-46.8428"/>
</g>
<!-- iProcess -->
<g id="node12" class="node"><title>iProcess</title>
<polygon fill="#999999" stroke="#999999" points="626,-364 572,-364 572,-328 626,-328 626,-364"/>
<text text-anchor="middle" x="599" y="-343.5" font-family="Myriad Condensed Web" font-size="10.00">iProcess</text>
</g>
<!-- XM2&#45;&gt;iProcess -->
<g id="edge44" class="edge"><title>XM2&#45;&gt;iProcess</title>
<path fill="none" stroke="#999999" d="M635.841,-290.421C629.637,-299.612 622.63,-309.992 616.406,-319.214"/>
<polygon fill="#999999" stroke="#999999" points="638.797,-292.297 641.491,-282.05 632.995,-288.38 638.797,-292.297"/>
<polygon fill="#999999" stroke="#999999" points="613.411,-317.395 610.717,-327.641 619.213,-321.311 613.411,-317.395"/>
</g>
<!-- Informatica -->
<g id="node15" class="node"><title>Informatica</title>
<g id="a_node15"><a xlink:href="http://localhost:8080/?focusapp=10" xlink:title="Informatica">
<polygon fill="none" stroke="skyblue" points="1273,-282 1215,-282 1215,-246 1273,-246 1273,-282"/>
<text text-anchor="middle" x="1244" y="-261.5" font-family="Myriad Condensed Web" font-size="10.00">Informatica</text>
</a>
</g>
</g>
<!-- XM2&#45;&gt;Informatica -->
<g id="edge39" class="edge"><title>XM2&#45;&gt;Informatica</title>
<path fill="none" stroke="#999999" d="M680.132,-270.692C747.104,-286.328 925.603,-322.642 1074,-305 1119.82,-299.552 1171.16,-286.12 1205.31,-276.105"/>
<polygon fill="#999999" stroke="#999999" points="1206.32,-279.459 1214.9,-273.251 1204.32,-272.75 1206.32,-279.459"/>
</g>
<!-- XM2&#45;&gt;PIF -->
<g id="edge37" class="edge"><title>XM2&#45;&gt;PIF</title>
<path fill="none" stroke="#ffff33" d="M625.902,-263.673C576.629,-263.412 471.758,-255.814 410,-200 389.785,-181.731 381.933,-150.761 378.894,-128.317"/>
<polygon fill="#ffff33" stroke="#ffff33" points="382.339,-127.629 377.756,-118.077 375.382,-128.402 382.339,-127.629"/>
<text text-anchor="middle" x="418.5" y="-180.1" font-family="Myriad Condensed Web" font-size="8.00">&lt;5Gb</text>
</g>
<!-- ACL -->
<g id="node21" class="node"><title>ACL</title>
<polygon fill="#999999" stroke="#999999" points="294,-36 240,-36 240,-0 294,-0 294,-36"/>
<text text-anchor="middle" x="267" y="-15.5" font-family="Myriad Condensed Web" font-size="10.00">ACL</text>
</g>
<!-- XM2&#45;&gt;ACL -->
<g id="edge38" class="edge"><title>XM2&#45;&gt;ACL</title>
<path fill="none" stroke="#999999" d="M625.824,-262.035C548.995,-259.06 334.267,-248.933 311,-228 259.45,-181.621 259.735,-91.4732 263.632,-46.2519"/>
<polygon fill="#999999" stroke="#999999" points="267.117,-46.583 264.615,-36.2878 260.15,-45.8962 267.117,-46.583"/>
</g>
<!-- XM2&#45;&gt;BPS DWH -->
<g id="edge43" class="edge"><title>XM2&#45;&gt;BPS DWH</title>
<path fill="none" stroke="#999999" d="M690.402,-260.243C742.54,-255.919 839.806,-246.105 921,-228 957.12,-219.946 997.225,-206.712 1025.4,-196.675"/>
<polygon fill="#999999" stroke="#999999" points="689.974,-256.766 680.288,-261.059 690.538,-263.743 689.974,-256.766"/>
<polygon fill="#999999" stroke="#999999" points="1026.62,-199.955 1034.84,-193.272 1024.25,-193.37 1026.62,-199.955"/>
</g>
<!-- XM2&#45;&gt;mail.essent.nl -->
<g id="edge41" class="edge"><title>XM2&#45;&gt;mail.essent.nl</title>
<path fill="none" stroke="#999999" d="M640.777,-245.841C619.683,-215.217 580.154,-152.781 596,-136 643.986,-85.1841 860.622,-167.465 910,-118 928.436,-99.5315 923.96,-68.1692 917.258,-45.6902"/>
<polygon fill="#999999" stroke="#999999" points="920.542,-44.4735 914.096,-36.0653 913.892,-46.6582 920.542,-44.4735"/>
</g>
<!-- Digip&#45;&gt;Qlikview -->
<g id="edge11" class="edge"><title>Digip&#45;&gt;Qlikview</title>
<path fill="none" stroke="#999999" d="M1050.07,-81.6412C1042.59,-70.7694 1032.83,-56.5703 1024.49,-44.44"/>
<polygon fill="#999999" stroke="#999999" points="1027.27,-42.3077 1018.72,-36.0501 1021.5,-46.2734 1027.27,-42.3077"/>
</g>
<!-- Digip&#45;&gt;BPS DWH -->
<g id="edge58" class="edge"><title>Digip&#45;&gt;BPS DWH</title>
<path fill="none" stroke="#ffff33" d="M1062,-128.17C1062,-136.316 1062,-145.256 1062,-153.428"/>
<polygon fill="#ffff33" stroke="#ffff33" points="1065.5,-128.05 1062,-118.05 1058.5,-128.05 1065.5,-128.05"/>
<polygon fill="#ffff33" stroke="#ffff33" points="1058.5,-153.641 1062,-163.641 1065.5,-153.641 1058.5,-153.641"/>
<text text-anchor="middle" x="1070.5" y="-139.1" font-family="Myriad Condensed Web" font-size="8.00">&lt;5Gb</text>
</g>
<!-- Sharepoint -->
<g id="node10" class="node"><title>Sharepoint</title>
<polygon fill="#999999" stroke="#999999" points="535.25,-36 478.75,-36 478.75,-0 535.25,-0 535.25,-36"/>
<text text-anchor="middle" x="507" y="-15.5" font-family="Myriad Condensed Web" font-size="10.00">Sharepoint</text>
</g>
<!-- Sharepoint&#45;&gt;PIF -->
<g id="edge49" class="edge"><title>Sharepoint&#45;&gt;PIF</title>
<path fill="none" stroke="#ffff33" d="M470.796,-41.2796C452.723,-52.4013 430.928,-65.8137 412.897,-76.9092"/>
<polygon fill="#ffff33" stroke="#ffff33" points="472.654,-44.2459 479.336,-36.0241 468.985,-38.2843 472.654,-44.2459"/>
<polygon fill="#ffff33" stroke="#ffff33" points="410.935,-74.0075 404.252,-82.2294 414.603,-79.9692 410.935,-74.0075"/>
<text text-anchor="middle" x="458.5" y="-57.1" font-family="Myriad Condensed Web" font-size="8.00">&lt;5Gb</text>
</g>
<!-- iProcess&#45;&gt;Informatica -->
<g id="edge14" class="edge"><title>iProcess&#45;&gt;Informatica</title>
<path fill="none" stroke="#ffff33" d="M626.158,-331.048C629.092,-329.882 632.075,-328.833 635,-328 827.501,-273.169 883.779,-301.349 1083,-282 1124.65,-277.955 1172.31,-272.865 1204.9,-269.313"/>
<polygon fill="#ffff33" stroke="#ffff33" points="1205.37,-272.783 1214.93,-268.218 1204.61,-265.825 1205.37,-272.783"/>
<text text-anchor="middle" x="762.5" y="-303.1" font-family="Myriad Condensed Web" font-size="8.00">&lt;5Gb</text>
</g>
<!-- SAP ISU -->
<g id="node13" class="node"><title>SAP ISU</title>
<polygon fill="#999999" stroke="#999999" points="1161,-364 1107,-364 1107,-328 1161,-328 1161,-364"/>
<text text-anchor="middle" x="1134" y="-343.5" font-family="Myriad Condensed Web" font-size="10.00">SAP ISU</text>
</g>
<!-- SAP ISU&#45;&gt;XM2 -->
<g id="edge25" class="edge"><title>SAP ISU&#45;&gt;XM2</title>
<path fill="none" stroke="#e41a1c" d="M1106.82,-331.126C1103.89,-329.945 1100.91,-328.871 1098,-328 1042.96,-311.548 1026.88,-318.037 970,-310 868.751,-295.695 749.329,-278.712 690.132,-270.287"/>
<polygon fill="#e41a1c" stroke="#e41a1c" points="690.53,-266.809 680.137,-268.864 689.544,-273.739 690.53,-266.809"/>
<text text-anchor="middle" x="980.5" y="-303.1" font-family="Myriad Condensed Web" font-size="8.00">&gt;25Gb</text>
</g>
<!-- SAP ISU&#45;&gt;Informatica -->
<g id="edge26" class="edge"><title>SAP ISU&#45;&gt;Informatica</title>
<path fill="none" stroke="#ff7f00" d="M1157.6,-327.838C1173.55,-316.238 1194.8,-300.785 1212.23,-288.106"/>
<polygon fill="#ff7f00" stroke="#ff7f00" points="1214.41,-290.846 1220.44,-282.134 1210.3,-285.185 1214.41,-290.846"/>
<text text-anchor="middle" x="1206.5" y="-303.1" font-family="Myriad Condensed Web" font-size="8.00">&lt;25Gb</text>
</g>
<!-- SAP CRM -->
<g id="node14" class="node"><title>SAP CRM</title>
<polygon fill="#999999" stroke="#999999" points="1233,-364 1179,-364 1179,-328 1233,-328 1233,-364"/>
<text text-anchor="middle" x="1206" y="-343.5" font-family="Myriad Condensed Web" font-size="10.00">SAP CRM</text>
</g>
<!-- SAP CRM&#45;&gt;XM2 -->
<g id="edge23" class="edge"><title>SAP CRM&#45;&gt;XM2</title>
<path fill="none" stroke="#e41a1c" d="M1178.81,-331.172C1175.88,-329.982 1172.91,-328.893 1170,-328 996.177,-274.578 776.392,-266.211 690.136,-265.079"/>
<polygon fill="#e41a1c" stroke="#e41a1c" points="690.09,-261.578 680.053,-264.972 690.016,-268.578 690.09,-261.578"/>
<text text-anchor="middle" x="1112.5" y="-303.1" font-family="Myriad Condensed Web" font-size="8.00">&gt;25Gb</text>
</g>
<!-- SAP CRM&#45;&gt;Informatica -->
<g id="edge24" class="edge"><title>SAP CRM&#45;&gt;Informatica</title>
<path fill="none" stroke="#ff7f00" d="M1214.25,-327.641C1219.31,-316.98 1225.89,-303.121 1231.58,-291.149"/>
<polygon fill="#ff7f00" stroke="#ff7f00" points="1234.77,-292.585 1235.9,-282.05 1228.45,-289.581 1234.77,-292.585"/>
<text text-anchor="middle" x="1238.5" y="-303.1" font-family="Myriad Condensed Web" font-size="8.00">&lt;25Gb</text>
</g>
<!-- Automount -->
<g id="node39" class="node"><title>Automount</title>
<polygon fill="#999999" stroke="#999999" points="1403.25,-36 1344.75,-36 1344.75,-0 1403.25,-0 1403.25,-36"/>
<text text-anchor="middle" x="1374" y="-15.5" font-family="Myriad Condensed Web" font-size="10.00">Automount</text>
</g>
<!-- Informatica&#45;&gt;Automount -->
<g id="edge13" class="edge"><title>Informatica&#45;&gt;Automount</title>
<path fill="none" stroke="#ffff33" d="M1259.62,-245.832C1264.23,-240.346 1269.08,-234.108 1273,-228 1312.66,-166.268 1346.99,-86.6282 1363.52,-45.7785"/>
<polygon fill="#ffff33" stroke="#ffff33" points="1366.86,-46.8477 1367.33,-36.2632 1360.36,-44.2459 1366.86,-46.8477"/>
<text text-anchor="middle" x="1330.5" y="-139.1" font-family="Myriad Condensed Web" font-size="8.00">&lt;5Gb</text>
</g>
<!-- Vaultage -->
<g id="node16" class="node"><title>Vaultage</title>
<g id="a_node16"><a xlink:href="http://localhost:8080/?focusapp=11" xlink:title="Vaultage">
<polygon fill="none" stroke="skyblue" points="999,-200 945,-200 945,-164 999,-164 999,-200"/>
<text text-anchor="middle" x="972" y="-179.5" font-family="Myriad Condensed Web" font-size="10.00">Vaultage</text>
</a>
</g>
</g>
<!-- Vaultage&#45;&gt;Qlikview -->
<g id="edge33" class="edge"><title>Vaultage&#45;&gt;Qlikview</title>
<path fill="none" stroke="#999999" d="M975.679,-163.969C981.729,-135.968 993.829,-79.963 1001.09,-46.352"/>
<polygon fill="#999999" stroke="#999999" points="1004.57,-46.8037 1003.26,-36.29 997.732,-45.3254 1004.57,-46.8037"/>
</g>
<!-- Vaultage&#45;&gt;Informatica -->
<g id="edge47" class="edge"><title>Vaultage&#45;&gt;Informatica</title>
<path fill="none" stroke="#e41a1c" d="M1009.11,-194.81C1014.76,-196.571 1020.53,-198.349 1026,-200 1088.46,-218.853 1161.33,-239.677 1205.01,-252.033"/>
<polygon fill="#e41a1c" stroke="#e41a1c" points="1009.74,-191.341 999.155,-191.687 1007.65,-198.02 1009.74,-191.341"/>
<polygon fill="#e41a1c" stroke="#e41a1c" points="1204.09,-255.411 1214.67,-254.762 1206,-248.675 1204.09,-255.411"/>
<text text-anchor="middle" x="1126.5" y="-221.1" font-family="Myriad Condensed Web" font-size="8.00">&gt;25Gb</text>
</g>
<!-- Vaultage&#45;&gt;BPS DWH -->
<g id="edge34" class="edge"><title>Vaultage&#45;&gt;BPS DWH</title>
<path fill="none" stroke="#999999" d="M999.07,-182C1007.67,-182 1016.27,-182 1024.87,-182"/>
<polygon fill="#999999" stroke="#999999" points="1024.96,-185.5 1034.96,-182 1024.96,-178.5 1024.96,-185.5"/>
</g>
<!-- Avaya -->
<g id="node17" class="node"><title>Avaya</title>
<polygon fill="#999999" stroke="#999999" points="1089,-364 1035,-364 1035,-328 1089,-328 1089,-364"/>
<text text-anchor="middle" x="1062" y="-343.5" font-family="Myriad Condensed Web" font-size="10.00">Avaya</text>
</g>
<!-- Totalview -->
<g id="node18" class="node"><title>Totalview</title>
<g id="a_node18"><a xlink:href="http://localhost:8080/?focusapp=13" xlink:title="Totalview">
<polygon fill="none" stroke="skyblue" points="1271,-118 1217,-118 1217,-82 1271,-82 1271,-118"/>
<text text-anchor="middle" x="1244" y="-97.5" font-family="Myriad Condensed Web" font-size="10.00">Totalview</text>
</a>
</g>
</g>
<!-- Avaya&#45;&gt;Totalview -->
<g id="edge6" class="edge"><title>Avaya&#45;&gt;Totalview</title>
<path fill="none" stroke="#4daf4a" d="M1074.8,-327.842C1106.32,-285.579 1187.85,-176.284 1225.02,-126.445"/>
<polygon fill="#4daf4a" stroke="#4daf4a" points="1228.04,-128.247 1231.22,-118.139 1222.43,-124.062 1228.04,-128.247"/>
<text text-anchor="middle" x="1164.5" y="-221.1" font-family="Myriad Condensed Web" font-size="8.00">&lt;1Gb</text>
</g>
<!-- Avaya&#45;&gt;PIF -->
<g id="edge7" class="edge"><title>Avaya&#45;&gt;PIF</title>
<path fill="none" stroke="#ffff33" d="M1034.63,-343.427C977.484,-339.858 841.486,-329.871 729,-310 669.79,-299.54 422.702,-231.58 416,-228 399.331,-219.095 392.901,-216.67 384,-200 372.251,-177.996 371.552,-149.22 373.162,-128.368"/>
<polygon fill="#ffff33" stroke="#ffff33" points="376.66,-128.561 374.168,-118.263 369.694,-127.867 376.66,-128.561"/>
<text text-anchor="middle" x="424.5" y="-221.1" font-family="Myriad Condensed Web" font-size="8.00">&lt;5Gb</text>
</g>
<!-- Avaya&#45;&gt;BPS DWH -->
<g id="edge8" class="edge"><title>Avaya&#45;&gt;BPS DWH</title>
<path fill="none" stroke="#ffff33" d="M1062,-327.969C1062,-299.968 1062,-243.963 1062,-210.352"/>
<polygon fill="#ffff33" stroke="#ffff33" points="1065.5,-210.29 1062,-200.29 1058.5,-210.29 1065.5,-210.29"/>
<text text-anchor="middle" x="1070.5" y="-262.1" font-family="Myriad Condensed Web" font-size="8.00">&lt;5Gb</text>
</g>
<!-- Totalview&#45;&gt;Informatica -->
<g id="edge31" class="edge"><title>Totalview&#45;&gt;Informatica</title>
<path fill="none" stroke="#4daf4a" d="M1244,-118.29C1244,-146.464 1244,-202.485 1244,-235.958"/>
<polygon fill="#4daf4a" stroke="#4daf4a" points="1240.5,-235.969 1244,-245.969 1247.5,-235.969 1240.5,-235.969"/>
<text text-anchor="middle" x="1252.5" y="-180.1" font-family="Myriad Condensed Web" font-size="8.00">&lt;1Gb</text>
</g>
<!-- Totalview&#45;&gt;PIF -->
<g id="edge29" class="edge"><title>Totalview&#45;&gt;PIF</title>
<path fill="none" stroke="#4daf4a" d="M1216.89,-114.806C1213.95,-116.034 1210.95,-117.134 1208,-118 1122.43,-143.117 1097.55,-134.715 1008.5,-139.5 777.746,-151.898 718.908,-141.313 489,-118 463.911,-115.456 435.9,-110.954 414.166,-107.088"/>
<polygon fill="#4daf4a" stroke="#4daf4a" points="414.506,-103.593 404.042,-105.254 413.257,-110.481 414.506,-103.593"/>
<text text-anchor="middle" x="1000" y="-139.1" font-family="Myriad Condensed Web" font-size="8.00">&lt;1Gb</text>
</g>
<!-- Totalview&#45;&gt;BPS DWH -->
<g id="edge30" class="edge"><title>Totalview&#45;&gt;BPS DWH</title>
<path fill="none" stroke="#999999" d="M1216.88,-113.823C1213.88,-115.234 1210.88,-116.649 1208,-118 1181.36,-130.505 1174.97,-134.228 1148,-146 1132,-152.983 1114.15,-160.32 1098.88,-166.463"/>
<polygon fill="#999999" stroke="#999999" points="1097.24,-163.347 1089.26,-170.311 1099.84,-169.847 1097.24,-163.347"/>
</g>
<!-- PIF&#45;&gt;Digip -->
<g id="edge57" class="edge"><title>PIF&#45;&gt;Digip</title>
<path fill="none" stroke="#ffff33" d="M414.187,-106.896C435.927,-110.697 463.939,-115.199 489,-118 646.75,-135.63 687.062,-149.169 845.5,-139.5 923.937,-134.713 945.218,-138.794 1021,-118 1022.27,-117.653 1023.54,-117.273 1024.82,-116.867"/>
<polygon fill="#ffff33" stroke="#ffff33" points="414.517,-103.4 404.059,-105.097 413.292,-110.292 414.517,-103.4"/>
<polygon fill="#ffff33" stroke="#ffff33" points="1026.4,-120.019 1034.61,-113.327 1024.02,-113.437 1026.4,-120.019"/>
<text text-anchor="middle" x="837" y="-139.1" font-family="Myriad Condensed Web" font-size="8.00">&lt;5Gb</text>
</g>
<!-- PIF&#45;&gt;Qlikview -->
<g id="edge17" class="edge"><title>PIF&#45;&gt;Qlikview</title>
<path fill="none" stroke="#ffff33" d="M404.104,-94.4901C426.754,-90.8167 459.925,-85.6579 489,-82 692.857,-56.3528 747.327,-75.2865 949,-36 955.851,-34.6655 963.057,-32.8767 969.972,-30.96"/>
<polygon fill="#ffff33" stroke="#ffff33" points="971.193,-34.25 979.818,-28.098 969.239,-27.5282 971.193,-34.25"/>
<text text-anchor="middle" x="843.5" y="-57.1" font-family="Myriad Condensed Web" font-size="8.00">&lt;5Gb</text>
</g>
<!-- PIF&#45;&gt;iProcess -->
<g id="edge56" class="edge"><title>PIF&#45;&gt;iProcess</title>
<path fill="none" stroke="#ff7f00" d="M340.176,-112.965C328.009,-118.406 315.238,-125.933 306,-136 253.709,-192.99 242.582,-261.711 303,-310 342.121,-341.268 491.306,-345.261 561.748,-345.35"/>
<polygon fill="#ff7f00" stroke="#ff7f00" points="341.806,-116.079 349.725,-109.04 339.145,-109.604 341.806,-116.079"/>
<polygon fill="#ff7f00" stroke="#ff7f00" points="561.954,-348.849 571.949,-345.335 561.944,-341.849 561.954,-348.849"/>
<text text-anchor="middle" x="273.5" y="-221.1" font-family="Myriad Condensed Web" font-size="8.00">&lt;25Gb</text>
</g>
<!-- Audit Base -->
<g id="node23" class="node"><title>Audit Base</title>
<polygon fill="#999999" stroke="#999999" points="777.25,-118 722.75,-118 722.75,-82 777.25,-82 777.25,-118"/>
<text text-anchor="middle" x="750" y="-97.5" font-family="Myriad Condensed Web" font-size="10.00">Audit Base</text>
</g>
<!-- PIF&#45;&gt;Audit Base -->
<g id="edge16" class="edge"><title>PIF&#45;&gt;Audit Base</title>
<path fill="none" stroke="#4daf4a" d="M414.472,-106.555C472.668,-116.329 588.4,-134.149 687.5,-139.5 695.045,-139.907 697.422,-142.144 704.5,-139.5 712.811,-136.396 720.609,-131.013 727.322,-125.202"/>
<polygon fill="#4daf4a" stroke="#4daf4a" points="414.737,-103.05 404.292,-104.828 413.566,-109.951 414.737,-103.05"/>
<polygon fill="#4daf4a" stroke="#4daf4a" points="729.781,-127.694 734.67,-118.295 724.987,-122.594 729.781,-127.694"/>
<text text-anchor="middle" x="696" y="-139.1" font-family="Myriad Condensed Web" font-size="8.00">&lt;1Gb</text>
</g>
<!-- PIF&#45;&gt;BPS DWH -->
<g id="edge19" class="edge"><title>PIF&#45;&gt;BPS DWH</title>
<path fill="none" stroke="#ffff33" d="M404.212,-106.749C451.921,-116.578 553.877,-136.473 641,-146 803.339,-163.752 847.244,-135.245 1008,-164 1013.56,-164.995 1019.35,-166.401 1024.98,-167.982"/>
<polygon fill="#ffff33" stroke="#ffff33" points="1024.28,-171.427 1034.87,-170.969 1026.31,-164.726 1024.28,-171.427"/>
<text text-anchor="middle" x="649.5" y="-139.1" font-family="Myriad Condensed Web" font-size="8.00">&lt;5Gb</text>
</g>
<!-- TIJSS -->
<g id="node27" class="node"><title>TIJSS</title>
<polygon fill="#999999" stroke="#999999" points="228,-364 174,-364 174,-328 228,-328 228,-364"/>
<text text-anchor="middle" x="201" y="-343.5" font-family="Myriad Condensed Web" font-size="10.00">TIJSS</text>
</g>
<!-- PIF&#45;&gt;TIJSS -->
<g id="edge18" class="edge"><title>PIF&#45;&gt;TIJSS</title>
<path fill="none" stroke="#4daf4a" d="M349.858,-105.428C316.471,-112.258 260.156,-128.491 227,-164 187.903,-205.872 191.006,-278.649 196.242,-317.956"/>
<polygon fill="#4daf4a" stroke="#4daf4a" points="192.783,-318.491 197.705,-327.873 199.708,-317.47 192.783,-318.491"/>
<text text-anchor="middle" x="208.5" y="-221.1" font-family="Myriad Condensed Web" font-size="8.00">&lt;1Gb</text>
</g>
<!-- SAS -->
<g id="node20" class="node"><title>SAS</title>
<g id="a_node20"><a xlink:href="http://localhost:8080/?focusapp=15" xlink:title="SAS">
<polygon fill="none" stroke="skyblue" points="552,-118 498,-118 498,-82 552,-82 552,-118"/>
<text text-anchor="middle" x="525" y="-97.5" font-family="Myriad Condensed Web" font-size="10.00">SAS</text>
</a>
</g>
</g>
<!-- SAS&#45;&gt;RMS -->
<g id="edge50" class="edge"><title>SAS&#45;&gt;RMS</title>
<path fill="none" stroke="#999999" d="M503.819,-126.203C501.157,-129.476 498.495,-132.801 496,-136 491.167,-142.198 486.083,-148.986 481.392,-155.369"/>
<polygon fill="#999999" stroke="#999999" points="506.686,-128.227 510.339,-118.282 501.281,-123.778 506.686,-128.227"/>
<polygon fill="#999999" stroke="#999999" points="478.362,-153.584 475.301,-163.727 484.019,-157.707 478.362,-153.584"/>
</g>
<!-- EDSN Gateway -->
<g id="node22" class="node"><title>EDSN Gateway</title>
<polygon fill="#999999" stroke="#999999" points="1321,-364 1251,-364 1251,-328 1321,-328 1321,-364"/>
<text text-anchor="middle" x="1286" y="-343.5" font-family="Myriad Condensed Web" font-size="10.00">EDSN Gateway</text>
</g>
<!-- EDSN Gateway&#45;&gt;Informatica -->
<g id="edge12" class="edge"><title>EDSN Gateway&#45;&gt;Informatica</title>
<path fill="none" stroke="#4daf4a" d="M1276.89,-327.641C1271.29,-316.98 1264.01,-303.121 1257.73,-291.149"/>
<polygon fill="#4daf4a" stroke="#4daf4a" points="1260.7,-289.277 1252.95,-282.05 1254.5,-292.531 1260.7,-289.277"/>
<text text-anchor="middle" x="1275.5" y="-303.1" font-family="Myriad Condensed Web" font-size="8.00">&lt;1Gb</text>
</g>
<!-- Thinconnect -->
<g id="node24" class="node"><title>Thinconnect</title>
<polygon fill="#999999" stroke="#999999" points="706,-364 644,-364 644,-328 706,-328 706,-364"/>
<text text-anchor="middle" x="675" y="-343.5" font-family="Myriad Condensed Web" font-size="10.00">Thinconnect</text>
</g>
<!-- Thinconnect&#45;&gt;XM2 -->
<g id="edge28" class="edge"><title>Thinconnect&#45;&gt;XM2</title>
<path fill="none" stroke="#999999" d="M670.226,-327.641C667.353,-317.192 663.634,-303.668 660.387,-291.862"/>
<polygon fill="#999999" stroke="#999999" points="663.715,-290.764 657.689,-282.05 656.966,-292.62 663.715,-290.764"/>
</g>
<!-- Thinconnect&#45;&gt;PIF -->
<g id="edge27" class="edge"><title>Thinconnect&#45;&gt;PIF</title>
<path fill="none" stroke="#4daf4a" d="M643.811,-330.928C640.864,-329.847 637.896,-328.849 635,-328 517.761,-293.651 468.106,-345.927 364,-282 307.309,-247.189 298.944,-194.293 331,-136 333.72,-131.054 337.465,-126.592 341.654,-122.639"/>
<polygon fill="#4daf4a" stroke="#4daf4a" points="344.093,-125.164 349.548,-116.081 339.62,-119.779 344.093,-125.164"/>
<text text-anchor="middle" x="326.5" y="-221.1" font-family="Myriad Condensed Web" font-size="8.00">&lt;1Gb</text>
</g>
<!-- Thinconnect&#45;&gt;BPS DWH -->
<g id="edge48" class="edge"><title>Thinconnect&#45;&gt;BPS DWH</title>
<path fill="none" stroke="#999999" d="M687.778,-318.926C692.342,-311.886 698.098,-304.876 705,-300 811.699,-224.609 869.821,-279.24 990,-228 1003.86,-222.092 1018.12,-213.729 1030.27,-205.814"/>
<polygon fill="#999999" stroke="#999999" points="684.672,-317.304 682.638,-327.702 690.712,-320.841 684.672,-317.304"/>
<polygon fill="#999999" stroke="#999999" points="1032.33,-208.642 1038.7,-200.171 1028.44,-202.825 1032.33,-208.642"/>
</g>
<!-- BPS DWH&#45;&gt;Sharepoint -->
<g id="edge9" class="edge"><title>BPS DWH&#45;&gt;Sharepoint</title>
<path fill="none" stroke="#999999" d="M1034.86,-171.006C1026.37,-168.274 1016.9,-165.623 1008,-164 937.496,-151.14 749.977,-178.297 686,-146 653.031,-129.357 661.916,-104.974 633,-82 625.43,-75.9854 579.135,-53.3629 544.845,-36.9451"/>
<polygon fill="#999999" stroke="#999999" points="546.066,-33.6497 535.534,-32.498 543.049,-39.9662 546.066,-33.6497"/>
</g>
<!-- BPS DWH&#45;&gt;Qlikview -->
<g id="edge10" class="edge"><title>BPS DWH&#45;&gt;Qlikview</title>
<path fill="none" stroke="#999999" d="M1076.62,-163.956C1092.06,-143.753 1112.34,-109.377 1098,-82 1086.45,-59.9598 1063.3,-44.0974 1043.24,-33.8022"/>
<polygon fill="#999999" stroke="#999999" points="1044.53,-30.5363 1034,-29.3273 1041.48,-36.8363 1044.53,-30.5363"/>
</g>
<!-- RWE AD servers -->
<g id="node26" class="node"><title>RWE AD servers</title>
<polygon fill="#999999" stroke="#999999" points="155.25,-364 82.75,-364 82.75,-328 155.25,-328 155.25,-364"/>
<text text-anchor="middle" x="119" y="-343.5" font-family="Myriad Condensed Web" font-size="10.00">RWE AD servers</text>
</g>
<!-- RWE AD servers&#45;&gt;PIF -->
<g id="edge22" class="edge"><title>RWE AD servers&#45;&gt;PIF</title>
<path fill="none" stroke="#4daf4a" d="M123.376,-327.748C132.814,-293.307 157.876,-214.964 202,-164 236.924,-123.663 299.67,-109.151 339.774,-103.931"/>
<polygon fill="#4daf4a" stroke="#4daf4a" points="340.42,-107.379 349.946,-102.742 339.608,-100.426 340.42,-107.379"/>
<text text-anchor="middle" x="174.5" y="-221.1" font-family="Myriad Condensed Web" font-size="8.00">&lt;1Gb</text>
</g>
<!-- TPM -->
<g id="node28" class="node"><title>TPM</title>
<polygon fill="#999999" stroke="#999999" points="1393,-364 1339,-364 1339,-328 1393,-328 1393,-364"/>
<text text-anchor="middle" x="1366" y="-343.5" font-family="Myriad Condensed Web" font-size="10.00">TPM</text>
</g>
<!-- TPM&#45;&gt;Informatica -->
<g id="edge32" class="edge"><title>TPM&#45;&gt;Informatica</title>
<path fill="none" stroke="#4daf4a" d="M1339.83,-327.838C1321.98,-316.133 1298.14,-300.504 1278.71,-287.761"/>
<polygon fill="#4daf4a" stroke="#4daf4a" points="1280.41,-284.69 1270.13,-282.134 1276.57,-290.544 1280.41,-284.69"/>
<text text-anchor="middle" x="1320.5" y="-303.1" font-family="Myriad Condensed Web" font-size="8.00">&lt;1Gb</text>
</g>
<!-- All4One -->
<g id="node29" class="node"><title>All4One</title>
<polygon fill="#999999" stroke="#999999" points="1465,-364 1411,-364 1411,-328 1465,-328 1465,-364"/>
<text text-anchor="middle" x="1438" y="-343.5" font-family="Myriad Condensed Web" font-size="10.00">All4One</text>
</g>
<!-- All4One&#45;&gt;Informatica -->
<g id="edge5" class="edge"><title>All4One&#45;&gt;Informatica</title>
<path fill="none" stroke="#4daf4a" d="M1410.95,-332.027C1407.94,-330.644 1404.91,-329.277 1402,-328 1361.68,-310.317 1314.74,-291.865 1282.56,-279.536"/>
<polygon fill="#4daf4a" stroke="#4daf4a" points="1283.67,-276.21 1273.08,-275.913 1281.17,-282.75 1283.67,-276.21"/>
<text text-anchor="middle" x="1366.5" y="-303.1" font-family="Myriad Condensed Web" font-size="8.00">&lt;1Gb</text>
</g>
<!-- Wasstraat -->
<g id="node30" class="node"><title>Wasstraat</title>
<g id="a_node30"><a xlink:href="http://localhost:8080/?focusapp=25" xlink:title="Wasstraat">
<polygon fill="none" stroke="skyblue" points="624,-118 570,-118 570,-82 624,-82 624,-118"/>
<text text-anchor="middle" x="597" y="-97.5" font-family="Myriad Condensed Web" font-size="10.00">Wasstraat</text>
</a>
</g>
</g>
<!-- Wasstraat&#45;&gt;RMS -->
<g id="edge46" class="edge"><title>Wasstraat&#45;&gt;RMS</title>
<path fill="none" stroke="#999999" d="M560.589,-118.045C541.671,-126.279 535.554,-127.249 521,-136 510.525,-142.298 499.758,-150.193 490.388,-157.605"/>
<polygon fill="#999999" stroke="#999999" points="562.21,-121.154 569.898,-113.863 559.342,-114.768 562.21,-121.154"/>
<polygon fill="#999999" stroke="#999999" points="488.129,-154.93 482.556,-163.941 492.532,-160.372 488.129,-154.93"/>
</g>
<!-- RMS Portal -->
<g id="node31" class="node"><title>RMS Portal</title>
<g id="a_node31"><a xlink:href="http://localhost:8080/?focusapp=26" xlink:title="RMS Portal">
<polygon fill="none" stroke="skyblue" points="460,-36 404,-36 404,-0 460,-0 460,-36"/>
<text text-anchor="middle" x="432" y="-15.5" font-family="Myriad Condensed Web" font-size="10.00">RMS Portal</text>
</a>
</g>
</g>
<!-- RMS Portal&#45;&gt;RMS -->
<g id="edge52" class="edge"><title>RMS Portal&#45;&gt;RMS</title>
<path fill="none" stroke="#999999" d="M432.336,-46.4641C433.28,-72.546 436.366,-112.62 446,-146 446.808,-148.799 447.826,-151.648 448.96,-154.451"/>
<polygon fill="#999999" stroke="#999999" points="435.827,-46.1016 432.05,-36.2031 428.83,-46.2969 435.827,-46.1016"/>
<polygon fill="#999999" stroke="#999999" points="445.818,-155.997 453.13,-163.663 452.195,-153.11 445.818,-155.997"/>
</g>
<!-- SPSS -->
<g id="node33" class="node"><title>SPSS</title>
<g id="a_node33"><a xlink:href="http://localhost:8080/?focusapp=28" xlink:title="SPSS">
<polygon fill="none" stroke="skyblue" points="1476,-36 1422,-36 1422,-0 1476,-0 1476,-36"/>
<text text-anchor="middle" x="1449" y="-15.5" font-family="Myriad Condensed Web" font-size="10.00">SPSS</text>
</a>
</g>
</g>
<!-- AIA ITP B2B -->
<g id="node34" class="node"><title>AIA ITP B2B</title>
<g id="a_node34"><a xlink:href="http://localhost:8080/?focusapp=29" xlink:title="AIA ITP B2B">
<polygon fill="none" stroke="skyblue" points="1562,-118 1504,-118 1504,-82 1562,-82 1562,-118"/>
<text text-anchor="middle" x="1533" y="-97.5" font-family="Myriad Condensed Web" font-size="10.00">AIA ITP B2B</text>
</a>
</g>
</g>
<!-- HISA -->
<g id="node35" class="node"><title>HISA</title>
<polygon fill="#999999" stroke="#999999" points="1634,-118 1580,-118 1580,-82 1634,-82 1634,-118"/>
<text text-anchor="middle" x="1607" y="-97.5" font-family="Myriad Condensed Web" font-size="10.00">HISA</text>
</g>
<!-- RWE ftp -->
<g id="node36" class="node"><title>RWE ftp</title>
<polygon fill="#999999" stroke="#999999" points="608,-36 554,-36 554,-0 608,-0 608,-36"/>
<text text-anchor="middle" x="581" y="-15.5" font-family="Myriad Condensed Web" font-size="10.00">RWE ftp</text>
</g>
<!-- RWE ftp&#45;&gt;RMS -->
<g id="edge51" class="edge"><title>RWE ftp&#45;&gt;RMS</title>
<path fill="none" stroke="#999999" d="M577.356,-46.314C575.277,-52.8735 572.038,-59.3254 567,-64 540.919,-88.1988 514.532,-57.2232 489,-82 469.931,-100.505 464.268,-131.169 462.856,-153.474"/>
<polygon fill="#999999" stroke="#999999" points="580.862,-46.6947 579.758,-36.1576 574.05,-45.0835 580.862,-46.6947"/>
<polygon fill="#999999" stroke="#999999" points="459.351,-153.536 462.464,-163.663 466.346,-153.805 459.351,-153.536"/>
</g>
<!-- TEP -->
<g id="node38" class="node"><title>TEP</title>
<polygon fill="#999999" stroke="#999999" points="1199,-118 1145,-118 1145,-82 1199,-82 1199,-118"/>
<text text-anchor="middle" x="1172" y="-97.5" font-family="Myriad Condensed Web" font-size="10.00">TEP</text>
</g>
<!-- TEP&#45;&gt;BPS DWH -->
<g id="edge40" class="edge"><title>TEP&#45;&gt;BPS DWH</title>
<path fill="none" stroke="#999999" d="M1157.62,-118.082C1149.51,-127.074 1138.85,-137.886 1128,-146 1118.85,-152.839 1108.19,-159.114 1098.14,-164.404"/>
<polygon fill="#999999" stroke="#999999" points="1096.47,-161.325 1089.14,-168.973 1099.64,-167.567 1096.47,-161.325"/>
</g>
<!-- IP Storage -->
<g id="node40" class="node"><title>IP Storage</title>
<polygon fill="#999999" stroke="#999999" points="1326,-36 1272,-36 1272,-0 1326,-0 1326,-36"/>
<text text-anchor="middle" x="1299" y="-15.5" font-family="Myriad Condensed Web" font-size="10.00">IP Storage</text>
</g>
<!-- IP Storage&#45;&gt;Informatica -->
<g id="edge15" class="edge"><title>IP Storage&#45;&gt;Informatica</title>
<path fill="none" stroke="#ffff33" d="M1296.15,-36.0367C1290.68,-68.2021 1278.12,-140.029 1265,-200 1262.26,-212.531 1261.95,-215.795 1258,-228 1257.11,-230.744 1256.12,-233.58 1255.07,-236.395"/>
<polygon fill="#ffff33" stroke="#ffff33" points="1251.81,-235.135 1251.45,-245.723 1258.33,-237.67 1251.81,-235.135"/>
<text text-anchor="middle" x="1285.5" y="-139.1" font-family="Myriad Condensed Web" font-size="8.00">&lt;5Gb</text>
</g>
<!-- Tibco BW B2B -->
<g id="node41" class="node"><title>Tibco BW B2B</title>
<polygon fill="#999999" stroke="#999999" points="1468,-118 1402,-118 1402,-82 1468,-82 1468,-118"/>
<text text-anchor="middle" x="1435" y="-97.5" font-family="Myriad Condensed Web" font-size="10.00">Tibco BW B2B</text>
</g>
<!-- Tibco BW B2B&#45;&gt;AIA ITP B2B -->
<g id="edge42" class="edge"><title>Tibco BW B2B&#45;&gt;AIA ITP B2B</title>
<path fill="none" stroke="#999999" d="M1478.33,-100C1483.53,-100 1488.73,-100 1493.93,-100"/>
<polygon fill="#999999" stroke="#999999" points="1478.3,-96.5001 1468.3,-100 1478.3,-103.5 1478.3,-96.5001"/>
<polygon fill="#999999" stroke="#999999" points="1493.94,-103.5 1503.94,-100 1493.94,-96.5001 1493.94,-103.5"/>
</g>
</g>
</svg>
