<?xml version="1.0" encoding="UTF-8" standalone="no"?>
<!DOCTYPE svg PUBLIC "-//W3C//DTD SVG 1.1//EN"
 "http://www.w3.org/Graphics/SVG/1.1/DTD/svg11.dtd">
<!-- Generated by graphviz version 2.32.0 (20130801.1934)
 -->
<!-- Title: G Pages: 1 -->
<svg width="936pt" height="372pt"
 viewBox="0.00 0.00 936.00 372.00" xmlns="http://www.w3.org/2000/svg" xmlns:xlink="http://www.w3.org/1999/xlink">
<g id="graph0" class="graph" transform="scale(1 1) rotate(0) translate(4 368)">
<title>G</title>
<polygon fill="white" stroke="white" points="-4,5 -4,-368 933,-368 933,5 -4,5"/>
<!-- Source -->
<g id="node1" class="node"><title>Source</title>
<text text-anchor="middle" x="37" y="-343.5" font-family="Myriad Condensed Web" font-size="10.00">Source</text>
</g>
<!-- ETL -->
<g id="node2" class="node"><title>ETL</title>
<text text-anchor="middle" x="37" y="-261.5" font-family="Myriad Condensed Web" font-size="10.00">ETL</text>
</g>
<!-- Source&#45;&gt;ETL -->
<g id="edge1" class="edge"><title>Source&#45;&gt;ETL</title>
<path fill="none" stroke="black" d="M37,-327.641C37,-317.297 37,-303.941 37,-292.221"/>
<polygon fill="black" stroke="black" points="40.5001,-292.05 37,-282.05 33.5001,-292.05 40.5001,-292.05"/>
</g>
<!-- Datawarehouse -->
<g id="node3" class="node"><title>Datawarehouse</title>
<text text-anchor="middle" x="37" y="-179.5" font-family="Myriad Condensed Web" font-size="10.00">Datawarehouse</text>
</g>
<!-- ETL&#45;&gt;Datawarehouse -->
<g id="edge2" class="edge"><title>ETL&#45;&gt;Datawarehouse</title>
<path fill="none" stroke="black" d="M37,-245.641C37,-235.297 37,-221.941 37,-210.221"/>
<polygon fill="black" stroke="black" points="40.5001,-210.05 37,-200.05 33.5001,-210.05 40.5001,-210.05"/>
</g>
<!-- Application -->
<g id="node4" class="node"><title>Application</title>
<text text-anchor="middle" x="37" y="-97.5" font-family="Myriad Condensed Web" font-size="10.00">Application</text>
</g>
<!-- Datawarehouse&#45;&gt;Application -->
<g id="edge3" class="edge"><title>Datawarehouse&#45;&gt;Application</title>
<path fill="none" stroke="black" d="M37,-163.641C37,-153.297 37,-139.941 37,-128.221"/>
<polygon fill="black" stroke="black" points="40.5001,-128.05 37,-118.05 33.5001,-128.05 40.5001,-128.05"/>
</g>
<!-- Presentation -->
<g id="node5" class="node"><title>Presentation</title>
<text text-anchor="middle" x="37" y="-15.5" font-family="Myriad Condensed Web" font-size="10.00">Presentation</text>
</g>
<!-- Application&#45;&gt;Presentation -->
<g id="edge4" class="edge"><title>Application&#45;&gt;Presentation</title>
<path fill="none" stroke="black" d="M37,-81.6412C37,-71.2971 37,-57.941 37,-46.2206"/>
<polygon fill="black" stroke="black" points="40.5001,-46.0501 37,-36.0501 33.5001,-46.0501 40.5001,-46.0501"/>
</g>
<!-- Aprimo -->
<g id="node6" class="node"><title>Aprimo</title>
<polygon fill="none" stroke="skyblue" points="409,-118 355,-118 355,-82 409,-82 409,-118"/>
<text text-anchor="middle" x="382" y="-97.5" font-family="Myriad Condensed Web" font-size="10.00">Aprimo</text>
</g>
<!-- RMS -->
<g id="node7" class="node"><title>RMS</title>
<polygon fill="none" stroke="skyblue" points="509,-200 455,-200 455,-164 509,-164 509,-200"/>
<text text-anchor="middle" x="482" y="-179.5" font-family="Myriad Condensed Web" font-size="10.00">RMS</text>
</g>
<!-- RMS&#45;&gt;Aprimo -->
<g id="edge5" class="edge"><title>RMS&#45;&gt;Aprimo</title>
<path fill="none" stroke="#999999" d="M454.803,-173.618C438.747,-168.14 418.911,-159.287 405,-146 399.629,-140.87 395.295,-134.212 391.9,-127.597"/>
<polygon fill="#999999" stroke="#999999" points="394.914,-125.771 387.585,-118.12 388.543,-128.672 394.914,-125.771"/>
</g>
<!-- SAS -->
<g id="node20" class="node"><title>SAS</title>
<polygon fill="none" stroke="skyblue" points="481,-118 427,-118 427,-82 481,-82 481,-118"/>
<text text-anchor="middle" x="454" y="-97.5" font-family="Myriad Condensed Web" font-size="10.00">SAS</text>
</g>
<!-- RMS&#45;&gt;SAS -->
<g id="edge21" class="edge"><title>RMS&#45;&gt;SAS</title>
<path fill="none" stroke="#999999" d="M474.749,-163.656C472.492,-158.056 470.058,-151.797 468,-146 465.931,-140.171 463.863,-133.861 461.977,-127.862"/>
<polygon fill="#999999" stroke="#999999" points="465.29,-126.728 459.003,-118.2 458.599,-128.787 465.29,-126.728"/>
</g>
<!-- mail.essent.nl -->
<g id="node31" class="node"><title>mail.essent.nl</title>
<polygon fill="#999999" stroke="#999999" points="566.25,-118 499.75,-118 499.75,-82 566.25,-82 566.25,-118"/>
<text text-anchor="middle" x="533" y="-97.5" font-family="Myriad Condensed Web" font-size="10.00">mail.essent.nl</text>
</g>
<!-- RMS&#45;&gt;mail.essent.nl -->
<g id="edge40" class="edge"><title>RMS&#45;&gt;mail.essent.nl</title>
<path fill="none" stroke="#4daf4a" d="M481.276,-163.774C481.626,-154.95 483.213,-144.339 488,-136 490.279,-132.03 493.203,-128.352 496.465,-124.991"/>
<polygon fill="#4daf4a" stroke="#4daf4a" points="498.962,-127.451 504.027,-118.145 494.264,-122.262 498.962,-127.451"/>
<text text-anchor="middle" x="496.5" y="-139.1" font-family="Myriad Condensed Web" font-size="8.00">&lt;1Gb</text>
</g>
<!-- XM2 -->
<g id="node8" class="node"><title>XM2</title>
<polygon fill="none" stroke="skyblue" points="244,-282 190,-282 190,-246 244,-246 244,-282"/>
<text text-anchor="middle" x="217" y="-261.5" font-family="Myriad Condensed Web" font-size="10.00">XM2</text>
</g>
<!-- XM2&#45;&gt;RMS -->
<g id="edge6" class="edge"><title>XM2&#45;&gt;RMS</title>
<path fill="none" stroke="#999999" d="M244.026,-250.18C265.579,-240.34 296.731,-226.964 325,-218 365.354,-205.204 412.969,-195.29 445.095,-189.331"/>
<polygon fill="#999999" stroke="#999999" points="445.741,-192.771 454.952,-187.537 444.487,-185.884 445.741,-192.771"/>
</g>
<!-- Digip -->
<g id="node9" class="node"><title>Digip</title>
<polygon fill="none" stroke="skyblue" points="299,-118 245,-118 245,-82 299,-82 299,-118"/>
<text text-anchor="middle" x="272" y="-97.5" font-family="Myriad Condensed Web" font-size="10.00">Digip</text>
</g>
<!-- XM2&#45;&gt;Digip -->
<g id="edge7" class="edge"><title>XM2&#45;&gt;Digip</title>
<path fill="none" stroke="#ffff33" d="M224.071,-245.999C226.365,-240.309 228.867,-233.91 231,-228 243.306,-193.906 255.883,-154.053 263.804,-128.213"/>
<polygon fill="#ffff33" stroke="#ffff33" points="267.233,-128.968 266.8,-118.382 260.537,-126.927 267.233,-128.968"/>
<text text-anchor="middle" x="261.5" y="-180.1" font-family="Myriad Condensed Web" font-size="8.00">&lt;5Gb</text>
</g>
<!-- Qlikview -->
<g id="node11" class="node"><title>Qlikview</title>
<polygon fill="none" stroke="skyblue" points="327,-36 273,-36 273,-0 327,-0 327,-36"/>
<text text-anchor="middle" x="300" y="-15.5" font-family="Myriad Condensed Web" font-size="10.00">Qlikview</text>
</g>
<!-- XM2&#45;&gt;Qlikview -->
<g id="edge12" class="edge"><title>XM2&#45;&gt;Qlikview</title>
<path fill="none" stroke="#999999" d="M215.1,-245.752C212.189,-212.304 209.466,-137.081 236,-82 243.271,-66.9057 255.715,-53.3827 267.708,-42.7715"/>
<polygon fill="#999999" stroke="#999999" points="270.076,-45.3534 275.465,-36.2316 265.564,-40.0016 270.076,-45.3534"/>
</g>
<!-- Informatica -->
<g id="node15" class="node"><title>Informatica</title>
<polygon fill="none" stroke="skyblue" points="358,-282 300,-282 300,-246 358,-246 358,-282"/>
<text text-anchor="middle" x="329" y="-261.5" font-family="Myriad Condensed Web" font-size="10.00">Informatica</text>
</g>
<!-- XM2&#45;&gt;Informatica -->
<g id="edge24" class="edge"><title>XM2&#45;&gt;Informatica</title>
<path fill="none" stroke="#999999" d="M244.125,-264C259.355,-264 274.586,-264 289.816,-264"/>
<polygon fill="#999999" stroke="#999999" points="289.824,-267.5 299.824,-264 289.824,-260.5 289.824,-267.5"/>
</g>
<!-- PIF -->
<g id="node19" class="node"><title>PIF</title>
<polygon fill="none" stroke="skyblue" points="729,-118 675,-118 675,-82 729,-82 729,-118"/>
<text text-anchor="middle" x="702" y="-97.5" font-family="Myriad Condensed Web" font-size="10.00">PIF</text>
</g>
<!-- XM2&#45;&gt;PIF -->
<g id="edge19" class="edge"><title>XM2&#45;&gt;PIF</title>
<path fill="none" stroke="#ffff33" d="M244.026,-256.615C258.025,-253.352 275.41,-249.37 291,-246 391.616,-224.252 427.692,-249.406 518,-200 552.743,-180.992 545.831,-156.021 580,-136 606.974,-120.195 617.971,-126.696 648,-118 653.487,-116.411 659.267,-114.667 664.923,-112.921"/>
<polygon fill="#ffff33" stroke="#ffff33" points="666.38,-116.132 674.88,-109.807 664.291,-109.451 666.38,-116.132"/>
<text text-anchor="middle" x="560.5" y="-180.1" font-family="Myriad Condensed Web" font-size="8.00">&lt;5Gb</text>
</g>
<!-- ACL -->
<g id="node21" class="node"><title>ACL</title>
<polygon fill="#999999" stroke="#999999" points="189,-118 135,-118 135,-82 189,-82 189,-118"/>
<text text-anchor="middle" x="162" y="-97.5" font-family="Myriad Condensed Web" font-size="10.00">ACL</text>
</g>
<!-- XM2&#45;&gt;ACL -->
<g id="edge22" class="edge"><title>XM2&#45;&gt;ACL</title>
<path fill="none" stroke="#999999" d="M209.929,-245.999C207.635,-240.309 205.133,-233.91 203,-228 190.694,-193.906 178.117,-154.053 170.196,-128.213"/>
<polygon fill="#999999" stroke="#999999" points="173.463,-126.927 167.2,-118.382 166.767,-128.968 173.463,-126.927"/>
</g>
<!-- Digip&#45;&gt;Qlikview -->
<g id="edge34" class="edge"><title>Digip&#45;&gt;Qlikview</title>
<path fill="none" stroke="#999999" d="M278.076,-81.6412C281.77,-71.086 286.562,-57.3946 290.723,-45.5051"/>
<polygon fill="#999999" stroke="#999999" points="294.032,-46.6449 294.032,-36.0501 287.425,-44.3324 294.032,-46.6449"/>
</g>
<!-- Digip&#45;&gt;PIF -->
<g id="edge27" class="edge"><title>Digip&#45;&gt;PIF</title>
<path fill="none" stroke="#ffff33" d="M308.707,-113.587C336.06,-122.959 374.562,-134.581 409.5,-139.5 462.195,-146.919 595.946,-129.054 648,-118 653.558,-116.82 659.344,-115.261 664.974,-113.555"/>
<polygon fill="#ffff33" stroke="#ffff33" points="309.757,-110.246 299.162,-110.252 307.448,-116.854 309.757,-110.246"/>
<polygon fill="#ffff33" stroke="#ffff33" points="666.413,-116.768 674.859,-110.372 664.268,-110.105 666.413,-116.768"/>
<text text-anchor="middle" x="418" y="-139.1" font-family="Myriad Condensed Web" font-size="8.00">&lt;5Gb</text>
</g>
<!-- Sharepoint -->
<g id="node10" class="node"><title>Sharepoint</title>
<polygon fill="#999999" stroke="#999999" points="730.25,-36 673.75,-36 673.75,-0 730.25,-0 730.25,-36"/>
<text text-anchor="middle" x="702" y="-15.5" font-family="Myriad Condensed Web" font-size="10.00">Sharepoint</text>
</g>
<!-- Sharepoint&#45;&gt;PIF -->
<g id="edge28" class="edge"><title>Sharepoint&#45;&gt;PIF</title>
<path fill="none" stroke="#ffff33" d="M702,-46.1702C702,-54.3163 702,-63.2564 702,-71.4281"/>
<polygon fill="#ffff33" stroke="#ffff33" points="705.5,-46.0501 702,-36.0501 698.5,-46.0501 705.5,-46.0501"/>
<polygon fill="#ffff33" stroke="#ffff33" points="698.5,-71.6412 702,-81.6412 705.5,-71.6412 698.5,-71.6412"/>
<text text-anchor="middle" x="710.5" y="-57.1" font-family="Myriad Condensed Web" font-size="8.00">&lt;5Gb</text>
</g>
<!-- iProcess -->
<g id="node12" class="node"><title>iProcess</title>
<polygon fill="#999999" stroke="#999999" points="512,-364 458,-364 458,-328 512,-328 512,-364"/>
<text text-anchor="middle" x="485" y="-343.5" font-family="Myriad Condensed Web" font-size="10.00">iProcess</text>
</g>
<!-- iProcess&#45;&gt;XM2 -->
<g id="edge8" class="edge"><title>iProcess&#45;&gt;XM2</title>
<path fill="none" stroke="#999999" d="M448.167,-328.081C400.095,-311.495 306.213,-287.323 254.002,-274.202"/>
<polygon fill="#999999" stroke="#999999" points="447.101,-331.418 457.696,-331.498 449.464,-324.828 447.101,-331.418"/>
<polygon fill="#999999" stroke="#999999" points="254.692,-270.766 244.141,-271.73 252.99,-277.556 254.692,-270.766"/>
</g>
<!-- iProcess&#45;&gt;Informatica -->
<g id="edge9" class="edge"><title>iProcess&#45;&gt;Informatica</title>
<path fill="none" stroke="#ffff33" d="M477.3,-327.788C472.233,-318.3 464.733,-307.05 455,-300 429.516,-281.541 394.693,-272.81 368.113,-268.685"/>
<polygon fill="#ffff33" stroke="#ffff33" points="368.393,-265.19 358.005,-267.273 367.425,-272.123 368.393,-265.19"/>
<text text-anchor="middle" x="473.5" y="-303.1" font-family="Myriad Condensed Web" font-size="8.00">&lt;5Gb</text>
</g>
<!-- iProcess&#45;&gt;PIF -->
<g id="edge20" class="edge"><title>iProcess&#45;&gt;PIF</title>
<path fill="none" stroke="#ff7f00" d="M507.102,-320.149C548.772,-273.293 638.492,-172.41 680.048,-125.683"/>
<polygon fill="#ff7f00" stroke="#ff7f00" points="504.289,-318.044 500.259,-327.842 509.52,-322.696 504.289,-318.044"/>
<polygon fill="#ff7f00" stroke="#ff7f00" points="682.728,-127.937 686.758,-118.139 677.497,-123.285 682.728,-127.937"/>
<text text-anchor="middle" x="605.5" y="-221.1" font-family="Myriad Condensed Web" font-size="8.00">&gt;5Gb</text>
</g>
<!-- SAP ISU -->
<g id="node13" class="node"><title>SAP ISU</title>
<polygon fill="#999999" stroke="#999999" points="208,-364 154,-364 154,-328 208,-328 208,-364"/>
<text text-anchor="middle" x="181" y="-343.5" font-family="Myriad Condensed Web" font-size="10.00">SAP ISU</text>
</g>
<!-- SAP ISU&#45;&gt;XM2 -->
<g id="edge13" class="edge"><title>SAP ISU&#45;&gt;XM2</title>
<path fill="none" stroke="#e41a1c" d="M176.118,-327.658C174.591,-319.004 174.171,-308.58 178,-300 179.662,-296.274 181.939,-292.78 184.564,-289.55"/>
<polygon fill="#e41a1c" stroke="#e41a1c" points="187.305,-291.747 191.654,-282.086 182.229,-286.926 187.305,-291.747"/>
<text text-anchor="middle" x="186.5" y="-303.1" font-family="Myriad Condensed Web" font-size="8.00">&gt;5Gb</text>
</g>
<!-- SAP ISU&#45;&gt;Informatica -->
<g id="edge15" class="edge"><title>SAP ISU&#45;&gt;Informatica</title>
<path fill="none" stroke="#e41a1c" d="M208.344,-331.603C211.242,-330.329 214.166,-329.103 217,-328 242.154,-318.213 251.285,-322.889 275,-310 285.344,-304.378 295.56,-296.603 304.276,-289.096"/>
<polygon fill="#e41a1c" stroke="#e41a1c" points="306.7,-291.623 311.819,-282.347 302.033,-286.407 306.7,-291.623"/>
<text text-anchor="middle" x="298.5" y="-303.1" font-family="Myriad Condensed Web" font-size="8.00">&gt;5Gb</text>
</g>
<!-- SAP CRM -->
<g id="node14" class="node"><title>SAP CRM</title>
<polygon fill="#999999" stroke="#999999" points="136,-364 82,-364 82,-328 136,-328 136,-364"/>
<text text-anchor="middle" x="109" y="-343.5" font-family="Myriad Condensed Web" font-size="10.00">SAP CRM</text>
</g>
<!-- SAP CRM&#45;&gt;XM2 -->
<g id="edge14" class="edge"><title>SAP CRM&#45;&gt;XM2</title>
<path fill="none" stroke="#e41a1c" d="M124.658,-327.647C133.144,-318.789 144.102,-308.185 155,-300 162.996,-293.995 172.129,-288.29 180.883,-283.295"/>
<polygon fill="#e41a1c" stroke="#e41a1c" points="182.746,-286.265 189.805,-278.364 179.36,-280.138 182.746,-286.265"/>
<text text-anchor="middle" x="163.5" y="-303.1" font-family="Myriad Condensed Web" font-size="8.00">&gt;5Gb</text>
</g>
<!-- SAP CRM&#45;&gt;Informatica -->
<g id="edge16" class="edge"><title>SAP CRM&#45;&gt;Informatica</title>
<path fill="none" stroke="#ff7f00" d="M136.234,-331.298C139.154,-330.083 142.113,-328.955 145,-328 183.73,-315.196 196.556,-323.64 235,-310 243.993,-306.809 245.452,-304.241 254,-300 265.883,-294.104 278.949,-287.909 290.8,-282.397"/>
<polygon fill="#ff7f00" stroke="#ff7f00" points="292.391,-285.517 299.998,-278.142 289.452,-279.164 292.391,-285.517"/>
<text text-anchor="middle" x="262.5" y="-303.1" font-family="Myriad Condensed Web" font-size="8.00">&gt;5Gb</text>
</g>
<!-- Vaultage -->
<g id="node16" class="node"><title>Vaultage</title>
<polygon fill="none" stroke="skyblue" points="355,-200 301,-200 301,-164 355,-164 355,-200"/>
<text text-anchor="middle" x="328" y="-179.5" font-family="Myriad Condensed Web" font-size="10.00">Vaultage</text>
</g>
<!-- Informatica&#45;&gt;Vaultage -->
<g id="edge10" class="edge"><title>Informatica&#45;&gt;Vaultage</title>
<path fill="none" stroke="#e41a1c" d="M328.783,-245.641C328.654,-235.297 328.487,-221.941 328.34,-210.221"/>
<polygon fill="#e41a1c" stroke="#e41a1c" points="331.838,-210.006 328.213,-200.05 324.838,-210.093 331.838,-210.006"/>
<text text-anchor="middle" x="337.5" y="-221.1" font-family="Myriad Condensed Web" font-size="8.00">&gt;5Gb</text>
</g>
<!-- Vaultage&#45;&gt;Qlikview -->
<g id="edge11" class="edge"><title>Vaultage&#45;&gt;Qlikview</title>
<path fill="none" stroke="#999999" d="M325.056,-163.969C320.217,-135.968 310.537,-79.963 304.728,-46.352"/>
<polygon fill="#999999" stroke="#999999" points="308.14,-45.5478 302.988,-36.29 301.243,-46.7401 308.14,-45.5478"/>
</g>
<!-- Avaya -->
<g id="node17" class="node"><title>Avaya</title>
<polygon fill="none" stroke="skyblue" points="660,-364 606,-364 606,-328 660,-328 660,-364"/>
<text text-anchor="middle" x="633" y="-343.5" font-family="Myriad Condensed Web" font-size="10.00">Avaya</text>
</g>
<!-- Totalview -->
<g id="node18" class="node"><title>Totalview</title>
<polygon fill="none" stroke="skyblue" points="639,-118 585,-118 585,-82 639,-82 639,-118"/>
<text text-anchor="middle" x="612" y="-97.5" font-family="Myriad Condensed Web" font-size="10.00">Totalview</text>
</g>
<!-- Avaya&#45;&gt;Totalview -->
<g id="edge17" class="edge"><title>Avaya&#45;&gt;Totalview</title>
<path fill="none" stroke="#999999" d="M631.523,-327.842C627.931,-286.104 618.712,-178.989 614.352,-128.33"/>
<polygon fill="#999999" stroke="#999999" points="617.82,-127.802 613.475,-118.139 610.846,-128.402 617.82,-127.802"/>
</g>
<!-- Avaya&#45;&gt;PIF -->
<g id="edge25" class="edge"><title>Avaya&#45;&gt;PIF</title>
<path fill="none" stroke="#ffff33" d="M638.487,-327.945C640.285,-322.251 642.266,-315.863 644,-310 663.267,-244.866 684.178,-167.756 694.851,-127.885"/>
<polygon fill="#ffff33" stroke="#ffff33" points="698.259,-128.688 697.458,-118.123 691.496,-126.881 698.259,-128.688"/>
<text text-anchor="middle" x="678.5" y="-221.1" font-family="Myriad Condensed Web" font-size="8.00">&lt;5Gb</text>
</g>
<!-- Totalview&#45;&gt;PIF -->
<g id="edge18" class="edge"><title>Totalview&#45;&gt;PIF</title>
<path fill="none" stroke="#4daf4a" d="M639.003,-100C647.028,-100 655.967,-100 664.531,-100"/>
<polygon fill="#4daf4a" stroke="#4daf4a" points="664.705,-103.5 674.705,-100 664.705,-96.5001 664.705,-103.5"/>
<text text-anchor="middle" x="657" y="-105.6" font-family="Myriad Condensed Web" font-size="8.00">&lt;1Gb</text>
</g>
<!-- PIF&#45;&gt;RMS -->
<g id="edge39" class="edge"><title>PIF&#45;&gt;RMS</title>
<path fill="none" stroke="#4daf4a" d="M674.757,-110.487C666.263,-113.198 656.81,-115.965 648,-118 595.453,-130.134 576.285,-111.978 528,-136 518.248,-140.852 509.251,-148.535 501.85,-156.19"/>
<polygon fill="#4daf4a" stroke="#4daf4a" points="499.138,-153.971 495.011,-163.729 504.322,-158.674 499.138,-153.971"/>
<text text-anchor="middle" x="536.5" y="-139.1" font-family="Myriad Condensed Web" font-size="8.00">&lt;1Gb</text>
</g>
<!-- PIF&#45;&gt;Qlikview -->
<g id="edge30" class="edge"><title>PIF&#45;&gt;Qlikview</title>
<path fill="none" stroke="#ffff33" d="M674.995,-89.7652C666.427,-87.0335 656.874,-84.1909 648,-82 536.198,-54.398 401.421,-33.4243 337.347,-24.1825"/>
<polygon fill="#ffff33" stroke="#ffff33" points="337.715,-20.6995 327.32,-22.749 336.724,-27.6291 337.715,-20.6995"/>
<text text-anchor="middle" x="571.5" y="-57.1" font-family="Myriad Condensed Web" font-size="8.00">&lt;5Gb</text>
</g>
<!-- Audit Base -->
<g id="node23" class="node"><title>Audit Base</title>
<polygon fill="#999999" stroke="#999999" points="819.25,-118 764.75,-118 764.75,-82 819.25,-82 819.25,-118"/>
<text text-anchor="middle" x="792" y="-97.5" font-family="Myriad Condensed Web" font-size="10.00">Audit Base</text>
</g>
<!-- PIF&#45;&gt;Audit Base -->
<g id="edge26" class="edge"><title>PIF&#45;&gt;Audit Base</title>
<path fill="none" stroke="#4daf4a" d="M729.003,-100C737.028,-100 745.967,-100 754.531,-100"/>
<polygon fill="#4daf4a" stroke="#4daf4a" points="754.705,-103.5 764.705,-100 754.705,-96.5001 754.705,-103.5"/>
<text text-anchor="middle" x="746.75" y="-105.6" font-family="Myriad Condensed Web" font-size="8.00">&lt;1Gb</text>
</g>
<!-- EDSN Gateway -->
<g id="node22" class="node"><title>EDSN Gateway</title>
<polygon fill="#999999" stroke="#999999" points="296,-364 226,-364 226,-328 296,-328 296,-364"/>
<text text-anchor="middle" x="261" y="-343.5" font-family="Myriad Condensed Web" font-size="10.00">EDSN Gateway</text>
</g>
<!-- EDSN Gateway&#45;&gt;XM2 -->
<g id="edge23" class="edge"><title>EDSN Gateway&#45;&gt;XM2</title>
<path fill="none" stroke="#ffff33" d="M232.771,-327.926C226.851,-322.929 221.383,-316.917 218,-310 215.382,-304.647 214.235,-298.491 213.914,-292.485"/>
<polygon fill="#ffff33" stroke="#ffff33" points="217.421,-292.1 214.092,-282.042 210.422,-291.981 217.421,-292.1"/>
<text text-anchor="middle" x="226.5" y="-303.1" font-family="Myriad Condensed Web" font-size="8.00">&lt;5Gb</text>
</g>
<!-- EDSN Gateway&#45;&gt;Informatica -->
<g id="edge35" class="edge"><title>EDSN Gateway&#45;&gt;Informatica</title>
<path fill="none" stroke="#999999" d="M295.38,-327.839C302.666,-322.906 309.736,-316.944 315,-310 319.022,-304.694 321.902,-298.215 323.959,-291.844"/>
<polygon fill="#999999" stroke="#999999" points="327.361,-292.67 326.561,-282.106 320.598,-290.864 327.361,-292.67"/>
</g>
<!-- Thinconnect -->
<g id="node24" class="node"><title>Thinconnect</title>
<polygon fill="#999999" stroke="#999999" points="741,-364 679,-364 679,-328 741,-328 741,-364"/>
<text text-anchor="middle" x="710" y="-343.5" font-family="Myriad Condensed Web" font-size="10.00">Thinconnect</text>
</g>
<!-- Thinconnect&#45;&gt;PIF -->
<g id="edge29" class="edge"><title>Thinconnect&#45;&gt;PIF</title>
<path fill="none" stroke="#4daf4a" d="M709.437,-327.842C708.069,-286.104 704.557,-178.989 702.896,-128.33"/>
<polygon fill="#4daf4a" stroke="#4daf4a" points="706.388,-128.019 702.562,-118.139 699.392,-128.248 706.388,-128.019"/>
<text text-anchor="middle" x="715.5" y="-221.1" font-family="Myriad Condensed Web" font-size="8.00">&lt;1Gb</text>
</g>
<!-- BPS DWH -->
<g id="node25" class="node"><title>BPS DWH</title>
<polygon fill="#999999" stroke="#999999" points="791,-200 737,-200 737,-164 791,-164 791,-200"/>
<text text-anchor="middle" x="764" y="-179.5" font-family="Myriad Condensed Web" font-size="10.00">BPS DWH</text>
</g>
<!-- BPS DWH&#45;&gt;PIF -->
<g id="edge31" class="edge"><title>BPS DWH&#45;&gt;PIF</title>
<path fill="none" stroke="#ffff33" d="M750.547,-163.641C742.039,-152.664 730.903,-138.294 721.443,-126.087"/>
<polygon fill="#ffff33" stroke="#ffff33" points="724.106,-123.81 715.214,-118.05 718.573,-128.098 724.106,-123.81"/>
<text text-anchor="middle" x="744.5" y="-139.1" font-family="Myriad Condensed Web" font-size="8.00">&lt;5Gb</text>
</g>
<!-- RWE AD servers -->
<g id="node26" class="node"><title>RWE AD servers</title>
<polygon fill="#999999" stroke="#999999" points="855.25,-364 782.75,-364 782.75,-328 855.25,-328 855.25,-364"/>
<text text-anchor="middle" x="819" y="-343.5" font-family="Myriad Condensed Web" font-size="10.00">RWE AD servers</text>
</g>
<!-- RWE AD servers&#45;&gt;PIF -->
<g id="edge32" class="edge"><title>RWE AD servers&#45;&gt;PIF</title>
<path fill="none" stroke="#4daf4a" d="M821.791,-327.757C826.378,-293.668 832.074,-216.421 800,-164 786.023,-141.156 760.288,-125.089 738.697,-114.9"/>
<polygon fill="#4daf4a" stroke="#4daf4a" points="739.993,-111.646 729.436,-110.76 737.137,-118.037 739.993,-111.646"/>
<text text-anchor="middle" x="829.5" y="-221.1" font-family="Myriad Condensed Web" font-size="8.00">&lt;1Gb</text>
</g>
<!-- TIJSS -->
<g id="node27" class="node"><title>TIJSS</title>
<polygon fill="#999999" stroke="#999999" points="928,-364 874,-364 874,-328 928,-328 928,-364"/>
<text text-anchor="middle" x="901" y="-343.5" font-family="Myriad Condensed Web" font-size="10.00">TIJSS</text>
</g>
<!-- TIJSS&#45;&gt;PIF -->
<g id="edge33" class="edge"><title>TIJSS&#45;&gt;PIF</title>
<path fill="none" stroke="#4daf4a" d="M895.826,-327.967C885.192,-294.575 858.677,-218.98 821,-164 811.051,-149.483 807.757,-145.59 793,-136 783.627,-129.909 759.702,-120.786 738.735,-113.381"/>
<polygon fill="#4daf4a" stroke="#4daf4a" points="739.661,-109.998 729.066,-110.011 737.358,-116.608 739.661,-109.998"/>
<text text-anchor="middle" x="864.5" y="-221.1" font-family="Myriad Condensed Web" font-size="8.00">&lt;1Gb</text>
</g>
<!-- TPM -->
<g id="node28" class="node"><title>TPM</title>
<polygon fill="#999999" stroke="#999999" points="368,-364 314,-364 314,-328 368,-328 368,-364"/>
<text text-anchor="middle" x="341" y="-343.5" font-family="Myriad Condensed Web" font-size="10.00">TPM</text>
</g>
<!-- TPM&#45;&gt;Informatica -->
<g id="edge36" class="edge"><title>TPM&#45;&gt;Informatica</title>
<path fill="none" stroke="#999999" d="M341.749,-327.8C341.829,-319.37 341.5,-309.098 340,-300 339.559,-297.323 338.96,-294.568 338.268,-291.835"/>
<polygon fill="#999999" stroke="#999999" points="341.623,-290.837 335.47,-282.212 334.901,-292.791 341.623,-290.837"/>
</g>
<!-- All4One -->
<g id="node29" class="node"><title>All4One</title>
<polygon fill="#999999" stroke="#999999" points="440,-364 386,-364 386,-328 440,-328 440,-364"/>
<text text-anchor="middle" x="413" y="-343.5" font-family="Myriad Condensed Web" font-size="10.00">All4One</text>
</g>
<!-- All4One&#45;&gt;Informatica -->
<g id="edge37" class="edge"><title>All4One&#45;&gt;Informatica</title>
<path fill="none" stroke="#999999" d="M394.773,-327.641C382.915,-316.347 367.286,-301.462 354.238,-289.036"/>
<polygon fill="#999999" stroke="#999999" points="356.558,-286.412 346.903,-282.05 351.73,-291.481 356.558,-286.412"/>
</g>
<!-- Wasstraat -->
<g id="node30" class="node"><title>Wasstraat</title>
<polygon fill="none" stroke="skyblue" points="584,-364 530,-364 530,-328 584,-328 584,-364"/>
<text text-anchor="middle" x="557" y="-343.5" font-family="Myriad Condensed Web" font-size="10.00">Wasstraat</text>
</g>
<!-- Wasstraat&#45;&gt;RMS -->
<g id="edge38" class="edge"><title>Wasstraat&#45;&gt;RMS</title>
<path fill="none" stroke="#999999" d="M544.881,-318.822C530.942,-288.716 508.189,-239.569 494.212,-209.378"/>
<polygon fill="#999999" stroke="#999999" points="541.738,-320.365 549.115,-327.969 548.09,-317.424 541.738,-320.365"/>
<polygon fill="#999999" stroke="#999999" points="497.382,-207.894 490.005,-200.29 491.03,-210.835 497.382,-207.894"/>
</g>
</g>
</svg>
