<?xml version="1.0" encoding="UTF-8" standalone="no"?>
<!DOCTYPE svg PUBLIC "-//W3C//DTD SVG 1.1//EN"
 "http://www.w3.org/Graphics/SVG/1.1/DTD/svg11.dtd">
<!-- Generated by graphviz version 2.32.0 (20130801.1934)
 -->
<!-- Title: G Pages: 1 -->
<svg width="638pt" height="155pt"
 viewBox="0.00 0.00 638.00 155.00" xmlns="http://www.w3.org/2000/svg" xmlns:xlink="http://www.w3.org/1999/xlink">
<g id="graph0" class="graph" transform="scale(1 1) rotate(0) translate(4 151)">
<title>G</title>
<polygon fill="white" stroke="white" points="-4,5 -4,-151 635,-151 635,5 -4,5"/>
<g id="clust1" class="cluster"><title>cluster_0</title>
<polygon fill="lightgrey" stroke="lightgrey" points="277,-46 277,-121 353,-121 353,-46 277,-46"/>
<text text-anchor="middle" x="315" y="-105.8" font-family="Myriad Condensed Web" font-size="14.00">XM2</text>
</g>
<!-- 9. Database
SUESZ102 -->
<g id="node1" class="node"><title>9. Database
SUESZ102</title>
<polygon fill="white" stroke="white" points="344.25,-90 285.75,-90 285.75,-54 344.25,-54 344.25,-90"/>
<text text-anchor="middle" x="315" y="-75" font-family="Myriad Condensed Web" font-size="10.00">9. Database</text>
<text text-anchor="middle" x="315" y="-64" font-family="Myriad Condensed Web" font-size="10.00">SUESZ102</text>
</g>
<!-- RMS -->
<g id="node3" class="node"><title>RMS</title>
<polygon fill="#999999" stroke="#999999" points="54,-17.5 0,-17.5 0,-0.5 54,-0.5 54,-17.5"/>
<text text-anchor="middle" x="27" y="-7.1" font-family="Myriad Condensed Web" font-size="8.00">RMS</text>
</g>
<!-- 9. Database
SUESZ102&#45;&gt;RMS -->
<g id="edge8" class="edge"><title>9. Database
SUESZ102&#45;&gt;RMS</title>
<path fill="none" stroke="#ff0000" d="M285.392,-65.9755C238.516,-57.023 144.944,-37.6037 61.5756,-19.6333"/>
<polygon fill="#ff0000" stroke="#ff0000" points="62.2379,-16.1957 51.7245,-17.5063 60.7605,-23.0381 62.2379,-16.1957"/>
</g>
<!-- PIF -->
<g id="node7" class="node"><title>PIF</title>
<polygon fill="#999999" stroke="#999999" points="126,-17.5 72,-17.5 72,-0.5 126,-0.5 126,-17.5"/>
<text text-anchor="middle" x="99" y="-7.1" font-family="Myriad Condensed Web" font-size="8.00">PIF</text>
</g>
<!-- 9. Database
SUESZ102&#45;&gt;PIF -->
<g id="edge11" class="edge"><title>9. Database
SUESZ102&#45;&gt;PIF</title>
<path fill="none" stroke="#ff0000" d="M285.728,-64.0025C245.219,-53.3345 172.728,-32.933 130.896,-20.4883"/>
<polygon fill="#ff0000" stroke="#ff0000" points="131.793,-17.1033 121.209,-17.5822 129.782,-23.8081 131.793,-17.1033"/>
</g>
<!-- Digip -->
<g id="node9" class="node"><title>Digip</title>
<polygon fill="#999999" stroke="#999999" points="198,-17.5 144,-17.5 144,-0.5 198,-0.5 198,-17.5"/>
<text text-anchor="middle" x="171" y="-7.1" font-family="Myriad Condensed Web" font-size="8.00">Digip</text>
</g>
<!-- 9. Database
SUESZ102&#45;&gt;Digip -->
<g id="edge9" class="edge"><title>9. Database
SUESZ102&#45;&gt;Digip</title>
<path fill="none" stroke="#ff0000" d="M285.512,-58.5085C259.942,-47.677 223.228,-32.1245 198.317,-21.5716"/>
<polygon fill="#ff0000" stroke="#ff0000" points="199.647,-18.3341 189.074,-17.6562 196.916,-24.7796 199.647,-18.3341"/>
</g>
<!-- Qlikview -->
<g id="node10" class="node"><title>Qlikview</title>
<polygon fill="#999999" stroke="#999999" points="270,-17.5 216,-17.5 216,-0.5 270,-0.5 270,-17.5"/>
<text text-anchor="middle" x="243" y="-7.1" font-family="Myriad Condensed Web" font-size="8.00">Qlikview</text>
</g>
<!-- 9. Database
SUESZ102&#45;&gt;Qlikview -->
<g id="edge10" class="edge"><title>9. Database
SUESZ102&#45;&gt;Qlikview</title>
<path fill="none" stroke="#ff0000" d="M294.56,-53.683C283.647,-44.4369 270.371,-33.1893 260.024,-24.4229"/>
<polygon fill="#ff0000" stroke="#ff0000" points="262.029,-21.5349 252.137,-17.7412 257.505,-26.8758 262.029,-21.5349"/>
</g>
<!-- ACL -->
<g id="node11" class="node"><title>ACL</title>
<polygon fill="#999999" stroke="#999999" points="342,-17.5 288,-17.5 288,-0.5 342,-0.5 342,-17.5"/>
<text text-anchor="middle" x="315" y="-7.1" font-family="Myriad Condensed Web" font-size="8.00">ACL</text>
</g>
<!-- 9. Database
SUESZ102&#45;&gt;ACL -->
<g id="edge12" class="edge"><title>9. Database
SUESZ102&#45;&gt;ACL</title>
<path fill="none" stroke="#ff0000" d="M315,-53.683C315,-45.6389 315,-36.0799 315,-27.9578"/>
<polygon fill="#ff0000" stroke="#ff0000" points="318.5,-27.7411 315,-17.7412 311.5,-27.7412 318.5,-27.7411"/>
</g>
<!-- iProcess -->
<g id="node12" class="node"><title>iProcess</title>
<polygon fill="#999999" stroke="#999999" points="414,-17.5 360,-17.5 360,-0.5 414,-0.5 414,-17.5"/>
<text text-anchor="middle" x="387" y="-7.1" font-family="Myriad Condensed Web" font-size="8.00">iProcess</text>
</g>
<!-- 9. Database
SUESZ102&#45;&gt;iProcess -->
<g id="edge13" class="edge"><title>9. Database
SUESZ102&#45;&gt;iProcess</title>
<path fill="none" stroke="#ff0000" d="M335.44,-53.683C346.353,-44.4369 359.629,-33.1893 369.976,-24.4229"/>
<polygon fill="#ff0000" stroke="#ff0000" points="372.495,-26.8758 377.863,-17.7412 367.971,-21.5349 372.495,-26.8758"/>
</g>
<!-- Informatica -->
<g id="node13" class="node"><title>Informatica</title>
<polygon fill="#999999" stroke="#999999" points="486,-17.5 432,-17.5 432,-0.5 486,-0.5 486,-17.5"/>
<text text-anchor="middle" x="459" y="-7.1" font-family="Myriad Condensed Web" font-size="8.00">Informatica</text>
</g>
<!-- 9. Database
SUESZ102&#45;&gt;Informatica -->
<g id="edge14" class="edge"><title>9. Database
SUESZ102&#45;&gt;Informatica</title>
<path fill="none" stroke="#ff0000" d="M344.488,-58.5085C370.058,-47.677 406.772,-32.1245 431.683,-21.5716"/>
<polygon fill="#ff0000" stroke="#ff0000" points="433.084,-24.7796 440.926,-17.6562 430.353,-18.3341 433.084,-24.7796"/>
</g>
<!-- BPS DWH -->
<g id="node14" class="node"><title>BPS DWH</title>
<polygon fill="#999999" stroke="#999999" points="558,-17.5 504,-17.5 504,-0.5 558,-0.5 558,-17.5"/>
<text text-anchor="middle" x="531" y="-7.1" font-family="Myriad Condensed Web" font-size="8.00">BPS DWH</text>
</g>
<!-- 9. Database
SUESZ102&#45;&gt;BPS DWH -->
<g id="edge15" class="edge"><title>9. Database
SUESZ102&#45;&gt;BPS DWH</title>
<path fill="none" stroke="#ff0000" d="M344.581,-62.6461C383.541,-51.6435 452.041,-32.2986 494.273,-20.372"/>
<polygon fill="#ff0000" stroke="#ff0000" points="495.48,-23.6681 504.152,-17.582 493.578,-16.9315 495.48,-23.6681"/>
</g>
<!-- SMTP RWE -->
<g id="node15" class="node"><title>SMTP RWE</title>
<polygon fill="#999999" stroke="#999999" points="630,-17.5 576,-17.5 576,-0.5 630,-0.5 630,-17.5"/>
<text text-anchor="middle" x="603" y="-7.1" font-family="Myriad Condensed Web" font-size="8.00">SMTP RWE</text>
</g>
<!-- 9. Database
SUESZ102&#45;&gt;SMTP RWE -->
<g id="edge16" class="edge"><title>9. Database
SUESZ102&#45;&gt;SMTP RWE</title>
<path fill="none" stroke="#ff0000" d="M344.508,-64.9073C389.843,-55.5223 479.612,-36.8417 565.92,-18.2141"/>
<polygon fill="#ff0000" stroke="#ff0000" points="566.846,-21.5949 575.88,-16.0612 565.367,-14.7529 566.846,-21.5949"/>
</g>
<!-- Tibco BW -->
<g id="node2" class="node"><title>Tibco BW</title>
<polygon fill="#999999" stroke="#999999" points="198,-146.5 144,-146.5 144,-129.5 198,-129.5 198,-146.5"/>
<text text-anchor="middle" x="171" y="-136.1" font-family="Myriad Condensed Web" font-size="8.00">Tibco BW</text>
</g>
<!-- Tibco BW&#45;&gt;9. Database
SUESZ102 -->
<g id="edge1" class="edge"><title>Tibco BW&#45;&gt;9. Database
SUESZ102</title>
<path fill="none" stroke="#00ff00" d="M188.084,-129.407C209.704,-119.798 247.587,-102.961 276.353,-90.1763"/>
<polygon fill="#00ff00" stroke="#00ff00" points="278.006,-93.272 285.723,-86.0122 275.163,-86.8753 278.006,-93.272"/>
</g>
<!-- RMS&#45;&gt;9. Database
SUESZ102 -->
<g id="edge2" class="edge"><title>RMS&#45;&gt;9. Database
SUESZ102</title>
<path fill="none" stroke="#00ff00" d="M54.2848,-14.1925C60.2465,-15.4316 66.368,-16.782 72,-18 143.853,-33.5391 227.37,-50.9826 275.537,-61.473"/>
<polygon fill="#00ff00" stroke="#00ff00" points="275.033,-64.9455 285.55,-63.6663 276.531,-58.1076 275.033,-64.9455"/>
</g>
<!-- SAP CRM -->
<g id="node4" class="node"><title>SAP CRM</title>
<polygon fill="#999999" stroke="#999999" points="270,-146.5 216,-146.5 216,-129.5 270,-129.5 270,-146.5"/>
<text text-anchor="middle" x="243" y="-136.1" font-family="Myriad Condensed Web" font-size="8.00">SAP CRM</text>
</g>
<!-- SAP CRM&#45;&gt;9. Database
SUESZ102 -->
<g id="edge3" class="edge"><title>SAP CRM&#45;&gt;9. Database
SUESZ102</title>
<path fill="none" stroke="#00ff00" d="M251.542,-129.407C260.488,-121.455 275.003,-108.553 287.895,-97.0935"/>
<polygon fill="#00ff00" stroke="#00ff00" points="290.499,-99.4617 295.648,-90.2021 285.848,-94.2298 290.499,-99.4617"/>
</g>
<!-- SAP ISU -->
<g id="node5" class="node"><title>SAP ISU</title>
<polygon fill="#999999" stroke="#999999" points="342,-146.5 288,-146.5 288,-129.5 342,-129.5 342,-146.5"/>
<text text-anchor="middle" x="315" y="-136.1" font-family="Myriad Condensed Web" font-size="8.00">SAP ISU</text>
</g>
<!-- SAP ISU&#45;&gt;9. Database
SUESZ102 -->
<g id="edge4" class="edge"><title>SAP ISU&#45;&gt;9. Database
SUESZ102</title>
<path fill="none" stroke="#00ff00" d="M315,-129.152C315,-121.892 315,-110.667 315,-100.156"/>
<polygon fill="#00ff00" stroke="#00ff00" points="318.5,-100.056 315,-90.0563 311.5,-100.056 318.5,-100.056"/>
</g>
<!-- Thinconnect -->
<g id="node6" class="node"><title>Thinconnect</title>
<polygon fill="#999999" stroke="#999999" points="414,-146.5 360,-146.5 360,-129.5 414,-129.5 414,-146.5"/>
<text text-anchor="middle" x="387" y="-136.1" font-family="Myriad Condensed Web" font-size="8.00">Thinconnect</text>
</g>
<!-- Thinconnect&#45;&gt;9. Database
SUESZ102 -->
<g id="edge5" class="edge"><title>Thinconnect&#45;&gt;9. Database
SUESZ102</title>
<path fill="none" stroke="#00ff00" d="M378.458,-129.407C369.512,-121.455 354.997,-108.553 342.105,-97.0935"/>
<polygon fill="#00ff00" stroke="#00ff00" points="344.152,-94.2298 334.352,-90.2021 339.501,-99.4617 344.152,-94.2298"/>
</g>
<!-- PIF&#45;&gt;9. Database
SUESZ102 -->
<g id="edge6" class="edge"><title>PIF&#45;&gt;9. Database
SUESZ102</title>
<path fill="none" stroke="#00ff00" d="M126.029,-16.4083C163.841,-26.3183 232.362,-45.5508 275.754,-58.3363"/>
<polygon fill="#00ff00" stroke="#00ff00" points="274.828,-61.7123 285.411,-61.1993 276.818,-55.001 274.828,-61.7123"/>
</g>
<!-- EDSN Gateway -->
<g id="node8" class="node"><title>EDSN Gateway</title>
<polygon fill="#999999" stroke="#999999" points="491.25,-146.5 432.75,-146.5 432.75,-129.5 491.25,-129.5 491.25,-146.5"/>
<text text-anchor="middle" x="462" y="-136.1" font-family="Myriad Condensed Web" font-size="8.00">EDSN Gateway</text>
</g>
<!-- EDSN Gateway&#45;&gt;9. Database
SUESZ102 -->
<g id="edge7" class="edge"><title>EDSN Gateway&#45;&gt;9. Database
SUESZ102</title>
<path fill="none" stroke="#00ff00" d="M444.56,-129.407C422.257,-119.697 382.998,-102.605 353.524,-89.7724"/>
<polygon fill="#00ff00" stroke="#00ff00" points="354.898,-86.5534 344.332,-85.7706 352.104,-92.9715 354.898,-86.5534"/>
</g>
</g>
</svg>
