<?xml version="1.0" encoding="UTF-8" standalone="no"?>
<!DOCTYPE svg PUBLIC "-//W3C//DTD SVG 1.1//EN"
 "http://www.w3.org/Graphics/SVG/1.1/DTD/svg11.dtd">
<!-- Generated by graphviz version 2.32.0 (20130801.1934)
 -->
<!-- Title: G Pages: 1 -->
<svg width="1080pt" height="289pt"
 viewBox="0.00 0.00 1080.00 289.45" xmlns="http://www.w3.org/2000/svg" xmlns:xlink="http://www.w3.org/1999/xlink">
<g id="graph0" class="graph" transform="scale(0.778098 0.778098) rotate(0) translate(4 368)">
<title>G</title>
<polygon fill="white" stroke="white" points="-4,5 -4,-368 1385,-368 1385,5 -4,5"/>
<!-- Source -->
<g id="node1" class="node"><title>Source</title>
<text text-anchor="middle" x="37" y="-343.5" font-family="Myriad Condensed Web" font-size="10.00">Source</text>
</g>
<!-- ETL -->
<g id="node2" class="node"><title>ETL</title>
<text text-anchor="middle" x="37" y="-261.5" font-family="Myriad Condensed Web" font-size="10.00">ETL</text>
</g>
<!-- Source&#45;&gt;ETL -->
<g id="edge1" class="edge"><title>Source&#45;&gt;ETL</title>
<path fill="none" stroke="black" d="M37,-327.641C37,-317.297 37,-303.941 37,-292.221"/>
<polygon fill="black" stroke="black" points="40.5001,-292.05 37,-282.05 33.5001,-292.05 40.5001,-292.05"/>
</g>
<!-- Datawarehouse -->
<g id="node3" class="node"><title>Datawarehouse</title>
<text text-anchor="middle" x="37" y="-179.5" font-family="Myriad Condensed Web" font-size="10.00">Datawarehouse</text>
</g>
<!-- ETL&#45;&gt;Datawarehouse -->
<g id="edge2" class="edge"><title>ETL&#45;&gt;Datawarehouse</title>
<path fill="none" stroke="black" d="M37,-245.641C37,-235.297 37,-221.941 37,-210.221"/>
<polygon fill="black" stroke="black" points="40.5001,-210.05 37,-200.05 33.5001,-210.05 40.5001,-210.05"/>
</g>
<!-- Application -->
<g id="node4" class="node"><title>Application</title>
<text text-anchor="middle" x="37" y="-97.5" font-family="Myriad Condensed Web" font-size="10.00">Application</text>
</g>
<!-- Datawarehouse&#45;&gt;Application -->
<g id="edge3" class="edge"><title>Datawarehouse&#45;&gt;Application</title>
<path fill="none" stroke="black" d="M37,-163.641C37,-153.297 37,-139.941 37,-128.221"/>
<polygon fill="black" stroke="black" points="40.5001,-128.05 37,-118.05 33.5001,-128.05 40.5001,-128.05"/>
</g>
<!-- Presentation -->
<g id="node5" class="node"><title>Presentation</title>
<text text-anchor="middle" x="37" y="-15.5" font-family="Myriad Condensed Web" font-size="10.00">Presentation</text>
</g>
<!-- Application&#45;&gt;Presentation -->
<g id="edge4" class="edge"><title>Application&#45;&gt;Presentation</title>
<path fill="none" stroke="black" d="M37,-81.6412C37,-71.2971 37,-57.941 37,-46.2206"/>
<polygon fill="black" stroke="black" points="40.5001,-46.0501 37,-36.0501 33.5001,-46.0501 40.5001,-46.0501"/>
</g>
<!-- Aprimo -->
<g id="node6" class="node"><title>Aprimo</title>
<g id="a_node6"><a xlink:href="http://localhost:8080/?focusapp=1" xlink:title="Aprimo">
<polygon fill="none" stroke="skyblue" points="469,-118 415,-118 415,-82 469,-82 469,-118"/>
<text text-anchor="middle" x="442" y="-97.5" font-family="Myriad Condensed Web" font-size="10.00">Aprimo</text>
</a>
</g>
</g>
<!-- RMS -->
<g id="node7" class="node"><title>RMS</title>
<g id="a_node7"><a xlink:href="http://localhost:8080/?focusapp=2" xlink:title="RMS">
<polygon fill="none" stroke="skyblue" points="452,-200 398,-200 398,-164 452,-164 452,-200"/>
<text text-anchor="middle" x="425" y="-179.5" font-family="Myriad Condensed Web" font-size="10.00">RMS</text>
</a>
</g>
</g>
<!-- RMS&#45;&gt;Aprimo -->
<g id="edge56" class="edge"><title>RMS&#45;&gt;Aprimo</title>
<path fill="none" stroke="#999999" d="M423.84,-153.593C424.082,-147.733 424.711,-141.617 426,-136 426.623,-133.285 427.467,-130.527 428.444,-127.81"/>
<polygon fill="#999999" stroke="#999999" points="420.339,-153.677 423.761,-163.704 427.339,-153.731 420.339,-153.677"/>
<polygon fill="#999999" stroke="#999999" points="431.786,-128.889 432.406,-118.312 425.326,-126.194 431.786,-128.889"/>
</g>
<!-- PIF -->
<g id="node19" class="node"><title>PIF</title>
<g id="a_node19"><a xlink:href="http://localhost:8080/?focusapp=14" xlink:title="PIF">
<polygon fill="none" stroke="skyblue" points="739,-118 685,-118 685,-82 739,-82 739,-118"/>
<text text-anchor="middle" x="712" y="-97.5" font-family="Myriad Condensed Web" font-size="10.00">PIF</text>
</a>
</g>
</g>
<!-- RMS&#45;&gt;PIF -->
<g id="edge23" class="edge"><title>RMS&#45;&gt;PIF</title>
<path fill="none" stroke="#ffff33" d="M461.975,-165.928C486.165,-156.453 518.618,-144.465 548,-136 590.788,-123.673 640.988,-113.583 674.47,-107.456"/>
<polygon fill="#ffff33" stroke="#ffff33" points="460.488,-162.752 452.476,-169.685 463.063,-169.261 460.488,-162.752"/>
<polygon fill="#ffff33" stroke="#ffff33" points="675.502,-110.827 684.723,-105.608 674.261,-103.938 675.502,-110.827"/>
<text text-anchor="middle" x="556.5" y="-139.1" font-family="Myriad Condensed Web" font-size="8.00">&lt;5Gb</text>
</g>
<!-- BPS DWH -->
<g id="node25" class="node"><title>BPS DWH</title>
<g id="a_node25"><a xlink:href="http://localhost:8080/?focusapp=20" xlink:title="BPS DWH">
<polygon fill="none" stroke="skyblue" points="1001,-200 947,-200 947,-164 1001,-164 1001,-200"/>
<text text-anchor="middle" x="974" y="-179.5" font-family="Myriad Condensed Web" font-size="10.00">BPS DWH</text>
</a>
</g>
</g>
<!-- RMS&#45;&gt;BPS DWH -->
<g id="edge55" class="edge"><title>RMS&#45;&gt;BPS DWH</title>
<path fill="none" stroke="#999999" d="M461.467,-200.786C480.218,-209.404 503.755,-218.657 526,-223 609.97,-239.394 828.979,-247.339 911,-223 922.902,-219.468 934.658,-212.899 944.733,-206.039"/>
<polygon fill="#999999" stroke="#999999" points="462.939,-197.61 452.402,-196.499 459.946,-203.938 462.939,-197.61"/>
<polygon fill="#999999" stroke="#999999" points="947.045,-208.687 953.115,-200.003 942.955,-203.006 947.045,-208.687"/>
</g>
<!-- mail.essent.nl -->
<g id="node32" class="node"><title>mail.essent.nl</title>
<polygon fill="#999999" stroke="#999999" points="283.25,-36 216.75,-36 216.75,-0 283.25,-0 283.25,-36"/>
<text text-anchor="middle" x="250" y="-15.5" font-family="Myriad Condensed Web" font-size="10.00">mail.essent.nl</text>
</g>
<!-- RMS&#45;&gt;mail.essent.nl -->
<g id="edge22" class="edge"><title>RMS&#45;&gt;mail.essent.nl</title>
<path fill="none" stroke="#4daf4a" d="M406.603,-163.969C375.356,-135.044 311.829,-76.2362 276.033,-43.0994"/>
<polygon fill="#4daf4a" stroke="#4daf4a" points="278.129,-40.2704 268.413,-36.0455 273.374,-45.4073 278.129,-40.2704"/>
<text text-anchor="middle" x="363.5" y="-98.1" font-family="Myriad Condensed Web" font-size="8.00">&lt;1Gb</text>
</g>
<!-- XM2 -->
<g id="node8" class="node"><title>XM2</title>
<g id="a_node8"><a xlink:href="http://localhost:8080/?focusapp=3" xlink:title="XM2">
<polygon fill="none" stroke="skyblue" points="547,-282 493,-282 493,-246 547,-246 547,-282"/>
<text text-anchor="middle" x="520" y="-261.5" font-family="Myriad Condensed Web" font-size="10.00">XM2</text>
</a>
</g>
</g>
<!-- XM2&#45;&gt;RMS -->
<g id="edge47" class="edge"><title>XM2&#45;&gt;RMS</title>
<path fill="none" stroke="#999999" d="M491.466,-238.971C479.366,-228.782 465.301,-216.938 453.233,-206.776"/>
<polygon fill="#999999" stroke="#999999" points="489.483,-241.877 499.386,-245.641 493.992,-236.523 489.483,-241.877"/>
<polygon fill="#999999" stroke="#999999" points="455.151,-203.814 445.247,-200.05 450.642,-209.169 455.151,-203.814"/>
</g>
<!-- Digip -->
<g id="node9" class="node"><title>Digip</title>
<g id="a_node9"><a xlink:href="http://localhost:8080/?focusapp=4" xlink:title="Digip">
<polygon fill="none" stroke="skyblue" points="831,-118 777,-118 777,-82 831,-82 831,-118"/>
<text text-anchor="middle" x="804" y="-97.5" font-family="Myriad Condensed Web" font-size="10.00">Digip</text>
</a>
</g>
</g>
<!-- XM2&#45;&gt;Digip -->
<g id="edge37" class="edge"><title>XM2&#45;&gt;Digip</title>
<path fill="none" stroke="#ffff33" d="M547.013,-262.565C580.296,-260.851 637.413,-253.969 678,-228 721.279,-200.309 710.04,-170.625 748,-136 754.075,-130.459 761.141,-125.275 768.167,-120.684"/>
<polygon fill="#ffff33" stroke="#ffff33" points="770.328,-123.461 776.966,-115.203 766.627,-117.52 770.328,-123.461"/>
<text text-anchor="middle" x="733.5" y="-180.1" font-family="Myriad Condensed Web" font-size="8.00">&lt;5Gb</text>
</g>
<!-- Qlikview -->
<g id="node11" class="node"><title>Qlikview</title>
<g id="a_node11"><a xlink:href="http://localhost:8080/?focusapp=6" xlink:title="Qlikview">
<polygon fill="none" stroke="skyblue" points="831,-36 777,-36 777,-0 831,-0 831,-36"/>
<text text-anchor="middle" x="804" y="-15.5" font-family="Myriad Condensed Web" font-size="10.00">Qlikview</text>
</a>
</g>
</g>
<!-- XM2&#45;&gt;Qlikview -->
<g id="edge38" class="edge"><title>XM2&#45;&gt;Qlikview</title>
<path fill="none" stroke="#999999" d="M517.846,-245.919C516.08,-225.065 515.922,-189.439 531,-164 541.675,-145.989 663.047,-78.5701 715,-54 731.78,-46.0643 750.878,-38.3848 767.068,-32.2512"/>
<polygon fill="#999999" stroke="#999999" points="768.584,-35.4213 776.727,-28.6434 766.134,-28.8638 768.584,-35.4213"/>
</g>
<!-- iProcess -->
<g id="node12" class="node"><title>iProcess</title>
<polygon fill="#999999" stroke="#999999" points="509,-364 455,-364 455,-328 509,-328 509,-364"/>
<text text-anchor="middle" x="482" y="-343.5" font-family="Myriad Condensed Web" font-size="10.00">iProcess</text>
</g>
<!-- XM2&#45;&gt;iProcess -->
<g id="edge41" class="edge"><title>XM2&#45;&gt;iProcess</title>
<path fill="none" stroke="#999999" d="M497.145,-282.122C491.906,-287.255 486.999,-293.32 484,-300 481.598,-305.351 480.432,-311.429 479.983,-317.348"/>
<polygon fill="#999999" stroke="#999999" points="476.48,-317.594 479.84,-327.642 483.479,-317.692 476.48,-317.594"/>
</g>
<!-- Informatica -->
<g id="node15" class="node"><title>Informatica</title>
<g id="a_node15"><a xlink:href="http://localhost:8080/?focusapp=10" xlink:title="Informatica">
<polygon fill="none" stroke="skyblue" points="1148,-282 1090,-282 1090,-246 1148,-246 1148,-282"/>
<text text-anchor="middle" x="1119" y="-261.5" font-family="Myriad Condensed Web" font-size="10.00">Informatica</text>
</a>
</g>
</g>
<!-- XM2&#45;&gt;Informatica -->
<g id="edge42" class="edge"><title>XM2&#45;&gt;Informatica</title>
<path fill="none" stroke="#999999" d="M547.204,-275.021C573.699,-285.119 615.369,-299.331 653,-305 807.26,-328.237 850.282,-331.583 1004,-305 1030.38,-300.438 1058.72,-290.397 1080.67,-281.394"/>
<polygon fill="#999999" stroke="#999999" points="1082.11,-284.588 1089.97,-277.486 1079.39,-278.135 1082.11,-284.588"/>
</g>
<!-- XM2&#45;&gt;PIF -->
<g id="edge39" class="edge"><title>XM2&#45;&gt;PIF</title>
<path fill="none" stroke="#ffff33" d="M522.372,-245.718C525.975,-224.662 534.476,-188.832 553,-164 581.723,-125.495 637.647,-110.496 674.918,-104.672"/>
<polygon fill="#ffff33" stroke="#ffff33" points="675.487,-108.127 684.898,-103.261 674.506,-101.196 675.487,-108.127"/>
<text text-anchor="middle" x="561.5" y="-180.1" font-family="Myriad Condensed Web" font-size="8.00">&lt;5Gb</text>
</g>
<!-- ACL -->
<g id="node21" class="node"><title>ACL</title>
<polygon fill="#999999" stroke="#999999" points="141,-36 87,-36 87,-0 141,-0 141,-36"/>
<text text-anchor="middle" x="114" y="-15.5" font-family="Myriad Condensed Web" font-size="10.00">ACL</text>
</g>
<!-- XM2&#45;&gt;ACL -->
<g id="edge40" class="edge"><title>XM2&#45;&gt;ACL</title>
<path fill="none" stroke="#999999" d="M492.919,-261.617C425.064,-257.908 249.256,-246.734 194,-228 171.333,-220.315 161.61,-219.688 148,-200 115.732,-153.321 111.864,-84.3695 112.527,-46.4636"/>
<polygon fill="#999999" stroke="#999999" points="116.033,-46.2968 112.833,-36.197 109.036,-46.0884 116.033,-46.2968"/>
</g>
<!-- XM2&#45;&gt;BPS DWH -->
<g id="edge46" class="edge"><title>XM2&#45;&gt;BPS DWH</title>
<path fill="none" stroke="#999999" d="M557.106,-256.146C594.665,-249.179 654.402,-238.014 706,-228 728.247,-223.682 733.604,-221.462 756,-218 828.466,-206.799 848.241,-215.082 920,-200 925.531,-198.838 931.301,-197.34 936.925,-195.716"/>
<polygon fill="#999999" stroke="#999999" points="556.32,-252.732 547.126,-257.996 557.596,-259.615 556.32,-252.732"/>
<polygon fill="#999999" stroke="#999999" points="938.261,-198.967 946.805,-192.702 936.218,-192.272 938.261,-198.967"/>
</g>
<!-- XM2&#45;&gt;mail.essent.nl -->
<g id="edge44" class="edge"><title>XM2&#45;&gt;mail.essent.nl</title>
<path fill="none" stroke="#999999" d="M492.933,-262.393C418.27,-260.093 212.208,-249.312 171,-200 137.371,-159.757 148.245,-129.251 171,-82 178.953,-65.4848 193.576,-51.9556 208.098,-41.7263"/>
<polygon fill="#999999" stroke="#999999" points="210.193,-44.5363 216.586,-36.0871 206.32,-38.7058 210.193,-44.5363"/>
</g>
<!-- Digip&#45;&gt;Qlikview -->
<g id="edge11" class="edge"><title>Digip&#45;&gt;Qlikview</title>
<path fill="none" stroke="#999999" d="M804,-81.6412C804,-71.2971 804,-57.941 804,-46.2206"/>
<polygon fill="#999999" stroke="#999999" points="807.5,-46.0501 804,-36.0501 800.5,-46.0501 807.5,-46.0501"/>
</g>
<!-- Digip&#45;&gt;BPS DWH -->
<g id="edge60" class="edge"><title>Digip&#45;&gt;BPS DWH</title>
<path fill="none" stroke="#ffff33" d="M815.279,-126.928C819.553,-134.085 825.097,-141.196 832,-146 864.767,-168.803 881.354,-153.993 920,-164 925.53,-165.432 931.333,-167.09 937,-168.798"/>
<polygon fill="#ffff33" stroke="#ffff33" points="818.321,-125.194 810.536,-118.007 812.14,-128.48 818.321,-125.194"/>
<polygon fill="#ffff33" stroke="#ffff33" points="936.376,-172.269 946.964,-171.887 938.449,-165.583 936.376,-172.269"/>
<text text-anchor="middle" x="840.5" y="-139.1" font-family="Myriad Condensed Web" font-size="8.00">&lt;5Gb</text>
</g>
<!-- Sharepoint -->
<g id="node10" class="node"><title>Sharepoint</title>
<polygon fill="#999999" stroke="#999999" points="973.25,-36 916.75,-36 916.75,-0 973.25,-0 973.25,-36"/>
<text text-anchor="middle" x="945" y="-15.5" font-family="Myriad Condensed Web" font-size="10.00">Sharepoint</text>
</g>
<!-- Sharepoint&#45;&gt;PIF -->
<g id="edge51" class="edge"><title>Sharepoint&#45;&gt;PIF</title>
<path fill="none" stroke="#ffff33" d="M906.85,-32.0988C863.148,-47.1036 792.031,-71.5215 748.872,-86.34"/>
<polygon fill="#ffff33" stroke="#ffff33" points="908.216,-35.3304 916.537,-28.7727 905.942,-28.7098 908.216,-35.3304"/>
<polygon fill="#ffff33" stroke="#ffff33" points="747.505,-83.1086 739.184,-89.6664 749.779,-89.7293 747.505,-83.1086"/>
<text text-anchor="middle" x="851.5" y="-57.1" font-family="Myriad Condensed Web" font-size="8.00">&lt;5Gb</text>
</g>
<!-- SAP ISU -->
<g id="node13" class="node"><title>SAP ISU</title>
<polygon fill="#999999" stroke="#999999" points="959,-364 905,-364 905,-328 959,-328 959,-364"/>
<text text-anchor="middle" x="932" y="-343.5" font-family="Myriad Condensed Web" font-size="10.00">SAP ISU</text>
</g>
<!-- SAP ISU&#45;&gt;XM2 -->
<g id="edge27" class="edge"><title>SAP ISU&#45;&gt;XM2</title>
<path fill="none" stroke="#e41a1c" d="M904.796,-331.204C901.87,-330.008 898.902,-328.909 896,-328 775.494,-290.248 625.761,-273.775 557.302,-267.832"/>
<polygon fill="#e41a1c" stroke="#e41a1c" points="557.287,-264.318 547.029,-266.967 556.7,-271.294 557.287,-264.318"/>
<text text-anchor="middle" x="836.5" y="-303.1" font-family="Myriad Condensed Web" font-size="8.00">&gt;25Gb</text>
</g>
<!-- SAP ISU&#45;&gt;Informatica -->
<g id="edge28" class="edge"><title>SAP ISU&#45;&gt;Informatica</title>
<path fill="none" stroke="#ff7f00" d="M959.065,-332.056C962.071,-330.667 965.095,-329.291 968,-328 1005.94,-311.136 1049.79,-292.99 1080.43,-280.524"/>
<polygon fill="#ff7f00" stroke="#ff7f00" points="1081.93,-283.689 1089.88,-276.685 1079.3,-277.203 1081.93,-283.689"/>
<text text-anchor="middle" x="1040.5" y="-303.1" font-family="Myriad Condensed Web" font-size="8.00">&lt;25Gb</text>
</g>
<!-- SAP CRM -->
<g id="node14" class="node"><title>SAP CRM</title>
<polygon fill="#999999" stroke="#999999" points="887,-364 833,-364 833,-328 887,-328 887,-364"/>
<text text-anchor="middle" x="860" y="-343.5" font-family="Myriad Condensed Web" font-size="10.00">SAP CRM</text>
</g>
<!-- SAP CRM&#45;&gt;XM2 -->
<g id="edge25" class="edge"><title>SAP CRM&#45;&gt;XM2</title>
<path fill="none" stroke="#e41a1c" d="M832.928,-331.223C829.645,-329.955 826.289,-328.835 823,-328 764.933,-313.25 606.712,-338.475 554,-310 545.826,-305.585 539.041,-298.261 533.738,-290.792"/>
<polygon fill="#e41a1c" stroke="#e41a1c" points="536.532,-288.665 528.199,-282.122 530.634,-292.433 536.532,-288.665"/>
<text text-anchor="middle" x="564.5" y="-303.1" font-family="Myriad Condensed Web" font-size="8.00">&gt;25Gb</text>
</g>
<!-- SAP CRM&#45;&gt;Informatica -->
<g id="edge26" class="edge"><title>SAP CRM&#45;&gt;Informatica</title>
<path fill="none" stroke="#ff7f00" d="M887.334,-331.578C890.235,-330.309 893.161,-329.091 896,-328 958.887,-303.839 1034.92,-284.33 1079.99,-273.725"/>
<polygon fill="#ff7f00" stroke="#ff7f00" points="1080.99,-277.086 1089.94,-271.411 1079.41,-270.268 1080.99,-277.086"/>
<text text-anchor="middle" x="985.5" y="-303.1" font-family="Myriad Condensed Web" font-size="8.00">&lt;25Gb</text>
</g>
<!-- Automount -->
<g id="node38" class="node"><title>Automount</title>
<polygon fill="#999999" stroke="#999999" points="1221.25,-36 1162.75,-36 1162.75,-0 1221.25,-0 1221.25,-36"/>
<text text-anchor="middle" x="1192" y="-15.5" font-family="Myriad Condensed Web" font-size="10.00">Automount</text>
</g>
<!-- Informatica&#45;&gt;Automount -->
<g id="edge13" class="edge"><title>Informatica&#45;&gt;Automount</title>
<path fill="none" stroke="#ffff33" d="M1129.15,-245.86C1136.12,-233.471 1145.14,-216.143 1151,-200 1170.19,-147.169 1182.26,-82.2883 1188.01,-46.3149"/>
<polygon fill="#ffff33" stroke="#ffff33" points="1191.52,-46.5425 1189.59,-36.1241 1184.6,-45.4693 1191.52,-46.5425"/>
<text text-anchor="middle" x="1178.5" y="-139.1" font-family="Myriad Condensed Web" font-size="8.00">&lt;5Gb</text>
</g>
<!-- Vaultage -->
<g id="node16" class="node"><title>Vaultage</title>
<g id="a_node16"><a xlink:href="http://localhost:8080/?focusapp=11" xlink:title="Vaultage">
<polygon fill="none" stroke="skyblue" points="911,-200 857,-200 857,-164 911,-164 911,-200"/>
<text text-anchor="middle" x="884" y="-179.5" font-family="Myriad Condensed Web" font-size="10.00">Vaultage</text>
</a>
</g>
</g>
<!-- Vaultage&#45;&gt;Qlikview -->
<g id="edge35" class="edge"><title>Vaultage&#45;&gt;Qlikview</title>
<path fill="none" stroke="#999999" d="M880.588,-163.98C878.59,-155.409 875.721,-144.961 872,-136 858.241,-102.861 836.696,-67.6206 821.553,-44.5805"/>
<polygon fill="#999999" stroke="#999999" points="824.35,-42.4666 815.894,-36.0837 818.524,-46.3469 824.35,-42.4666"/>
</g>
<!-- Vaultage&#45;&gt;Informatica -->
<g id="edge49" class="edge"><title>Vaultage&#45;&gt;Informatica</title>
<path fill="none" stroke="#e41a1c" d="M920.684,-195.488C964.003,-210.235 1035.75,-234.658 1080.03,-249.735"/>
<polygon fill="#e41a1c" stroke="#e41a1c" points="921.7,-192.137 911.105,-192.227 919.444,-198.763 921.7,-192.137"/>
<polygon fill="#e41a1c" stroke="#e41a1c" points="1079.12,-253.12 1089.71,-253.03 1081.37,-246.494 1079.12,-253.12"/>
<text text-anchor="middle" x="1026.5" y="-221.1" font-family="Myriad Condensed Web" font-size="8.00">&gt;25Gb</text>
</g>
<!-- Vaultage&#45;&gt;BPS DWH -->
<g id="edge36" class="edge"><title>Vaultage&#45;&gt;BPS DWH</title>
<path fill="none" stroke="#999999" d="M911.07,-182C919.669,-182 928.267,-182 936.866,-182"/>
<polygon fill="#999999" stroke="#999999" points="936.96,-185.5 946.96,-182 936.96,-178.5 936.96,-185.5"/>
</g>
<!-- Avaya -->
<g id="node17" class="node"><title>Avaya</title>
<polygon fill="#999999" stroke="#999999" points="1031,-364 977,-364 977,-328 1031,-328 1031,-364"/>
<text text-anchor="middle" x="1004" y="-343.5" font-family="Myriad Condensed Web" font-size="10.00">Avaya</text>
</g>
<!-- Totalview -->
<g id="node18" class="node"><title>Totalview</title>
<g id="a_node18"><a xlink:href="http://localhost:8080/?focusapp=13" xlink:title="Totalview">
<polygon fill="none" stroke="skyblue" points="1164,-118 1110,-118 1110,-82 1164,-82 1164,-118"/>
<text text-anchor="middle" x="1137" y="-97.5" font-family="Myriad Condensed Web" font-size="10.00">Totalview</text>
</a>
</g>
</g>
<!-- Avaya&#45;&gt;Totalview -->
<g id="edge6" class="edge"><title>Avaya&#45;&gt;Totalview</title>
<path fill="none" stroke="#4daf4a" d="M1013.35,-327.842C1036.29,-285.754 1095.47,-177.188 1122.79,-127.068"/>
<polygon fill="#4daf4a" stroke="#4daf4a" points="1125.95,-128.594 1127.66,-118.139 1119.8,-125.244 1125.95,-128.594"/>
<text text-anchor="middle" x="1081.5" y="-221.1" font-family="Myriad Condensed Web" font-size="8.00">&lt;1Gb</text>
</g>
<!-- Avaya&#45;&gt;PIF -->
<g id="edge7" class="edge"><title>Avaya&#45;&gt;PIF</title>
<path fill="none" stroke="#ffff33" d="M978.259,-327.764C930.494,-295.182 826.004,-221.067 749,-146 742.787,-139.944 736.584,-132.893 731.081,-126.195"/>
<polygon fill="#ffff33" stroke="#ffff33" points="733.512,-123.631 724.537,-118.001 728.042,-127.999 733.512,-123.631"/>
<text text-anchor="middle" x="850.5" y="-221.1" font-family="Myriad Condensed Web" font-size="8.00">&lt;5Gb</text>
</g>
<!-- Avaya&#45;&gt;BPS DWH -->
<g id="edge8" class="edge"><title>Avaya&#45;&gt;BPS DWH</title>
<path fill="none" stroke="#ffff33" d="M1000.85,-327.969C995.661,-299.968 985.289,-243.963 979.065,-210.352"/>
<polygon fill="#ffff33" stroke="#ffff33" points="982.464,-209.486 977.202,-200.29 975.581,-210.76 982.464,-209.486"/>
<text text-anchor="middle" x="1000.5" y="-262.1" font-family="Myriad Condensed Web" font-size="8.00">&lt;5Gb</text>
</g>
<!-- Totalview&#45;&gt;Informatica -->
<g id="edge33" class="edge"><title>Totalview&#45;&gt;Informatica</title>
<path fill="none" stroke="#4daf4a" d="M1135.08,-118.29C1131.95,-146.464 1125.72,-202.485 1122,-235.958"/>
<polygon fill="#4daf4a" stroke="#4daf4a" points="1118.52,-235.644 1120.89,-245.969 1125.48,-236.417 1118.52,-235.644"/>
<text text-anchor="middle" x="1138.5" y="-180.1" font-family="Myriad Condensed Web" font-size="8.00">&lt;1Gb</text>
</g>
<!-- Totalview&#45;&gt;PIF -->
<g id="edge31" class="edge"><title>Totalview&#45;&gt;PIF</title>
<path fill="none" stroke="#4daf4a" d="M1109.92,-114.91C1106.97,-116.118 1103.96,-117.185 1101,-118 974.888,-152.683 938.207,-134.719 807.5,-139.5 799.949,-139.776 797.851,-141.245 790.5,-139.5 775.927,-136.04 760.987,-129.425 748.105,-122.584"/>
<polygon fill="#4daf4a" stroke="#4daf4a" points="749.565,-119.392 739.122,-117.604 746.171,-125.514 749.565,-119.392"/>
<text text-anchor="middle" x="799" y="-139.1" font-family="Myriad Condensed Web" font-size="8.00">&lt;1Gb</text>
</g>
<!-- Totalview&#45;&gt;BPS DWH -->
<g id="edge32" class="edge"><title>Totalview&#45;&gt;BPS DWH</title>
<path fill="none" stroke="#999999" d="M1109.9,-114.301C1082.73,-127.634 1040.73,-148.25 1010.61,-163.032"/>
<polygon fill="#999999" stroke="#999999" points="1008.72,-160.062 1001.28,-167.61 1011.8,-166.346 1008.72,-160.062"/>
</g>
<!-- PIF&#45;&gt;Digip -->
<g id="edge57" class="edge"><title>PIF&#45;&gt;Digip</title>
<path fill="none" stroke="#ffff33" d="M749.218,-100C754.977,-100 760.926,-100 766.687,-100"/>
<polygon fill="#ffff33" stroke="#ffff33" points="749.105,-96.5001 739.105,-100 749.105,-103.5 749.105,-96.5001"/>
<polygon fill="#ffff33" stroke="#ffff33" points="766.77,-103.5 776.77,-100 766.77,-96.5001 766.77,-103.5"/>
<text text-anchor="middle" x="758" y="-105.6" font-family="Myriad Condensed Web" font-size="8.00">&lt;5Gb</text>
</g>
<!-- PIF&#45;&gt;Qlikview -->
<g id="edge18" class="edge"><title>PIF&#45;&gt;Qlikview</title>
<path fill="none" stroke="#ffff33" d="M713.006,-81.9523C714.353,-72.7513 717.363,-61.7294 724,-54 735.099,-41.074 751.87,-32.7519 767.195,-27.4824"/>
<polygon fill="#ffff33" stroke="#ffff33" points="768.471,-30.7513 776.983,-24.4428 766.394,-24.0663 768.471,-30.7513"/>
<text text-anchor="middle" x="732.5" y="-57.1" font-family="Myriad Condensed Web" font-size="8.00">&lt;5Gb</text>
</g>
<!-- PIF&#45;&gt;iProcess -->
<g id="edge19" class="edge"><title>PIF&#45;&gt;iProcess</title>
<path fill="none" stroke="#4daf4a" d="M698.624,-118.235C672.616,-151.344 612.786,-225.558 556,-282 542.095,-295.821 525.568,-310.074 511.663,-321.52"/>
<polygon fill="#4daf4a" stroke="#4daf4a" points="509.361,-318.881 503.819,-327.911 513.782,-324.308 509.361,-318.881"/>
<text text-anchor="middle" x="623.5" y="-221.1" font-family="Myriad Condensed Web" font-size="8.00">&lt;1Gb</text>
</g>
<!-- Audit Base -->
<g id="node23" class="node"><title>Audit Base</title>
<polygon fill="#999999" stroke="#999999" points="943.25,-118 888.75,-118 888.75,-82 943.25,-82 943.25,-118"/>
<text text-anchor="middle" x="916" y="-97.5" font-family="Myriad Condensed Web" font-size="10.00">Audit Base</text>
</g>
<!-- PIF&#45;&gt;Audit Base -->
<g id="edge17" class="edge"><title>PIF&#45;&gt;Audit Base</title>
<path fill="none" stroke="#4daf4a" d="M748.357,-121.296C780.947,-137.527 829.758,-154.718 870.5,-139.5 878.811,-136.396 886.609,-131.013 893.322,-125.202"/>
<polygon fill="#4daf4a" stroke="#4daf4a" points="749.692,-118.045 739.204,-116.549 746.47,-124.26 749.692,-118.045"/>
<polygon fill="#4daf4a" stroke="#4daf4a" points="895.781,-127.694 900.67,-118.295 890.987,-122.594 895.781,-127.694"/>
<text text-anchor="middle" x="862" y="-139.1" font-family="Myriad Condensed Web" font-size="8.00">&lt;1Gb</text>
</g>
<!-- PIF&#45;&gt;BPS DWH -->
<g id="edge21" class="edge"><title>PIF&#45;&gt;BPS DWH</title>
<path fill="none" stroke="#ffff33" d="M728.831,-118.406C739.4,-128.21 753.862,-139.716 769,-146 831.422,-171.912 853.924,-149.791 920,-164 925.525,-165.188 931.293,-166.7 936.915,-168.331"/>
<polygon fill="#ffff33" stroke="#ffff33" points="936.207,-171.774 946.794,-171.349 938.253,-165.08 936.207,-171.774"/>
<text text-anchor="middle" x="777.5" y="-139.1" font-family="Myriad Condensed Web" font-size="8.00">&lt;5Gb</text>
</g>
<!-- TIJSS -->
<g id="node27" class="node"><title>TIJSS</title>
<polygon fill="#999999" stroke="#999999" points="723,-364 669,-364 669,-328 723,-328 723,-364"/>
<text text-anchor="middle" x="696" y="-343.5" font-family="Myriad Condensed Web" font-size="10.00">TIJSS</text>
</g>
<!-- PIF&#45;&gt;TIJSS -->
<g id="edge20" class="edge"><title>PIF&#45;&gt;TIJSS</title>
<path fill="none" stroke="#4daf4a" d="M709.077,-118.057C707.029,-130.7 704.414,-148.375 703,-164 698.067,-218.495 696.606,-282.528 696.176,-317.959"/>
<polygon fill="#4daf4a" stroke="#4daf4a" points="692.676,-317.958 696.073,-327.994 699.676,-318.03 692.676,-317.958"/>
<text text-anchor="middle" x="708.5" y="-221.1" font-family="Myriad Condensed Web" font-size="8.00">&lt;1Gb</text>
</g>
<!-- SAS -->
<g id="node20" class="node"><title>SAS</title>
<g id="a_node20"><a xlink:href="http://localhost:8080/?focusapp=15" xlink:title="SAS">
<polygon fill="none" stroke="skyblue" points="579,-118 525,-118 525,-82 579,-82 579,-118"/>
<text text-anchor="middle" x="552" y="-97.5" font-family="Myriad Condensed Web" font-size="10.00">SAS</text>
</a>
</g>
</g>
<!-- SAS&#45;&gt;RMS -->
<g id="edge52" class="edge"><title>SAS&#45;&gt;RMS</title>
<path fill="none" stroke="#999999" d="M516.113,-123.606C498.84,-134.486 478.184,-147.499 460.909,-158.38"/>
<polygon fill="#999999" stroke="#999999" points="518.205,-126.425 524.8,-118.134 514.474,-120.502 518.205,-126.425"/>
<polygon fill="#999999" stroke="#999999" points="458.84,-155.547 452.245,-163.838 462.571,-161.469 458.84,-155.547"/>
</g>
<!-- EDSN Gateway -->
<g id="node22" class="node"><title>EDSN Gateway</title>
<polygon fill="#999999" stroke="#999999" points="1124,-364 1054,-364 1054,-328 1124,-328 1124,-364"/>
<text text-anchor="middle" x="1089" y="-343.5" font-family="Myriad Condensed Web" font-size="10.00">EDSN Gateway</text>
</g>
<!-- EDSN Gateway&#45;&gt;Informatica -->
<g id="edge12" class="edge"><title>EDSN Gateway&#45;&gt;Informatica</title>
<path fill="none" stroke="#4daf4a" d="M1095.51,-327.641C1099.47,-317.086 1104.6,-303.395 1109.06,-291.505"/>
<polygon fill="#4daf4a" stroke="#4daf4a" points="1112.37,-292.642 1112.61,-282.05 1105.82,-290.184 1112.37,-292.642"/>
<text text-anchor="middle" x="1114.5" y="-303.1" font-family="Myriad Condensed Web" font-size="8.00">&lt;1Gb</text>
</g>
<!-- Thinconnect -->
<g id="node24" class="node"><title>Thinconnect</title>
<polygon fill="#999999" stroke="#999999" points="651,-364 589,-364 589,-328 651,-328 651,-364"/>
<text text-anchor="middle" x="620" y="-343.5" font-family="Myriad Condensed Web" font-size="10.00">Thinconnect</text>
</g>
<!-- Thinconnect&#45;&gt;XM2 -->
<g id="edge30" class="edge"><title>Thinconnect&#45;&gt;XM2</title>
<path fill="none" stroke="#999999" d="M588.729,-339.239C570.47,-334.352 548.285,-325.552 534,-310 529.423,-305.017 526.343,-298.559 524.269,-292.098"/>
<polygon fill="#999999" stroke="#999999" points="527.602,-290.998 521.769,-282.154 520.813,-292.705 527.602,-290.998"/>
</g>
<!-- Thinconnect&#45;&gt;PIF -->
<g id="edge29" class="edge"><title>Thinconnect&#45;&gt;PIF</title>
<path fill="none" stroke="#4daf4a" d="M626.469,-327.842C642.273,-285.929 682.933,-178.09 701.934,-127.696"/>
<polygon fill="#4daf4a" stroke="#4daf4a" points="705.285,-128.73 705.538,-118.139 698.735,-126.261 705.285,-128.73"/>
<text text-anchor="middle" x="676.5" y="-221.1" font-family="Myriad Condensed Web" font-size="8.00">&lt;1Gb</text>
</g>
<!-- Thinconnect&#45;&gt;BPS DWH -->
<g id="edge50" class="edge"><title>Thinconnect&#45;&gt;BPS DWH</title>
<path fill="none" stroke="#999999" d="M642.569,-320.448C671.494,-290.723 724.672,-241.704 781,-218 838.417,-193.837 859.166,-213.405 920,-200 925.519,-198.784 931.283,-197.256 936.904,-195.619"/>
<polygon fill="#999999" stroke="#999999" points="639.799,-318.28 635.41,-327.923 644.855,-323.121 639.799,-318.28"/>
<polygon fill="#999999" stroke="#999999" points="938.244,-198.869 946.782,-192.596 936.195,-192.175 938.244,-198.869"/>
</g>
<!-- BPS DWH&#45;&gt;Sharepoint -->
<g id="edge9" class="edge"><title>BPS DWH&#45;&gt;Sharepoint</title>
<path fill="none" stroke="#999999" d="M980.959,-163.638C989.979,-138.281 1002.69,-90.2004 986,-54 984.285,-50.2818 981.959,-46.8122 979.281,-43.6149"/>
<polygon fill="#999999" stroke="#999999" points="981.547,-40.9273 972.045,-36.2416 976.551,-45.8303 981.547,-40.9273"/>
</g>
<!-- BPS DWH&#45;&gt;Qlikview -->
<g id="edge10" class="edge"><title>BPS DWH&#45;&gt;Qlikview</title>
<path fill="none" stroke="#999999" d="M974.702,-163.915C974.673,-142.4 971.471,-105.424 952,-82 924.094,-48.4287 875.08,-32.3657 841.144,-24.9466"/>
<polygon fill="#999999" stroke="#999999" points="841.634,-21.4746 831.137,-22.9119 840.239,-28.3342 841.634,-21.4746"/>
</g>
<!-- RWE AD servers -->
<g id="node26" class="node"><title>RWE AD servers</title>
<polygon fill="#999999" stroke="#999999" points="814.25,-364 741.75,-364 741.75,-328 814.25,-328 814.25,-364"/>
<text text-anchor="middle" x="778" y="-343.5" font-family="Myriad Condensed Web" font-size="10.00">RWE AD servers</text>
</g>
<!-- RWE AD servers&#45;&gt;PIF -->
<g id="edge24" class="edge"><title>RWE AD servers&#45;&gt;PIF</title>
<path fill="none" stroke="#4daf4a" d="M778.78,-327.953C779.548,-294.211 777.378,-217.551 746,-164 739.613,-153.1 730.848,-156.617 724,-146 720.575,-140.689 718.123,-134.427 716.368,-128.289"/>
<polygon fill="#4daf4a" stroke="#4daf4a" points="719.71,-127.209 714.027,-118.267 712.894,-128.801 719.71,-127.209"/>
<text text-anchor="middle" x="778.5" y="-221.1" font-family="Myriad Condensed Web" font-size="8.00">&lt;1Gb</text>
</g>
<!-- TPM -->
<g id="node28" class="node"><title>TPM</title>
<polygon fill="#999999" stroke="#999999" points="1196,-364 1142,-364 1142,-328 1196,-328 1196,-364"/>
<text text-anchor="middle" x="1169" y="-343.5" font-family="Myriad Condensed Web" font-size="10.00">TPM</text>
</g>
<!-- TPM&#45;&gt;Informatica -->
<g id="edge34" class="edge"><title>TPM&#45;&gt;Informatica</title>
<path fill="none" stroke="#4daf4a" d="M1158.15,-327.641C1151.42,-316.875 1142.65,-302.846 1135.12,-290.794"/>
<polygon fill="#4daf4a" stroke="#4daf4a" points="1137.92,-288.675 1129.66,-282.05 1131.99,-292.385 1137.92,-288.675"/>
<text text-anchor="middle" x="1155.5" y="-303.1" font-family="Myriad Condensed Web" font-size="8.00">&lt;1Gb</text>
</g>
<!-- All4One -->
<g id="node29" class="node"><title>All4One</title>
<polygon fill="#999999" stroke="#999999" points="1268,-364 1214,-364 1214,-328 1268,-328 1268,-364"/>
<text text-anchor="middle" x="1241" y="-343.5" font-family="Myriad Condensed Web" font-size="10.00">All4One</text>
</g>
<!-- All4One&#45;&gt;Informatica -->
<g id="edge5" class="edge"><title>All4One&#45;&gt;Informatica</title>
<path fill="none" stroke="#4daf4a" d="M1214.83,-327.838C1196.98,-316.133 1173.14,-300.504 1153.71,-287.761"/>
<polygon fill="#4daf4a" stroke="#4daf4a" points="1155.41,-284.69 1145.13,-282.134 1151.57,-290.544 1155.41,-284.69"/>
<text text-anchor="middle" x="1196.5" y="-303.1" font-family="Myriad Condensed Web" font-size="8.00">&lt;1Gb</text>
</g>
<!-- Wasstraat -->
<g id="node30" class="node"><title>Wasstraat</title>
<g id="a_node30"><a xlink:href="http://localhost:8080/?focusapp=25" xlink:title="Wasstraat">
<polygon fill="none" stroke="skyblue" points="306,-118 252,-118 252,-82 306,-82 306,-118"/>
<text text-anchor="middle" x="279" y="-97.5" font-family="Myriad Condensed Web" font-size="10.00">Wasstraat</text>
</a>
</g>
</g>
<!-- Wasstraat&#45;&gt;RMS -->
<g id="edge48" class="edge"><title>Wasstraat&#45;&gt;RMS</title>
<path fill="none" stroke="#999999" d="M313.513,-123.711C325.237,-131.118 338.528,-139.183 351,-146 363.005,-152.561 376.445,-159.137 388.544,-164.789"/>
<polygon fill="#999999" stroke="#999999" points="315.205,-120.639 304.893,-118.207 311.438,-126.539 315.205,-120.639"/>
<polygon fill="#999999" stroke="#999999" points="387.359,-168.097 397.906,-169.105 390.29,-161.74 387.359,-168.097"/>
</g>
<!-- RMS Portal -->
<g id="node31" class="node"><title>RMS Portal</title>
<g id="a_node31"><a xlink:href="http://localhost:8080/?focusapp=26" xlink:title="RMS Portal">
<polygon fill="none" stroke="skyblue" points="415,-36 359,-36 359,-0 415,-0 415,-36"/>
<text text-anchor="middle" x="387" y="-15.5" font-family="Myriad Condensed Web" font-size="10.00">RMS Portal</text>
</a>
</g>
</g>
<!-- RMS Portal&#45;&gt;RMS -->
<g id="edge54" class="edge"><title>RMS Portal&#45;&gt;RMS</title>
<path fill="none" stroke="#999999" d="M391.447,-46.2417C394.898,-66.2203 400.081,-93.9431 406,-118 408.947,-129.975 412.787,-143.054 416.243,-154.176"/>
<polygon fill="#999999" stroke="#999999" points="394.882,-45.5611 389.76,-36.2864 387.98,-46.7306 394.882,-45.5611"/>
<polygon fill="#999999" stroke="#999999" points="412.919,-155.273 419.272,-163.752 419.593,-153.162 412.919,-155.273"/>
</g>
<!-- SPSS -->
<g id="node33" class="node"><title>SPSS</title>
<g id="a_node33"><a xlink:href="http://localhost:8080/?focusapp=28" xlink:title="SPSS">
<polygon fill="none" stroke="skyblue" points="1294,-36 1240,-36 1240,-0 1294,-0 1294,-36"/>
<text text-anchor="middle" x="1267" y="-15.5" font-family="Myriad Condensed Web" font-size="10.00">SPSS</text>
</a>
</g>
</g>
<!-- AIA ITP B2B -->
<g id="node34" class="node"><title>AIA ITP B2B</title>
<g id="a_node34"><a xlink:href="http://localhost:8080/?focusapp=29" xlink:title="AIA ITP B2B">
<polygon fill="none" stroke="skyblue" points="1380,-118 1322,-118 1322,-82 1380,-82 1380,-118"/>
<text text-anchor="middle" x="1351" y="-97.5" font-family="Myriad Condensed Web" font-size="10.00">AIA ITP B2B</text>
</a>
</g>
</g>
<!-- RWE ftp -->
<g id="node35" class="node"><title>RWE ftp</title>
<polygon fill="#999999" stroke="#999999" points="524,-36 470,-36 470,-0 524,-0 524,-36"/>
<text text-anchor="middle" x="497" y="-15.5" font-family="Myriad Condensed Web" font-size="10.00">RWE ftp</text>
</g>
<!-- RWE ftp&#45;&gt;RMS -->
<g id="edge53" class="edge"><title>RWE ftp&#45;&gt;RMS</title>
<path fill="none" stroke="#999999" d="M495.464,-46.5224C493.446,-67.0622 488.781,-95.3652 478,-118 471.323,-132.018 460.769,-145.484 450.831,-156.341"/>
<polygon fill="#999999" stroke="#999999" points="498.975,-46.5338 496.315,-36.2782 491.999,-45.9538 498.975,-46.5338"/>
<polygon fill="#999999" stroke="#999999" points="448.13,-154.102 443.767,-163.757 453.199,-158.93 448.13,-154.102"/>
</g>
<!-- ODS -->
<g id="node36" class="node"><title>ODS</title>
<g id="a_node36"><a xlink:href="http://localhost:8080/?focusapp=32" xlink:title="ODS">
<polygon fill="none" stroke="skyblue" points="234,-200 180,-200 180,-164 234,-164 234,-200"/>
<text text-anchor="middle" x="207" y="-179.5" font-family="Myriad Condensed Web" font-size="10.00">ODS</text>
</a>
</g>
</g>
<!-- TEP -->
<g id="node37" class="node"><title>TEP</title>
<polygon fill="#999999" stroke="#999999" points="1092,-118 1038,-118 1038,-82 1092,-82 1092,-118"/>
<text text-anchor="middle" x="1065" y="-97.5" font-family="Myriad Condensed Web" font-size="10.00">TEP</text>
</g>
<!-- TEP&#45;&gt;BPS DWH -->
<g id="edge43" class="edge"><title>TEP&#45;&gt;BPS DWH</title>
<path fill="none" stroke="#999999" d="M1049.3,-118.3C1041.16,-126.943 1030.87,-137.37 1021,-146 1016.49,-149.946 1011.56,-153.931 1006.65,-157.726"/>
<polygon fill="#999999" stroke="#999999" points="1004.35,-155.077 998.477,-163.896 1008.57,-160.664 1004.35,-155.077"/>
</g>
<!-- IP Storage -->
<g id="node39" class="node"><title>IP Storage</title>
<polygon fill="#999999" stroke="#999999" points="1366,-36 1312,-36 1312,-0 1366,-0 1366,-36"/>
<text text-anchor="middle" x="1339" y="-15.5" font-family="Myriad Condensed Web" font-size="10.00">IP Storage</text>
</g>
<!-- Tibco BW B2B -->
<g id="node40" class="node"><title>Tibco BW B2B</title>
<polygon fill="#999999" stroke="#999999" points="1286,-118 1220,-118 1220,-82 1286,-82 1286,-118"/>
<text text-anchor="middle" x="1253" y="-97.5" font-family="Myriad Condensed Web" font-size="10.00">Tibco BW B2B</text>
</g>
<!-- Tibco BW B2B&#45;&gt;AIA ITP B2B -->
<g id="edge45" class="edge"><title>Tibco BW B2B&#45;&gt;AIA ITP B2B</title>
<path fill="none" stroke="#999999" d="M1296.33,-100C1301.53,-100 1306.73,-100 1311.93,-100"/>
<polygon fill="#999999" stroke="#999999" points="1296.3,-96.5001 1286.3,-100 1296.3,-103.5 1296.3,-96.5001"/>
<polygon fill="#999999" stroke="#999999" points="1311.94,-103.5 1321.94,-100 1311.94,-96.5001 1311.94,-103.5"/>
</g>
<!-- Tibco BW -->
<g id="node41" class="node"><title>Tibco BW</title>
<polygon fill="#999999" stroke="#999999" points="234,-118 180,-118 180,-82 234,-82 234,-118"/>
<text text-anchor="middle" x="207" y="-97.5" font-family="Myriad Condensed Web" font-size="10.00">Tibco BW</text>
</g>
<!-- Tibco BW&#45;&gt;RMS -->
<g id="edge59" class="edge"><title>Tibco BW&#45;&gt;RMS</title>
<path fill="none" stroke="#999999" d="M243.847,-118.108C268.518,-127.641 276.222,-128.579 298,-136 328.493,-146.39 362.932,-158.625 388.247,-167.712"/>
<polygon fill="#999999" stroke="#999999" points="244.948,-114.779 234.362,-114.353 242.371,-121.288 244.948,-114.779"/>
<polygon fill="#999999" stroke="#999999" points="387.221,-171.062 397.815,-171.153 389.59,-164.475 387.221,-171.062"/>
</g>
<!-- Tibco BW&#45;&gt;XM2 -->
<g id="edge14" class="edge"><title>Tibco BW&#45;&gt;XM2</title>
<path fill="none" stroke="#999999" d="M222.179,-118.118C242.456,-140.013 280.444,-177.754 320,-200 372.653,-229.611 441.078,-247.305 482.706,-256.089"/>
<polygon fill="#999999" stroke="#999999" points="482.188,-259.555 492.687,-258.132 483.592,-252.698 482.188,-259.555"/>
</g>
<!-- Tibco BW&#45;&gt;Informatica -->
<g id="edge16" class="edge"><title>Tibco BW&#45;&gt;Informatica</title>
<path fill="none" stroke="#ffff33" d="M234.153,-117.755C279.029,-145.379 364.498,-197.685 372,-200 437.725,-220.281 612.439,-212.472 681,-218 724.199,-221.483 734.834,-224.122 778,-228 882.33,-237.372 908.975,-233.696 1013,-246 1035.22,-248.629 1059.92,-252.531 1079.88,-255.934"/>
<polygon fill="#ffff33" stroke="#ffff33" points="1079.4,-259.403 1089.85,-257.659 1080.59,-252.505 1079.4,-259.403"/>
<text text-anchor="middle" x="380.5" y="-180.1" font-family="Myriad Condensed Web" font-size="8.00">&lt;5Gb</text>
</g>
<!-- Tibco BW&#45;&gt;PIF -->
<g id="edge15" class="edge"><title>Tibco BW&#45;&gt;PIF</title>
<path fill="none" stroke="#ff7f00" d="M234.113,-114.78C237.057,-116.013 240.054,-117.121 243,-118 243,-118 621,-118 621,-118 638.608,-115.165 658.011,-111.414 674.361,-108.071"/>
<polygon fill="#ff7f00" stroke="#ff7f00" points="675.533,-111.402 684.615,-105.946 674.113,-104.548 675.533,-111.402"/>
<text text-anchor="middle" x="438" y="-139.1" font-family="Myriad Condensed Web" font-size="8.00">&lt;25Gb</text>
</g>
<!-- Tibco BW&#45;&gt;ODS -->
<g id="edge58" class="edge"><title>Tibco BW&#45;&gt;ODS</title>
<path fill="none" stroke="#999999" d="M207,-128.17C207,-136.316 207,-145.256 207,-153.428"/>
<polygon fill="#999999" stroke="#999999" points="210.5,-128.05 207,-118.05 203.5,-128.05 210.5,-128.05"/>
<polygon fill="#999999" stroke="#999999" points="203.5,-153.641 207,-163.641 210.5,-153.641 203.5,-153.641"/>
</g>
</g>
</svg>
