<?xml version="1.0" encoding="UTF-8" standalone="no"?>
<!DOCTYPE svg PUBLIC "-//W3C//DTD SVG 1.1//EN"
 "http://www.w3.org/Graphics/SVG/1.1/DTD/svg11.dtd">
<!-- Generated by graphviz version 2.32.0 (20130801.1934)
 -->
<!-- Title: G Pages: 1 -->
<svg width="104pt" height="137pt"
 viewBox="0.00 0.00 104.00 137.00" xmlns="http://www.w3.org/2000/svg" xmlns:xlink="http://www.w3.org/1999/xlink">
<g id="graph0" class="graph" transform="scale(1 1) rotate(0) translate(4 133)">
<title>G</title>
<polygon fill="white" stroke="white" points="-4,5 -4,-133 101,-133 101,5 -4,5"/>
<g id="clust1" class="cluster"><title>cluster_0</title>
<polygon fill="lightgrey" stroke="lightgrey" points="8,-46 8,-121 88,-121 88,-46 8,-46"/>
<text text-anchor="middle" x="48" y="-105.8" font-family="Myriad Condensed Web" font-size="14.00">ODS</text>
</g>
<!-- 47. Database
SUESZ091 -->
<g id="node1" class="node"><title>47. Database
SUESZ091</title>
<polygon fill="white" stroke="white" points="79.25,-90 16.75,-90 16.75,-54 79.25,-54 79.25,-90"/>
<text text-anchor="middle" x="48" y="-75" font-family="Myriad Condensed Web" font-size="10.00">47. Database</text>
<text text-anchor="middle" x="48" y="-64" font-family="Myriad Condensed Web" font-size="10.00">SUESZ091</text>
</g>
<!-- Tibco BW -->
<g id="node2" class="node"><title>Tibco BW</title>
<polygon fill="#999999" stroke="#999999" points="75,-17.5 21,-17.5 21,-0.5 75,-0.5 75,-17.5"/>
<text text-anchor="middle" x="48" y="-7.1" font-family="Myriad Condensed Web" font-size="8.00">Tibco BW</text>
</g>
<!-- 47. Database
SUESZ091&#45;&gt;Tibco BW -->
<g id="edge3" class="edge"><title>47. Database
SUESZ091&#45;&gt;Tibco BW</title>
<path fill="none" stroke="#ff0000" d="M29.5347,-53.683C27.1098,-45.2691 27.156,-35.1977 29.6733,-26.8469"/>
<polygon fill="#ff0000" stroke="#ff0000" points="32.8678,-28.2786 33.9695,-17.7412 26.537,-25.2916 32.8678,-28.2786"/>
</g>
<!-- 47. Database
SUESZ091&#45;&gt;Tibco BW -->
<g id="edge4" class="edge"><title>47. Database
SUESZ091&#45;&gt;Tibco BW</title>
<path fill="none" stroke="#ff0000" d="M66.4653,-53.683C68.8902,-45.2691 68.844,-35.1977 66.3267,-26.8469"/>
<polygon fill="#ff0000" stroke="#ff0000" points="69.463,-25.2916 62.0305,-17.7412 63.1322,-28.2786 69.463,-25.2916"/>
</g>
<!-- Tibco BW&#45;&gt;47. Database
SUESZ091 -->
<g id="edge1" class="edge"><title>Tibco BW&#45;&gt;47. Database
SUESZ091</title>
<path fill="none" stroke="#00ff00" d="M43.3232,-17.7412C41.7811,-24.2748 41.0993,-34.0401 41.2778,-43.4313"/>
<polygon fill="#00ff00" stroke="#00ff00" points="37.7978,-43.8916 41.8449,-53.683 44.7871,-43.5049 37.7978,-43.8916"/>
</g>
<!-- Tibco BW&#45;&gt;47. Database
SUESZ091 -->
<g id="edge2" class="edge"><title>Tibco BW&#45;&gt;47. Database
SUESZ091</title>
<path fill="none" stroke="#00ff00" d="M52.6768,-17.7412C54.2189,-24.2748 54.9007,-34.0401 54.7222,-43.4313"/>
<polygon fill="#00ff00" stroke="#00ff00" points="51.2129,-43.5049 54.1551,-53.683 58.2022,-43.8916 51.2129,-43.5049"/>
</g>
</g>
</svg>
