<?xml version="1.0" encoding="UTF-8" standalone="no"?>
<!DOCTYPE svg PUBLIC "-//W3C//DTD SVG 1.1//EN"
 "http://www.w3.org/Graphics/SVG/1.1/DTD/svg11.dtd">
<!-- Generated by graphviz version 2.32.0 (20130801.1934)
 -->
<!-- Title: G Pages: 1 -->
<svg width="1080pt" height="346pt"
 viewBox="0.00 0.00 1080.00 346.34" xmlns="http://www.w3.org/2000/svg" xmlns:xlink="http://www.w3.org/1999/xlink">
<g id="graph0" class="graph" transform="scale(0.931034 0.931034) rotate(0) translate(4 368)">
<title>G</title>
<polygon fill="white" stroke="white" points="-4,5 -4,-368 1157,-368 1157,5 -4,5"/>
<!-- Source -->
<g id="node1" class="node"><title>Source</title>
<text text-anchor="middle" x="37" y="-343.5" font-family="Myriad Condensed Web" font-size="10.00">Source</text>
</g>
<!-- ETL -->
<g id="node2" class="node"><title>ETL</title>
<text text-anchor="middle" x="37" y="-261.5" font-family="Myriad Condensed Web" font-size="10.00">ETL</text>
</g>
<!-- Source&#45;&gt;ETL -->
<g id="edge1" class="edge"><title>Source&#45;&gt;ETL</title>
<path fill="none" stroke="black" d="M37,-327.641C37,-317.297 37,-303.941 37,-292.221"/>
<polygon fill="black" stroke="black" points="40.5001,-292.05 37,-282.05 33.5001,-292.05 40.5001,-292.05"/>
</g>
<!-- Datawarehouse -->
<g id="node3" class="node"><title>Datawarehouse</title>
<text text-anchor="middle" x="37" y="-179.5" font-family="Myriad Condensed Web" font-size="10.00">Datawarehouse</text>
</g>
<!-- ETL&#45;&gt;Datawarehouse -->
<g id="edge2" class="edge"><title>ETL&#45;&gt;Datawarehouse</title>
<path fill="none" stroke="black" d="M37,-245.641C37,-235.297 37,-221.941 37,-210.221"/>
<polygon fill="black" stroke="black" points="40.5001,-210.05 37,-200.05 33.5001,-210.05 40.5001,-210.05"/>
</g>
<!-- Application -->
<g id="node4" class="node"><title>Application</title>
<text text-anchor="middle" x="37" y="-97.5" font-family="Myriad Condensed Web" font-size="10.00">Application</text>
</g>
<!-- Datawarehouse&#45;&gt;Application -->
<g id="edge3" class="edge"><title>Datawarehouse&#45;&gt;Application</title>
<path fill="none" stroke="black" d="M37,-163.641C37,-153.297 37,-139.941 37,-128.221"/>
<polygon fill="black" stroke="black" points="40.5001,-128.05 37,-118.05 33.5001,-128.05 40.5001,-128.05"/>
</g>
<!-- Presentation -->
<g id="node5" class="node"><title>Presentation</title>
<text text-anchor="middle" x="37" y="-15.5" font-family="Myriad Condensed Web" font-size="10.00">Presentation</text>
</g>
<!-- Application&#45;&gt;Presentation -->
<g id="edge4" class="edge"><title>Application&#45;&gt;Presentation</title>
<path fill="none" stroke="black" d="M37,-81.6412C37,-71.2971 37,-57.941 37,-46.2206"/>
<polygon fill="black" stroke="black" points="40.5001,-46.0501 37,-36.0501 33.5001,-46.0501 40.5001,-46.0501"/>
</g>
<!-- Aprimo -->
<g id="node6" class="node"><title>Aprimo</title>
<g id="a_node6"><a xlink:href="http://localhost:8080/?focusapp=1" xlink:title="Aprimo">
<polygon fill="none" stroke="skyblue" points="334,-118 280,-118 280,-82 334,-82 334,-118"/>
<text text-anchor="middle" x="307" y="-97.5" font-family="Myriad Condensed Web" font-size="10.00">Aprimo</text>
</a>
</g>
</g>
<!-- RMS -->
<g id="node7" class="node"><title>RMS</title>
<g id="a_node7"><a xlink:href="http://localhost:8080/?focusapp=2" xlink:title="RMS">
<polygon fill="none" stroke="skyblue" points="406,-200 352,-200 352,-164 406,-164 406,-200"/>
<text text-anchor="middle" x="379" y="-179.5" font-family="Myriad Condensed Web" font-size="10.00">RMS</text>
</a>
</g>
</g>
<!-- RMS&#45;&gt;Aprimo -->
<g id="edge5" class="edge"><title>RMS&#45;&gt;Aprimo</title>
<path fill="none" stroke="#999999" d="M363.377,-163.641C353.402,-152.558 340.316,-138.018 329.262,-125.736"/>
<polygon fill="#999999" stroke="#999999" points="331.636,-123.142 322.345,-118.05 326.433,-127.824 331.636,-123.142"/>
</g>
<!-- SAS -->
<g id="node20" class="node"><title>SAS</title>
<g id="a_node20"><a xlink:href="http://localhost:8080/?focusapp=15" xlink:title="SAS">
<polygon fill="none" stroke="skyblue" points="478,-118 424,-118 424,-82 478,-82 478,-118"/>
<text text-anchor="middle" x="451" y="-97.5" font-family="Myriad Condensed Web" font-size="10.00">SAS</text>
</a>
</g>
</g>
<!-- RMS&#45;&gt;SAS -->
<g id="edge6" class="edge"><title>RMS&#45;&gt;SAS</title>
<path fill="none" stroke="#999999" d="M394.623,-163.641C404.598,-152.558 417.684,-138.018 428.738,-125.736"/>
<polygon fill="#999999" stroke="#999999" points="431.567,-127.824 435.655,-118.05 426.364,-123.142 431.567,-127.824"/>
</g>
<!-- RMS Portal -->
<g id="node31" class="node"><title>RMS Portal</title>
<g id="a_node31"><a xlink:href="http://localhost:8080/?focusapp=26" xlink:title="RMS Portal">
<polygon fill="none" stroke="skyblue" points="194,-36 138,-36 138,-0 194,-0 194,-36"/>
<text text-anchor="middle" x="166" y="-15.5" font-family="Myriad Condensed Web" font-size="10.00">RMS Portal</text>
</a>
</g>
</g>
<!-- RMS&#45;&gt;RMS Portal -->
<g id="edge8" class="edge"><title>RMS&#45;&gt;RMS Portal</title>
<path fill="none" stroke="#999999" d="M351.828,-180.445C309.476,-178.023 228.121,-166.848 185,-118 167.781,-98.4936 164.153,-68.2542 164.139,-46.327"/>
<polygon fill="#999999" stroke="#999999" points="167.638,-46.3947 164.378,-36.3139 160.64,-46.2274 167.638,-46.3947"/>
</g>
<!-- mail.essent.nl -->
<g id="node32" class="node"><title>mail.essent.nl</title>
<polygon fill="#999999" stroke="#999999" points="261.25,-118 194.75,-118 194.75,-82 261.25,-82 261.25,-118"/>
<text text-anchor="middle" x="228" y="-97.5" font-family="Myriad Condensed Web" font-size="10.00">mail.essent.nl</text>
</g>
<!-- RMS&#45;&gt;mail.essent.nl -->
<g id="edge7" class="edge"><title>RMS&#45;&gt;mail.essent.nl</title>
<path fill="none" stroke="#4daf4a" d="M351.655,-166.513C328.62,-154.308 295.32,-136.666 269.078,-122.763"/>
<polygon fill="#4daf4a" stroke="#4daf4a" points="270.594,-119.606 260.119,-118.017 267.317,-125.791 270.594,-119.606"/>
<text text-anchor="middle" x="321.5" y="-139.1" font-family="Myriad Condensed Web" font-size="8.00">&lt;1Gb</text>
</g>
<!-- XM2 -->
<g id="node8" class="node"><title>XM2</title>
<g id="a_node8"><a xlink:href="http://localhost:8080/?focusapp=3" xlink:title="XM2">
<polygon fill="none" stroke="skyblue" points="528,-282 474,-282 474,-246 528,-246 528,-282"/>
<text text-anchor="middle" x="501" y="-261.5" font-family="Myriad Condensed Web" font-size="10.00">XM2</text>
</a>
</g>
</g>
<!-- XM2&#45;&gt;RMS -->
<g id="edge9" class="edge"><title>XM2&#45;&gt;RMS</title>
<path fill="none" stroke="#999999" d="M474.828,-245.838C456.977,-234.133 433.143,-218.504 413.71,-205.761"/>
<polygon fill="#999999" stroke="#999999" points="415.411,-202.69 405.129,-200.134 411.572,-208.544 415.411,-202.69"/>
</g>
<!-- Digip -->
<g id="node9" class="node"><title>Digip</title>
<g id="a_node9"><a xlink:href="http://localhost:8080/?focusapp=4" xlink:title="Digip">
<polygon fill="none" stroke="skyblue" points="588,-118 534,-118 534,-82 588,-82 588,-118"/>
<text text-anchor="middle" x="561" y="-97.5" font-family="Myriad Condensed Web" font-size="10.00">Digip</text>
</a>
</g>
</g>
<!-- XM2&#45;&gt;Digip -->
<g id="edge10" class="edge"><title>XM2&#45;&gt;Digip</title>
<path fill="none" stroke="#ffff33" d="M511.729,-245.963C525.023,-223.869 547.125,-183.686 557,-146 558.466,-140.404 559.42,-134.298 560.034,-128.44"/>
<polygon fill="#ffff33" stroke="#ffff33" points="563.534,-128.565 560.811,-118.327 556.555,-128.029 563.534,-128.565"/>
<text text-anchor="middle" x="560.5" y="-180.1" font-family="Myriad Condensed Web" font-size="8.00">&lt;5Gb</text>
</g>
<!-- Qlikview -->
<g id="node11" class="node"><title>Qlikview</title>
<g id="a_node11"><a xlink:href="http://localhost:8080/?focusapp=6" xlink:title="Qlikview">
<polygon fill="none" stroke="skyblue" points="623,-36 569,-36 569,-0 623,-0 623,-36"/>
<text text-anchor="middle" x="596" y="-15.5" font-family="Myriad Condensed Web" font-size="10.00">Qlikview</text>
</a>
</g>
</g>
<!-- XM2&#45;&gt;Qlikview -->
<g id="edge11" class="edge"><title>XM2&#45;&gt;Qlikview</title>
<path fill="none" stroke="#999999" d="M499.464,-245.849C497.24,-212.249 496.144,-136.305 525,-82 533.389,-66.2129 547.418,-52.4924 560.8,-41.9221"/>
<polygon fill="#999999" stroke="#999999" points="563.107,-44.5667 568.993,-35.7574 558.898,-38.9733 563.107,-44.5667"/>
</g>
<!-- iProcess -->
<g id="node12" class="node"><title>iProcess</title>
<polygon fill="#999999" stroke="#999999" points="863,-364 809,-364 809,-328 863,-328 863,-364"/>
<text text-anchor="middle" x="836" y="-343.5" font-family="Myriad Condensed Web" font-size="10.00">iProcess</text>
</g>
<!-- XM2&#45;&gt;iProcess -->
<g id="edge14" class="edge"><title>XM2&#45;&gt;iProcess</title>
<path fill="none" stroke="#999999" d="M538.278,-271.729C603.471,-283.676 736.799,-308.999 798.934,-328.147"/>
<polygon fill="#999999" stroke="#999999" points="538.513,-268.214 528.047,-269.861 537.256,-275.1 538.513,-268.214"/>
<polygon fill="#999999" stroke="#999999" points="798.163,-331.576 808.755,-331.328 800.321,-324.917 798.163,-331.576"/>
</g>
<!-- Informatica -->
<g id="node15" class="node"><title>Informatica</title>
<g id="a_node15"><a xlink:href="http://localhost:8080/?focusapp=10" xlink:title="Informatica">
<polygon fill="none" stroke="skyblue" points="673,-282 615,-282 615,-246 673,-246 673,-282"/>
<text text-anchor="middle" x="644" y="-261.5" font-family="Myriad Condensed Web" font-size="10.00">Informatica</text>
</a>
</g>
</g>
<!-- XM2&#45;&gt;Informatica -->
<g id="edge15" class="edge"><title>XM2&#45;&gt;Informatica</title>
<path fill="none" stroke="#999999" d="M528.092,-264C553.54,-264 578.988,-264 604.436,-264"/>
<polygon fill="#999999" stroke="#999999" points="604.57,-267.5 614.57,-264 604.57,-260.5 604.57,-267.5"/>
</g>
<!-- PIF -->
<g id="node19" class="node"><title>PIF</title>
<g id="a_node19"><a xlink:href="http://localhost:8080/?focusapp=14" xlink:title="PIF">
<polygon fill="none" stroke="skyblue" points="698,-118 644,-118 644,-82 698,-82 698,-118"/>
<text text-anchor="middle" x="671" y="-97.5" font-family="Myriad Condensed Web" font-size="10.00">PIF</text>
</a>
</g>
</g>
<!-- XM2&#45;&gt;PIF -->
<g id="edge12" class="edge"><title>XM2&#45;&gt;PIF</title>
<path fill="none" stroke="#ffff33" d="M528.076,-247.614C564.356,-227.279 631.018,-190.89 690,-164 709.976,-154.893 723.624,-164.133 736,-146 746.487,-130.635 727.65,-118.926 707.6,-111.309"/>
<polygon fill="#ffff33" stroke="#ffff33" points="708.689,-107.982 698.094,-107.999 706.387,-114.593 708.689,-107.982"/>
<text text-anchor="middle" x="698.5" y="-180.1" font-family="Myriad Condensed Web" font-size="8.00">&lt;5Gb</text>
</g>
<!-- ACL -->
<g id="node21" class="node"><title>ACL</title>
<polygon fill="#999999" stroke="#999999" points="138,-118 84,-118 84,-82 138,-82 138,-118"/>
<text text-anchor="middle" x="111" y="-97.5" font-family="Myriad Condensed Web" font-size="10.00">ACL</text>
</g>
<!-- XM2&#45;&gt;ACL -->
<g id="edge13" class="edge"><title>XM2&#45;&gt;ACL</title>
<path fill="none" stroke="#999999" d="M473.878,-253.28C420.998,-234.133 300.657,-189.599 202,-146 183.807,-137.96 163.971,-128.264 147.474,-119.934"/>
<polygon fill="#999999" stroke="#999999" points="148.686,-116.624 138.185,-115.21 145.513,-122.863 148.686,-116.624"/>
</g>
<!-- Digip&#45;&gt;Qlikview -->
<g id="edge17" class="edge"><title>Digip&#45;&gt;Qlikview</title>
<path fill="none" stroke="#999999" d="M568.594,-81.6412C573.212,-71.086 579.202,-57.3946 584.404,-45.5051"/>
<polygon fill="#999999" stroke="#999999" points="587.739,-46.6146 588.541,-36.0501 581.326,-43.8088 587.739,-46.6146"/>
</g>
<!-- Digip&#45;&gt;PIF -->
<g id="edge16" class="edge"><title>Digip&#45;&gt;PIF</title>
<path fill="none" stroke="#ffff33" d="M598.582,-100C609.931,-100 622.384,-100 633.715,-100"/>
<polygon fill="#ffff33" stroke="#ffff33" points="598.191,-96.5001 588.191,-100 598.191,-103.5 598.191,-96.5001"/>
<polygon fill="#ffff33" stroke="#ffff33" points="633.741,-103.5 643.741,-100 633.741,-96.5001 633.741,-103.5"/>
<text text-anchor="middle" x="616" y="-105.6" font-family="Myriad Condensed Web" font-size="8.00">&lt;5Gb</text>
</g>
<!-- Sharepoint -->
<g id="node10" class="node"><title>Sharepoint</title>
<polygon fill="#999999" stroke="#999999" points="717.25,-36 660.75,-36 660.75,-0 717.25,-0 717.25,-36"/>
<text text-anchor="middle" x="689" y="-15.5" font-family="Myriad Condensed Web" font-size="10.00">Sharepoint</text>
</g>
<!-- Sharepoint&#45;&gt;PIF -->
<g id="edge18" class="edge"><title>Sharepoint&#45;&gt;PIF</title>
<path fill="none" stroke="#ffff33" d="M682.925,-46.0022C681.055,-54.3126 678.996,-63.4629 677.123,-71.7874"/>
<polygon fill="#ffff33" stroke="#ffff33" points="686.383,-46.5745 685.164,-36.0501 679.554,-45.0379 686.383,-46.5745"/>
<polygon fill="#ffff33" stroke="#ffff33" points="673.686,-71.1168 674.906,-81.6412 680.516,-72.6534 673.686,-71.1168"/>
<text text-anchor="middle" x="690.5" y="-57.1" font-family="Myriad Condensed Web" font-size="8.00">&lt;5Gb</text>
</g>
<!-- iProcess&#45;&gt;Informatica -->
<g id="edge19" class="edge"><title>iProcess&#45;&gt;Informatica</title>
<path fill="none" stroke="#ffff33" d="M808.949,-332.023C805.941,-330.64 802.913,-329.275 800,-328 760.351,-310.65 714.339,-292.279 682.612,-279.881"/>
<polygon fill="#ffff33" stroke="#ffff33" points="683.835,-276.601 673.247,-276.233 681.294,-283.124 683.835,-276.601"/>
<text text-anchor="middle" x="766.5" y="-303.1" font-family="Myriad Condensed Web" font-size="8.00">&lt;5Gb</text>
</g>
<!-- iProcess&#45;&gt;PIF -->
<g id="edge20" class="edge"><title>iProcess&#45;&gt;PIF</title>
<path fill="none" stroke="#ff7f00" d="M837.757,-317.707C839.038,-271.643 834.002,-179.266 778,-136 757.838,-120.423 730.466,-111.635 708.454,-106.761"/>
<polygon fill="#ff7f00" stroke="#ff7f00" points="834.254,-317.712 837.35,-327.844 841.248,-317.993 834.254,-317.712"/>
<polygon fill="#ff7f00" stroke="#ff7f00" points="708.945,-103.289 698.448,-104.728 707.551,-110.149 708.945,-103.289"/>
<text text-anchor="middle" x="840.5" y="-221.1" font-family="Myriad Condensed Web" font-size="8.00">&lt;25Gb</text>
</g>
<!-- SAP ISU -->
<g id="node13" class="node"><title>SAP ISU</title>
<polygon fill="#999999" stroke="#999999" points="479,-364 425,-364 425,-328 479,-328 479,-364"/>
<text text-anchor="middle" x="452" y="-343.5" font-family="Myriad Condensed Web" font-size="10.00">SAP ISU</text>
</g>
<!-- SAP ISU&#45;&gt;XM2 -->
<g id="edge21" class="edge"><title>SAP ISU&#45;&gt;XM2</title>
<path fill="none" stroke="#e41a1c" d="M458.862,-327.835C462.587,-319.226 467.542,-308.789 473,-300 475.006,-296.769 477.267,-293.496 479.612,-290.315"/>
<polygon fill="#e41a1c" stroke="#e41a1c" points="482.541,-292.249 485.899,-282.2 477.008,-287.961 482.541,-292.249"/>
<text text-anchor="middle" x="483.5" y="-303.1" font-family="Myriad Condensed Web" font-size="8.00">&gt;25Gb</text>
</g>
<!-- SAP ISU&#45;&gt;Informatica -->
<g id="edge22" class="edge"><title>SAP ISU&#45;&gt;Informatica</title>
<path fill="none" stroke="#ff7f00" d="M479.28,-331.429C482.19,-330.189 485.134,-329.018 488,-328 519.487,-316.81 529.836,-322.061 561,-310 562.271,-309.508 584.624,-297.381 605.81,-285.842"/>
<polygon fill="#ff7f00" stroke="#ff7f00" points="607.648,-288.826 614.754,-280.968 604.298,-282.68 607.648,-288.826"/>
<text text-anchor="middle" x="588.5" y="-303.1" font-family="Myriad Condensed Web" font-size="8.00">&lt;25Gb</text>
</g>
<!-- SAP CRM -->
<g id="node14" class="node"><title>SAP CRM</title>
<polygon fill="#999999" stroke="#999999" points="407,-364 353,-364 353,-328 407,-328 407,-364"/>
<text text-anchor="middle" x="380" y="-343.5" font-family="Myriad Condensed Web" font-size="10.00">SAP CRM</text>
</g>
<!-- SAP CRM&#45;&gt;XM2 -->
<g id="edge23" class="edge"><title>SAP CRM&#45;&gt;XM2</title>
<path fill="none" stroke="#e41a1c" d="M403.038,-327.896C414.837,-319.302 429.523,-308.861 443,-300 449.979,-295.412 457.549,-290.676 464.845,-286.227"/>
<polygon fill="#e41a1c" stroke="#e41a1c" points="467.122,-288.941 473.876,-280.778 463.506,-282.948 467.122,-288.941"/>
<text text-anchor="middle" x="453.5" y="-303.1" font-family="Myriad Condensed Web" font-size="8.00">&gt;25Gb</text>
</g>
<!-- SAP CRM&#45;&gt;Informatica -->
<g id="edge24" class="edge"><title>SAP CRM&#45;&gt;Informatica</title>
<path fill="none" stroke="#ff7f00" d="M407.214,-331.235C410.138,-330.033 413.103,-328.924 416,-328 459.44,-314.144 473.87,-324.793 517,-310 526.026,-306.904 527.207,-303.707 536,-300 558.32,-290.591 584.098,-282.15 604.871,-275.916"/>
<polygon fill="#ff7f00" stroke="#ff7f00" points="606.028,-279.224 614.63,-273.038 604.048,-272.51 606.028,-279.224"/>
<text text-anchor="middle" x="546.5" y="-303.1" font-family="Myriad Condensed Web" font-size="8.00">&lt;25Gb</text>
</g>
<!-- Vaultage -->
<g id="node16" class="node"><title>Vaultage</title>
<g id="a_node16"><a xlink:href="http://localhost:8080/?focusapp=11" xlink:title="Vaultage">
<polygon fill="none" stroke="skyblue" points="770,-200 716,-200 716,-164 770,-164 770,-200"/>
<text text-anchor="middle" x="743" y="-179.5" font-family="Myriad Condensed Web" font-size="10.00">Vaultage</text>
</a>
</g>
</g>
<!-- Informatica&#45;&gt;Vaultage -->
<g id="edge25" class="edge"><title>Informatica&#45;&gt;Vaultage</title>
<path fill="none" stroke="#e41a1c" d="M670.495,-245.935C678.549,-240.453 687.301,-234.191 695,-228 702.844,-221.692 710.976,-214.394 718.268,-207.535"/>
<polygon fill="#e41a1c" stroke="#e41a1c" points="720.99,-209.775 725.797,-200.333 716.151,-204.717 720.99,-209.775"/>
<text text-anchor="middle" x="717.5" y="-221.1" font-family="Myriad Condensed Web" font-size="8.00">&gt;25Gb</text>
</g>
<!-- Vaultage&#45;&gt;Qlikview -->
<g id="edge26" class="edge"><title>Vaultage&#45;&gt;Qlikview</title>
<path fill="none" stroke="#999999" d="M743.956,-163.861C743.524,-154.398 741.274,-143.148 734,-136 702.101,-104.656 669.557,-146.387 635,-118 613.435,-100.285 603.74,-69.0011 599.416,-46.3324"/>
<polygon fill="#999999" stroke="#999999" points="602.84,-45.5852 597.74,-36.2986 595.936,-46.7387 602.84,-45.5852"/>
</g>
<!-- Avaya -->
<g id="node17" class="node"><title>Avaya</title>
<polygon fill="#999999" stroke="#999999" points="1099,-364 1045,-364 1045,-328 1099,-328 1099,-364"/>
<text text-anchor="middle" x="1072" y="-343.5" font-family="Myriad Condensed Web" font-size="10.00">Avaya</text>
</g>
<!-- Totalview -->
<g id="node18" class="node"><title>Totalview</title>
<g id="a_node18"><a xlink:href="http://localhost:8080/?focusapp=13" xlink:title="Totalview">
<polygon fill="none" stroke="skyblue" points="1004,-118 950,-118 950,-82 1004,-82 1004,-118"/>
<text text-anchor="middle" x="977" y="-97.5" font-family="Myriad Condensed Web" font-size="10.00">Totalview</text>
</a>
</g>
</g>
<!-- Avaya&#45;&gt;Totalview -->
<g id="edge27" class="edge"><title>Avaya&#45;&gt;Totalview</title>
<path fill="none" stroke="#4daf4a" d="M1073.46,-327.893C1075.59,-294.691 1076.91,-219.872 1052,-164 1044.01,-146.084 1027.99,-131.522 1012.8,-120.929"/>
<polygon fill="#4daf4a" stroke="#4daf4a" points="1014.3,-117.725 1004.02,-115.155 1010.46,-123.574 1014.3,-117.725"/>
<text text-anchor="middle" x="1077.5" y="-221.1" font-family="Myriad Condensed Web" font-size="8.00">&lt;1Gb</text>
</g>
<!-- Avaya&#45;&gt;PIF -->
<g id="edge28" class="edge"><title>Avaya&#45;&gt;PIF</title>
<path fill="none" stroke="#ffff33" d="M1060.02,-327.741C1029.51,-285.481 944.038,-177.266 842,-136 798.083,-118.239 744.037,-109.118 708.608,-104.708"/>
<polygon fill="#ffff33" stroke="#ffff33" points="708.584,-101.181 698.243,-103.487 707.764,-108.133 708.584,-101.181"/>
<text text-anchor="middle" x="982.5" y="-221.1" font-family="Myriad Condensed Web" font-size="8.00">&lt;5Gb</text>
</g>
<!-- Totalview&#45;&gt;PIF -->
<g id="edge29" class="edge"><title>Totalview&#45;&gt;PIF</title>
<path fill="none" stroke="#4daf4a" d="M949.921,-106.274C933.272,-109.996 911.471,-114.631 892,-118 821.517,-130.196 803.87,-134.711 732.5,-139.5 724.961,-140.006 722.563,-142.183 715.5,-139.5 707.488,-136.457 699.995,-131.237 693.526,-125.572"/>
<polygon fill="#4daf4a" stroke="#4daf4a" points="695.561,-122.675 685.918,-118.287 690.72,-127.731 695.561,-122.675"/>
<text text-anchor="middle" x="724" y="-139.1" font-family="Myriad Condensed Web" font-size="8.00">&lt;1Gb</text>
</g>
<!-- BPS DWH -->
<g id="node25" class="node"><title>BPS DWH</title>
<g id="a_node25"><a xlink:href="http://localhost:8080/?focusapp=20" xlink:title="BPS DWH">
<polygon fill="none" stroke="skyblue" points="1043,-200 989,-200 989,-164 1043,-164 1043,-200"/>
<text text-anchor="middle" x="1016" y="-179.5" font-family="Myriad Condensed Web" font-size="10.00">BPS DWH</text>
</a>
</g>
</g>
<!-- Totalview&#45;&gt;BPS DWH -->
<g id="edge30" class="edge"><title>Totalview&#45;&gt;BPS DWH</title>
<path fill="none" stroke="#999999" d="M997.955,-118.087C1003.03,-123.299 1007.89,-129.411 1011,-136 1013.52,-141.332 1014.99,-147.402 1015.81,-153.32"/>
<polygon fill="#999999" stroke="#999999" points="1012.35,-153.945 1016.67,-163.616 1019.32,-153.358 1012.35,-153.945"/>
</g>
<!-- PIF&#45;&gt;RMS -->
<g id="edge33" class="edge"><title>PIF&#45;&gt;RMS</title>
<path fill="none" stroke="#4daf4a" d="M643.754,-108.465C591.126,-122.883 475.445,-154.577 415.947,-170.877"/>
<polygon fill="#4daf4a" stroke="#4daf4a" points="414.928,-167.528 406.208,-173.546 416.778,-174.279 414.928,-167.528"/>
<text text-anchor="middle" x="551.5" y="-139.1" font-family="Myriad Condensed Web" font-size="8.00">&lt;1Gb</text>
</g>
<!-- PIF&#45;&gt;Qlikview -->
<g id="edge32" class="edge"><title>PIF&#45;&gt;Qlikview</title>
<path fill="none" stroke="#ffff33" d="M654.726,-81.6412C644.237,-70.4527 630.444,-55.7404 618.861,-43.3855"/>
<polygon fill="#ffff33" stroke="#ffff33" points="621.377,-40.9517 611.984,-36.0501 616.271,-45.7393 621.377,-40.9517"/>
<text text-anchor="middle" x="646.5" y="-57.1" font-family="Myriad Condensed Web" font-size="8.00">&lt;5Gb</text>
</g>
<!-- Audit Base -->
<g id="node23" class="node"><title>Audit Base</title>
<polygon fill="#999999" stroke="#999999" points="883.25,-118 828.75,-118 828.75,-82 883.25,-82 883.25,-118"/>
<text text-anchor="middle" x="856" y="-97.5" font-family="Myriad Condensed Web" font-size="10.00">Audit Base</text>
</g>
<!-- PIF&#45;&gt;Audit Base -->
<g id="edge31" class="edge"><title>PIF&#45;&gt;Audit Base</title>
<path fill="none" stroke="#4daf4a" d="M698.297,-100C730.132,-100 782.931,-100 818.574,-100"/>
<polygon fill="#4daf4a" stroke="#4daf4a" points="818.591,-103.5 828.591,-100 818.591,-96.5001 818.591,-103.5"/>
<text text-anchor="middle" x="763.25" y="-105.6" font-family="Myriad Condensed Web" font-size="8.00">&lt;1Gb</text>
</g>
<!-- EDSN Gateway -->
<g id="node22" class="node"><title>EDSN Gateway</title>
<polygon fill="#999999" stroke="#999999" points="567,-364 497,-364 497,-328 567,-328 567,-364"/>
<text text-anchor="middle" x="532" y="-343.5" font-family="Myriad Condensed Web" font-size="10.00">EDSN Gateway</text>
</g>
<!-- EDSN Gateway&#45;&gt;XM2 -->
<g id="edge34" class="edge"><title>EDSN Gateway&#45;&gt;XM2</title>
<path fill="none" stroke="#ffff33" d="M511.798,-327.928C507.015,-322.716 502.563,-316.601 500,-310 497.879,-304.536 497.086,-298.412 497.026,-292.482"/>
<polygon fill="#ffff33" stroke="#ffff33" points="500.537,-292.379 497.58,-282.205 493.547,-292.003 500.537,-292.379"/>
<text text-anchor="middle" x="508.5" y="-303.1" font-family="Myriad Condensed Web" font-size="8.00">&lt;5Gb</text>
</g>
<!-- EDSN Gateway&#45;&gt;Informatica -->
<g id="edge35" class="edge"><title>EDSN Gateway&#45;&gt;Informatica</title>
<path fill="none" stroke="#999999" d="M567.096,-331.684C579.7,-326.021 593.604,-318.698 605,-310 612.325,-304.41 619.276,-297.258 625.227,-290.309"/>
<polygon fill="#999999" stroke="#999999" points="628.108,-292.313 631.714,-282.351 622.683,-287.89 628.108,-292.313"/>
</g>
<!-- Thinconnect -->
<g id="node24" class="node"><title>Thinconnect</title>
<polygon fill="#999999" stroke="#999999" points="719,-364 657,-364 657,-328 719,-328 719,-364"/>
<text text-anchor="middle" x="688" y="-343.5" font-family="Myriad Condensed Web" font-size="10.00">Thinconnect</text>
</g>
<!-- Thinconnect&#45;&gt;XM2 -->
<g id="edge37" class="edge"><title>Thinconnect&#45;&gt;XM2</title>
<path fill="none" stroke="#999999" d="M660.553,-327.79C645.423,-318.76 626.088,-307.954 608,-300 585.398,-290.062 559.047,-281.409 538.151,-275.193"/>
<polygon fill="#999999" stroke="#999999" points="538.951,-271.781 528.371,-272.342 536.992,-278.501 538.951,-271.781"/>
</g>
<!-- Thinconnect&#45;&gt;PIF -->
<g id="edge36" class="edge"><title>Thinconnect&#45;&gt;PIF</title>
<path fill="none" stroke="#4daf4a" d="M707.483,-327.967C741.112,-296.389 804.143,-226.295 779,-164 767.258,-134.906 734.348,-118.582 707.916,-109.883"/>
<polygon fill="#4daf4a" stroke="#4daf4a" points="708.747,-106.477 698.161,-106.912 706.707,-113.174 708.747,-106.477"/>
<text text-anchor="middle" x="790.5" y="-221.1" font-family="Myriad Condensed Web" font-size="8.00">&lt;1Gb</text>
</g>
<!-- BPS DWH&#45;&gt;PIF -->
<g id="edge38" class="edge"><title>BPS DWH&#45;&gt;PIF</title>
<path fill="none" stroke="#ffff33" d="M1003.42,-163.575C995.331,-153.764 983.928,-142.257 971,-136 969.53,-135.289 788.52,-114.471 708.412,-105.285"/>
<polygon fill="#ffff33" stroke="#ffff33" points="708.592,-101.783 698.258,-104.121 707.794,-108.737 708.592,-101.783"/>
<text text-anchor="middle" x="994.5" y="-139.1" font-family="Myriad Condensed Web" font-size="8.00">&lt;5Gb</text>
</g>
<!-- RWE AD servers -->
<g id="node26" class="node"><title>RWE AD servers</title>
<polygon fill="#999999" stroke="#999999" points="954.25,-364 881.75,-364 881.75,-328 954.25,-328 954.25,-364"/>
<text text-anchor="middle" x="918" y="-343.5" font-family="Myriad Condensed Web" font-size="10.00">RWE AD servers</text>
</g>
<!-- RWE AD servers&#45;&gt;PIF -->
<g id="edge39" class="edge"><title>RWE AD servers&#45;&gt;PIF</title>
<path fill="none" stroke="#4daf4a" d="M911.83,-327.858C899.238,-294.273 868.245,-218.356 827,-164 815.975,-149.471 812.909,-144.919 797,-136 769.289,-120.466 734.228,-111.457 708.13,-106.481"/>
<polygon fill="#4daf4a" stroke="#4daf4a" points="708.711,-103.029 698.249,-104.706 707.473,-109.919 708.711,-103.029"/>
<text text-anchor="middle" x="875.5" y="-221.1" font-family="Myriad Condensed Web" font-size="8.00">&lt;1Gb</text>
</g>
<!-- TIJSS -->
<g id="node27" class="node"><title>TIJSS</title>
<polygon fill="#999999" stroke="#999999" points="1027,-364 973,-364 973,-328 1027,-328 1027,-364"/>
<text text-anchor="middle" x="1000" y="-343.5" font-family="Myriad Condensed Web" font-size="10.00">TIJSS</text>
</g>
<!-- TIJSS&#45;&gt;PIF -->
<g id="edge40" class="edge"><title>TIJSS&#45;&gt;PIF</title>
<path fill="none" stroke="#4daf4a" d="M972.75,-330.534C963.608,-324.887 953.771,-317.87 946,-310 878.728,-241.876 904.765,-178.553 819,-136 783.619,-118.445 739.053,-109.456 708.116,-105.015"/>
<polygon fill="#4daf4a" stroke="#4daf4a" points="708.558,-101.543 698.18,-103.678 707.624,-108.481 708.558,-101.543"/>
<text text-anchor="middle" x="904.5" y="-221.1" font-family="Myriad Condensed Web" font-size="8.00">&lt;1Gb</text>
</g>
<!-- TPM -->
<g id="node28" class="node"><title>TPM</title>
<polygon fill="#999999" stroke="#999999" points="639,-364 585,-364 585,-328 639,-328 639,-364"/>
<text text-anchor="middle" x="612" y="-343.5" font-family="Myriad Condensed Web" font-size="10.00">TPM</text>
</g>
<!-- TPM&#45;&gt;Informatica -->
<g id="edge41" class="edge"><title>TPM&#45;&gt;Informatica</title>
<path fill="none" stroke="#999999" d="M621.58,-327.833C624.495,-322.243 627.568,-315.945 630,-310 632.342,-304.276 634.521,-298.008 636.43,-292.017"/>
<polygon fill="#999999" stroke="#999999" points="639.812,-292.927 639.368,-282.341 633.114,-290.893 639.812,-292.927"/>
</g>
<!-- All4One -->
<g id="node29" class="node"><title>All4One</title>
<polygon fill="#999999" stroke="#999999" points="791,-364 737,-364 737,-328 791,-328 791,-364"/>
<text text-anchor="middle" x="764" y="-343.5" font-family="Myriad Condensed Web" font-size="10.00">All4One</text>
</g>
<!-- All4One&#45;&gt;Informatica -->
<g id="edge42" class="edge"><title>All4One&#45;&gt;Informatica</title>
<path fill="none" stroke="#999999" d="M738.257,-327.838C720.699,-316.133 697.255,-300.504 678.141,-287.761"/>
<polygon fill="#999999" stroke="#999999" points="679.962,-284.768 669.7,-282.134 676.079,-290.593 679.962,-284.768"/>
</g>
<!-- Wasstraat -->
<g id="node30" class="node"><title>Wasstraat</title>
<g id="a_node30"><a xlink:href="http://localhost:8080/?focusapp=25" xlink:title="Wasstraat">
<polygon fill="none" stroke="skyblue" points="406,-118 352,-118 352,-82 406,-82 406,-118"/>
<text text-anchor="middle" x="379" y="-97.5" font-family="Myriad Condensed Web" font-size="10.00">Wasstraat</text>
</a>
</g>
</g>
<!-- Wasstraat&#45;&gt;RMS -->
<g id="edge43" class="edge"><title>Wasstraat&#45;&gt;RMS</title>
<path fill="none" stroke="#999999" d="M379,-128.17C379,-136.316 379,-145.256 379,-153.428"/>
<polygon fill="#999999" stroke="#999999" points="382.5,-128.05 379,-118.05 375.5,-128.05 382.5,-128.05"/>
<polygon fill="#999999" stroke="#999999" points="375.5,-153.641 379,-163.641 382.5,-153.641 375.5,-153.641"/>
</g>
<!-- SPSS -->
<g id="node33" class="node"><title>SPSS</title>
<g id="a_node33"><a xlink:href="http://localhost:8080/?focusapp=28" xlink:title="SPSS">
<polygon fill="none" stroke="skyblue" points="1076,-118 1022,-118 1022,-82 1076,-82 1076,-118"/>
<text text-anchor="middle" x="1049" y="-97.5" font-family="Myriad Condensed Web" font-size="10.00">SPSS</text>
</a>
</g>
</g>
<!-- AIA ITP B2B -->
<g id="node34" class="node"><title>AIA ITP B2B</title>
<g id="a_node34"><a xlink:href="http://localhost:8080/?focusapp=29" xlink:title="AIA ITP B2B">
<polygon fill="none" stroke="skyblue" points="1152,-118 1094,-118 1094,-82 1152,-82 1152,-118"/>
<text text-anchor="middle" x="1123" y="-97.5" font-family="Myriad Condensed Web" font-size="10.00">AIA ITP B2B</text>
</a>
</g>
</g>
</g>
</svg>
