<?xml version="1.0" encoding="UTF-8" standalone="no"?>
<!DOCTYPE svg PUBLIC "-//W3C//DTD SVG 1.1//EN"
 "http://www.w3.org/Graphics/SVG/1.1/DTD/svg11.dtd">
<!-- Generated by graphviz version 2.32.0 (20130801.1934)
 -->
<!-- Title: G Pages: 1 -->
<svg width="982pt" height="332pt"
 viewBox="0.00 0.00 982.00 332.00" xmlns="http://www.w3.org/2000/svg" xmlns:xlink="http://www.w3.org/1999/xlink">
<g id="graph0" class="graph" transform="scale(1 1) rotate(0) translate(4 328)">
<title>G</title>
<polygon fill="white" stroke="white" points="-4,5 -4,-328 979,-328 979,5 -4,5"/>
<!-- Source -->
<g id="node1" class="node"><title>Source</title>
<text text-anchor="middle" x="40" y="-302.3" font-family="Myriad Condensed Web" font-size="14.00">Source</text>
</g>
<!-- ETL -->
<g id="node2" class="node"><title>ETL</title>
<text text-anchor="middle" x="40" y="-230.3" font-family="Myriad Condensed Web" font-size="14.00">ETL</text>
</g>
<!-- Source&#45;&gt;ETL -->
<g id="edge1" class="edge"><title>Source&#45;&gt;ETL</title>
<path fill="none" stroke="black" d="M40,-287.697C40,-279.983 40,-270.712 40,-262.112"/>
<polygon fill="black" stroke="black" points="43.5001,-262.104 40,-252.104 36.5001,-262.104 43.5001,-262.104"/>
</g>
<!-- Database -->
<g id="node3" class="node"><title>Database</title>
<text text-anchor="middle" x="40" y="-158.3" font-family="Myriad Condensed Web" font-size="14.00">Database</text>
</g>
<!-- ETL&#45;&gt;Database -->
<g id="edge2" class="edge"><title>ETL&#45;&gt;Database</title>
<path fill="none" stroke="black" d="M40,-215.697C40,-207.983 40,-198.712 40,-190.112"/>
<polygon fill="black" stroke="black" points="43.5001,-190.104 40,-180.104 36.5001,-190.104 43.5001,-190.104"/>
</g>
<!-- Application -->
<g id="node4" class="node"><title>Application</title>
<text text-anchor="middle" x="40" y="-86.3" font-family="Myriad Condensed Web" font-size="14.00">Application</text>
</g>
<!-- Database&#45;&gt;Application -->
<g id="edge3" class="edge"><title>Database&#45;&gt;Application</title>
<path fill="none" stroke="black" d="M40,-143.697C40,-135.983 40,-126.712 40,-118.112"/>
<polygon fill="black" stroke="black" points="43.5001,-118.104 40,-108.104 36.5001,-118.104 43.5001,-118.104"/>
</g>
<!-- Presentation -->
<g id="node5" class="node"><title>Presentation</title>
<text text-anchor="middle" x="40" y="-14.3" font-family="Myriad Condensed Web" font-size="14.00">Presentation</text>
</g>
<!-- Application&#45;&gt;Presentation -->
<g id="edge4" class="edge"><title>Application&#45;&gt;Presentation</title>
<path fill="none" stroke="black" d="M40,-71.6966C40,-63.9827 40,-54.7125 40,-46.1124"/>
<polygon fill="black" stroke="black" points="43.5001,-46.1043 40,-36.1043 36.5001,-46.1044 43.5001,-46.1043"/>
</g>
<!-- Aprimo -->
<g id="node6" class="node"><title>Aprimo</title>
<polygon fill="none" stroke="skyblue" points="292,-108 238,-108 238,-72 292,-72 292,-108"/>
<text text-anchor="middle" x="265" y="-87.5" font-family="Myriad Condensed Web" font-size="10.00">Aprimo</text>
</g>
<!-- RMS -->
<g id="node7" class="node"><title>RMS</title>
<polygon fill="none" stroke="skyblue" points="292,-180 238,-180 238,-144 292,-144 292,-180"/>
<text text-anchor="middle" x="265" y="-159.5" font-family="Myriad Condensed Web" font-size="10.00">RMS</text>
</g>
<!-- RMS&#45;&gt;Aprimo -->
<g id="edge5" class="edge"><title>RMS&#45;&gt;Aprimo</title>
<path fill="none" stroke="black" d="M265,-143.697C265,-135.983 265,-126.712 265,-118.112"/>
<polygon fill="black" stroke="black" points="268.5,-118.104 265,-108.104 261.5,-118.104 268.5,-118.104"/>
</g>
<!-- SAS -->
<g id="node20" class="node"><title>SAS</title>
<polygon fill="none" stroke="skyblue" points="220,-108 166,-108 166,-72 220,-72 220,-108"/>
<text text-anchor="middle" x="193" y="-87.5" font-family="Myriad Condensed Web" font-size="10.00">SAS</text>
</g>
<!-- RMS&#45;&gt;SAS -->
<g id="edge22" class="edge"><title>RMS&#45;&gt;SAS</title>
<path fill="none" stroke="black" d="M247.202,-143.697C238.396,-135.135 227.618,-124.656 217.999,-115.304"/>
<polygon fill="black" stroke="black" points="220.203,-112.566 210.593,-108.104 215.323,-117.585 220.203,-112.566"/>
</g>
<!-- XM2 -->
<g id="node8" class="node"><title>XM2</title>
<polygon fill="none" stroke="skyblue" points="371,-252 317,-252 317,-216 371,-216 371,-252"/>
<text text-anchor="middle" x="344" y="-231.5" font-family="Myriad Condensed Web" font-size="10.00">XM2</text>
</g>
<!-- XM2&#45;&gt;RMS -->
<g id="edge6" class="edge"><title>XM2&#45;&gt;RMS</title>
<path fill="none" stroke="black" d="M324.472,-215.697C314.618,-206.965 302.514,-196.24 291.804,-186.75"/>
<polygon fill="black" stroke="black" points="294.109,-184.117 284.303,-180.104 289.467,-189.356 294.109,-184.117"/>
</g>
<!-- Digip -->
<g id="node9" class="node"><title>Digip</title>
<polygon fill="none" stroke="skyblue" points="402,-108 348,-108 348,-72 402,-72 402,-108"/>
<text text-anchor="middle" x="375" y="-87.5" font-family="Myriad Condensed Web" font-size="10.00">Digip</text>
</g>
<!-- XM2&#45;&gt;Digip -->
<g id="edge7" class="edge"><title>XM2&#45;&gt;Digip</title>
<path fill="none" stroke="black" d="M347.739,-215.871C353.046,-191.564 362.814,-146.819 369.103,-118.013"/>
<polygon fill="black" stroke="black" points="372.534,-118.706 371.247,-108.189 365.695,-117.213 372.534,-118.706"/>
</g>
<!-- Qlikview -->
<g id="node11" class="node"><title>Qlikview</title>
<polygon fill="none" stroke="skyblue" points="465,-36 411,-36 411,-0 465,-0 465,-36"/>
<text text-anchor="middle" x="438" y="-15.5" font-family="Myriad Condensed Web" font-size="10.00">Qlikview</text>
</g>
<!-- XM2&#45;&gt;Qlikview -->
<g id="edge12" class="edge"><title>XM2&#45;&gt;Qlikview</title>
<path fill="none" stroke="black" d="M337.889,-215.995C327.847,-184.891 311.555,-117.823 339,-72 352.438,-49.5635 378.977,-36.0877 401.197,-28.3425"/>
<polygon fill="black" stroke="black" points="402.279,-31.6712 410.722,-25.27 400.13,-25.0092 402.279,-31.6712"/>
</g>
<!-- iProcess -->
<g id="node12" class="node"><title>iProcess</title>
<polygon fill="#b3b3b3" stroke="#b3b3b3" points="587,-324 533,-324 533,-288 587,-288 587,-324"/>
<text text-anchor="middle" x="560" y="-303.5" font-family="Myriad Condensed Web" font-size="10.00">iProcess</text>
</g>
<!-- XM2&#45;&gt;iProcess -->
<g id="edge25" class="edge"><title>XM2&#45;&gt;iProcess</title>
<path fill="none" stroke="black" d="M371.397,-244.711C377.228,-247.306 383.272,-249.954 389,-252 447.613,-272.937 468.506,-266.659 522.854,-284.518"/>
<polygon fill="black" stroke="black" points="522.042,-287.94 532.636,-287.87 524.311,-281.318 522.042,-287.94"/>
</g>
<!-- Informatica -->
<g id="node15" class="node"><title>Informatica</title>
<polygon fill="none" stroke="skyblue" points="447,-252 389,-252 389,-216 447,-216 447,-252"/>
<text text-anchor="middle" x="418" y="-231.5" font-family="Myriad Condensed Web" font-size="10.00">Informatica</text>
</g>
<!-- XM2&#45;&gt;Informatica -->
<g id="edge26" class="edge"><title>XM2&#45;&gt;Informatica</title>
<path fill="none" stroke="black" d="M371.172,-234C373.641,-234 376.111,-234 378.58,-234"/>
<polygon fill="black" stroke="black" points="378.732,-237.5 388.732,-234 378.732,-230.5 378.732,-237.5"/>
</g>
<!-- PIF -->
<g id="node19" class="node"><title>PIF</title>
<polygon fill="none" stroke="skyblue" points="656,-108 602,-108 602,-72 656,-72 656,-108"/>
<text text-anchor="middle" x="629" y="-87.5" font-family="Myriad Condensed Web" font-size="10.00">PIF</text>
</g>
<!-- XM2&#45;&gt;PIF -->
<g id="edge20" class="edge"><title>XM2&#45;&gt;PIF</title>
<path fill="none" stroke="black" d="M365.384,-215.871C395.98,-191.475 449.705,-149.093 460,-144 512.102,-118.226 533.348,-128.009 591.959,-107.984"/>
<polygon fill="black" stroke="black" points="593.457,-111.165 601.696,-104.504 591.102,-104.574 593.457,-111.165"/>
</g>
<!-- ACL -->
<g id="node21" class="node"><title>ACL</title>
<polygon fill="#b3b3b3" stroke="#b3b3b3" points="474,-108 420,-108 420,-72 474,-72 474,-108"/>
<text text-anchor="middle" x="447" y="-87.5" font-family="Myriad Condensed Web" font-size="10.00">ACL</text>
</g>
<!-- XM2&#45;&gt;ACL -->
<g id="edge23" class="edge"><title>XM2&#45;&gt;ACL</title>
<path fill="none" stroke="black" d="M356.424,-215.871C374.365,-191.137 407.655,-145.242 428.495,-116.512"/>
<polygon fill="black" stroke="black" points="431.493,-118.339 434.532,-108.189 425.827,-114.229 431.493,-118.339"/>
</g>
<!-- Digip&#45;&gt;Qlikview -->
<g id="edge36" class="edge"><title>Digip&#45;&gt;Qlikview</title>
<path fill="none" stroke="black" d="M390.573,-71.6966C398.202,-63.2198 407.523,-52.8636 415.876,-43.5826"/>
<polygon fill="black" stroke="black" points="418.518,-45.8787 422.606,-36.1043 413.315,-41.1959 418.518,-45.8787"/>
</g>
<!-- Digip&#45;&gt;PIF -->
<g id="edge29" class="edge"><title>Digip&#45;&gt;PIF</title>
<path fill="none" stroke="black" d="M394.96,-108.064C401.517,-112.902 409.149,-117.484 417,-120 452.976,-131.529 551.024,-131.529 587,-120 591.661,-118.506 596.246,-116.284 600.574,-113.712"/>
<polygon fill="black" stroke="black" points="602.664,-116.525 609.04,-108.064 598.779,-110.702 602.664,-116.525"/>
</g>
<!-- Sharepoint -->
<g id="node10" class="node"><title>Sharepoint</title>
<polygon fill="#b3b3b3" stroke="#b3b3b3" points="657.25,-36 600.75,-36 600.75,-0 657.25,-0 657.25,-36"/>
<text text-anchor="middle" x="629" y="-15.5" font-family="Myriad Condensed Web" font-size="10.00">Sharepoint</text>
</g>
<!-- Sharepoint&#45;&gt;PIF -->
<g id="edge30" class="edge"><title>Sharepoint&#45;&gt;PIF</title>
<path fill="none" stroke="black" d="M634.895,-36.1043C635.701,-43.7913 635.937,-53.0537 635.604,-61.6651"/>
<polygon fill="black" stroke="black" points="632.109,-61.4805 634.916,-71.6966 639.092,-61.9597 632.109,-61.4805"/>
</g>
<!-- iProcess&#45;&gt;XM2 -->
<g id="edge8" class="edge"><title>iProcess&#45;&gt;XM2</title>
<path fill="none" stroke="black" d="M532.603,-295.289C526.772,-292.694 520.728,-290.046 515,-288 456.387,-267.063 435.494,-273.341 381.146,-255.482"/>
<polygon fill="black" stroke="black" points="381.958,-252.06 371.364,-252.13 379.689,-258.682 381.958,-252.06"/>
</g>
<!-- iProcess&#45;&gt;Informatica -->
<g id="edge9" class="edge"><title>iProcess&#45;&gt;Informatica</title>
<path fill="none" stroke="black" d="M532.957,-291.669C511.361,-281.023 480.82,-265.968 456.645,-254.05"/>
<polygon fill="black" stroke="black" points="457.907,-250.77 447.39,-249.488 454.812,-257.049 457.907,-250.77"/>
</g>
<!-- iProcess&#45;&gt;PIF -->
<g id="edge21" class="edge"><title>iProcess&#45;&gt;PIF</title>
<path fill="none" stroke="black" d="M561.652,-287.849C570.105,-250.597 598.398,-162.067 615.808,-117.539"/>
<polygon fill="black" stroke="black" points="619.067,-118.816 619.558,-108.232 612.574,-116.2 619.067,-118.816"/>
</g>
<!-- SAP ISU -->
<g id="node13" class="node"><title>SAP ISU</title>
<polygon fill="#b3b3b3" stroke="#b3b3b3" points="371,-324 317,-324 317,-288 371,-288 371,-324"/>
<text text-anchor="middle" x="344" y="-303.5" font-family="Myriad Condensed Web" font-size="10.00">SAP ISU</text>
</g>
<!-- SAP ISU&#45;&gt;XM2 -->
<g id="edge13" class="edge"><title>SAP ISU&#45;&gt;XM2</title>
<path fill="none" stroke="black" d="M344,-287.697C344,-279.983 344,-270.712 344,-262.112"/>
<polygon fill="black" stroke="black" points="347.5,-262.104 344,-252.104 340.5,-262.104 347.5,-262.104"/>
</g>
<!-- SAP ISU&#45;&gt;Informatica -->
<g id="edge15" class="edge"><title>SAP ISU&#45;&gt;Informatica</title>
<path fill="none" stroke="black" d="M362.292,-287.697C371.433,-279.05 382.64,-268.449 392.6,-259.027"/>
<polygon fill="black" stroke="black" points="395.059,-261.519 399.918,-252.104 390.248,-256.434 395.059,-261.519"/>
</g>
<!-- SAP CRM -->
<g id="node14" class="node"><title>SAP CRM</title>
<polygon fill="#b3b3b3" stroke="#b3b3b3" points="211,-324 157,-324 157,-288 211,-288 211,-324"/>
<text text-anchor="middle" x="184" y="-303.5" font-family="Myriad Condensed Web" font-size="10.00">SAP CRM</text>
</g>
<!-- SAP CRM&#45;&gt;XM2 -->
<g id="edge14" class="edge"><title>SAP CRM&#45;&gt;XM2</title>
<path fill="none" stroke="black" d="M211.077,-292.082C214.08,-290.688 217.1,-289.304 220,-288 249.218,-274.863 282.629,-260.627 307.402,-250.221"/>
<polygon fill="black" stroke="black" points="308.911,-253.383 316.781,-246.291 306.205,-246.927 308.911,-253.383"/>
</g>
<!-- SAP CRM&#45;&gt;Informatica -->
<g id="edge16" class="edge"><title>SAP CRM&#45;&gt;Informatica</title>
<path fill="none" stroke="black" d="M211.258,-291.369C214.173,-290.14 217.124,-288.989 220,-288 285.965,-265.313 308.865,-274.141 379.027,-251.952"/>
<polygon fill="black" stroke="black" points="380.352,-255.201 388.771,-248.77 378.179,-248.547 380.352,-255.201"/>
</g>
<!-- Vaultage -->
<g id="node16" class="node"><title>Vaultage</title>
<polygon fill="none" stroke="skyblue" points="523,-180 469,-180 469,-144 523,-144 523,-180"/>
<text text-anchor="middle" x="496" y="-159.5" font-family="Myriad Condensed Web" font-size="10.00">Vaultage</text>
</g>
<!-- Informatica&#45;&gt;Vaultage -->
<g id="edge10" class="edge"><title>Informatica&#45;&gt;Vaultage</title>
<path fill="none" stroke="black" d="M437.281,-215.697C446.915,-207.05 458.729,-196.449 469.227,-187.027"/>
<polygon fill="black" stroke="black" points="471.836,-189.388 476.941,-180.104 467.161,-184.179 471.836,-189.388"/>
</g>
<!-- Vaultage&#45;&gt;Qlikview -->
<g id="edge11" class="edge"><title>Vaultage&#45;&gt;Qlikview</title>
<path fill="none" stroke="black" d="M496.256,-143.82C495.916,-125.299 493.547,-95.3363 483,-72 478.404,-61.8308 471.258,-52.0941 464.004,-43.8039"/>
<polygon fill="black" stroke="black" points="466.454,-41.2983 457.096,-36.3319 461.314,-46.0505 466.454,-41.2983"/>
</g>
<!-- Avaya -->
<g id="node17" class="node"><title>Avaya</title>
<polygon fill="none" stroke="skyblue" points="659,-324 605,-324 605,-288 659,-288 659,-324"/>
<text text-anchor="middle" x="632" y="-303.5" font-family="Myriad Condensed Web" font-size="10.00">Avaya</text>
</g>
<!-- Totalview -->
<g id="node18" class="node"><title>Totalview</title>
<polygon fill="none" stroke="skyblue" points="584,-108 530,-108 530,-72 584,-72 584,-108"/>
<text text-anchor="middle" x="557" y="-87.5" font-family="Myriad Condensed Web" font-size="10.00">Totalview</text>
</g>
<!-- Avaya&#45;&gt;Totalview -->
<g id="edge17" class="edge"><title>Avaya&#45;&gt;Totalview</title>
<path fill="none" stroke="black" d="M625.989,-287.849C612.961,-250.675 582.037,-162.439 566.4,-117.82"/>
<polygon fill="black" stroke="black" points="569.65,-116.512 563.039,-108.232 563.044,-118.827 569.65,-116.512"/>
</g>
<!-- Avaya&#45;&gt;PIF -->
<g id="edge27" class="edge"><title>Avaya&#45;&gt;PIF</title>
<path fill="none" stroke="black" d="M631.76,-287.849C631.241,-250.832 630.012,-163.181 629.384,-118.386"/>
<polygon fill="black" stroke="black" points="632.882,-118.182 629.242,-108.232 625.882,-118.281 632.882,-118.182"/>
</g>
<!-- Totalview&#45;&gt;PIF -->
<g id="edge18" class="edge"><title>Totalview&#45;&gt;PIF</title>
<path fill="none" stroke="black" d="M584.281,-77.2918C586.738,-76.8456 589.194,-76.588 591.651,-76.519"/>
<polygon fill="black" stroke="black" points="591.51,-80.0184 601.75,-77.2974 592.048,-73.0391 591.51,-80.0184"/>
</g>
<!-- Totalview&#45;&gt;PIF -->
<g id="edge19" class="edge"><title>Totalview&#45;&gt;PIF</title>
<path fill="none" stroke="black" d="M584.281,-102.708C586.738,-103.154 589.194,-103.412 591.651,-103.481"/>
<polygon fill="black" stroke="black" points="592.048,-106.961 601.75,-102.703 591.51,-99.9816 592.048,-106.961"/>
</g>
<!-- PIF&#45;&gt;RMS -->
<g id="edge44" class="edge"><title>PIF&#45;&gt;RMS</title>
<path fill="none" stroke="black" d="M601.801,-104.813C598.874,-106.006 595.905,-107.099 593,-108 539.175,-124.691 376.439,-146.778 302.399,-156.301"/>
<polygon fill="black" stroke="black" points="301.618,-152.872 292.143,-157.613 302.506,-159.816 301.618,-152.872"/>
</g>
<!-- PIF&#45;&gt;Digip -->
<g id="edge41" class="edge"><title>PIF&#45;&gt;Digip</title>
<path fill="none" stroke="black" d="M614.127,-108.132C605.517,-117.166 593.853,-127.171 581,-132 548.132,-144.35 455.868,-144.35 423,-132 413.561,-128.453 404.763,-122.116 397.346,-115.421"/>
<polygon fill="black" stroke="black" points="399.475,-112.609 389.873,-108.132 394.587,-117.62 399.475,-112.609"/>
</g>
<!-- PIF&#45;&gt;Sharepoint -->
<g id="edge43" class="edge"><title>PIF&#45;&gt;Sharepoint</title>
<path fill="none" stroke="black" d="M623.084,-71.6966C622.289,-63.9827 622.062,-54.7125 622.405,-46.1124"/>
<polygon fill="black" stroke="black" points="625.898,-46.3243 623.105,-36.1043 618.915,-45.8356 625.898,-46.3243"/>
</g>
<!-- PIF&#45;&gt;Qlikview -->
<g id="edge32" class="edge"><title>PIF&#45;&gt;Qlikview</title>
<path fill="none" stroke="black" d="M601.623,-75.6857C598.731,-74.3954 595.818,-73.1431 593,-72 553.287,-55.8922 506.62,-40.3835 474.947,-30.3499"/>
<polygon fill="black" stroke="black" points="475.807,-26.9515 465.218,-27.2908 473.708,-33.6292 475.807,-26.9515"/>
</g>
<!-- PIF&#45;&gt;iProcess -->
<g id="edge42" class="edge"><title>PIF&#45;&gt;iProcess</title>
<path fill="none" stroke="black" d="M627.329,-108.232C618.847,-145.56 590.548,-234.095 573.154,-278.558"/>
<polygon fill="black" stroke="black" points="569.901,-277.266 569.407,-287.849 576.393,-279.884 569.901,-277.266"/>
</g>
<!-- Audit Base -->
<g id="node23" class="node"><title>Audit Base</title>
<polygon fill="#b3b3b3" stroke="#b3b3b3" points="729.25,-108 674.75,-108 674.75,-72 729.25,-72 729.25,-108"/>
<text text-anchor="middle" x="702" y="-87.5" font-family="Myriad Condensed Web" font-size="10.00">Audit Base</text>
</g>
<!-- PIF&#45;&gt;Audit Base -->
<g id="edge28" class="edge"><title>PIF&#45;&gt;Audit Base</title>
<path fill="none" stroke="black" d="M656.09,-90C658.907,-90 661.724,-90 664.541,-90"/>
<polygon fill="black" stroke="black" points="664.741,-93.5001 674.741,-90 664.741,-86.5001 664.741,-93.5001"/>
</g>
<!-- EDSN Gateway -->
<g id="node22" class="node"><title>EDSN Gateway</title>
<polygon fill="#b3b3b3" stroke="#b3b3b3" points="299,-324 229,-324 229,-288 299,-288 299,-324"/>
<text text-anchor="middle" x="264" y="-303.5" font-family="Myriad Condensed Web" font-size="10.00">EDSN Gateway</text>
</g>
<!-- EDSN Gateway&#45;&gt;XM2 -->
<g id="edge24" class="edge"><title>EDSN Gateway&#45;&gt;XM2</title>
<path fill="none" stroke="black" d="M283.775,-287.697C293.754,-278.965 306.011,-268.24 316.857,-258.75"/>
<polygon fill="black" stroke="black" points="319.231,-261.323 324.452,-252.104 314.622,-256.055 319.231,-261.323"/>
</g>
<!-- EDSN Gateway&#45;&gt;Informatica -->
<g id="edge37" class="edge"><title>EDSN Gateway&#45;&gt;Informatica</title>
<path fill="none" stroke="black" d="M299.331,-288.941C323.163,-278.108 354.615,-263.811 379.152,-252.658"/>
<polygon fill="black" stroke="black" points="380.868,-255.723 388.524,-248.398 377.972,-249.35 380.868,-255.723"/>
</g>
<!-- Thinconnect -->
<g id="node24" class="node"><title>Thinconnect</title>
<polygon fill="#b3b3b3" stroke="#b3b3b3" points="811,-324 749,-324 749,-288 811,-288 811,-324"/>
<text text-anchor="middle" x="780" y="-303.5" font-family="Myriad Condensed Web" font-size="10.00">Thinconnect</text>
</g>
<!-- Thinconnect&#45;&gt;PIF -->
<g id="edge31" class="edge"><title>Thinconnect&#45;&gt;PIF</title>
<path fill="none" stroke="black" d="M768.376,-287.975C748.192,-258.484 705.251,-196.058 668,-144 661.518,-134.942 654.317,-125.095 647.884,-116.375"/>
<polygon fill="black" stroke="black" points="650.524,-114.059 641.762,-108.102 644.896,-118.222 650.524,-114.059"/>
</g>
<!-- BPS DWH -->
<g id="node25" class="node"><title>BPS DWH</title>
<polygon fill="#b3b3b3" stroke="#b3b3b3" points="883,-324 829,-324 829,-288 883,-288 883,-324"/>
<text text-anchor="middle" x="856" y="-303.5" font-family="Myriad Condensed Web" font-size="10.00">BPS DWH</text>
</g>
<!-- BPS DWH&#45;&gt;PIF -->
<g id="edge33" class="edge"><title>BPS DWH&#45;&gt;PIF</title>
<path fill="none" stroke="black" d="M839.962,-287.995C811.448,-258.007 749.686,-194.154 694,-144 682.856,-133.963 670.157,-123.423 658.959,-114.41"/>
<polygon fill="black" stroke="black" points="661.112,-111.65 651.114,-108.145 656.744,-117.12 661.112,-111.65"/>
</g>
<!-- RWE AD servers -->
<g id="node26" class="node"><title>RWE AD servers</title>
<polygon fill="#b3b3b3" stroke="#b3b3b3" points="974.25,-324 901.75,-324 901.75,-288 974.25,-288 974.25,-324"/>
<text text-anchor="middle" x="938" y="-303.5" font-family="Myriad Condensed Web" font-size="10.00">RWE AD servers</text>
</g>
<!-- RWE AD servers&#45;&gt;PIF -->
<g id="edge34" class="edge"><title>RWE AD servers&#45;&gt;PIF</title>
<path fill="none" stroke="black" d="M917.688,-287.933C880.78,-257.301 799.7,-191.739 726,-144 706.572,-131.416 683.918,-118.924 665.39,-109.231"/>
<polygon fill="black" stroke="black" points="666.878,-106.06 656.388,-104.571 663.66,-112.277 666.878,-106.06"/>
</g>
<!-- TIJSS -->
<g id="node27" class="node"><title>TIJSS</title>
<polygon fill="#b3b3b3" stroke="#b3b3b3" points="731,-324 677,-324 677,-288 731,-288 731,-324"/>
<text text-anchor="middle" x="704" y="-303.5" font-family="Myriad Condensed Web" font-size="10.00">TIJSS</text>
</g>
<!-- TIJSS&#45;&gt;PIF -->
<g id="edge35" class="edge"><title>TIJSS&#45;&gt;PIF</title>
<path fill="none" stroke="black" d="M697.989,-287.849C684.961,-250.675 654.037,-162.439 638.4,-117.82"/>
<polygon fill="black" stroke="black" points="641.65,-116.512 635.039,-108.232 635.044,-118.827 641.65,-116.512"/>
</g>
<!-- TPM -->
<g id="node28" class="node"><title>TPM</title>
<polygon fill="#b3b3b3" stroke="#b3b3b3" points="443,-324 389,-324 389,-288 443,-288 443,-324"/>
<text text-anchor="middle" x="416" y="-303.5" font-family="Myriad Condensed Web" font-size="10.00">TPM</text>
</g>
<!-- TPM&#45;&gt;Informatica -->
<g id="edge38" class="edge"><title>TPM&#45;&gt;Informatica</title>
<path fill="none" stroke="black" d="M416.494,-287.697C416.715,-279.983 416.98,-270.712 417.225,-262.112"/>
<polygon fill="black" stroke="black" points="420.724,-262.2 417.511,-252.104 413.727,-262 420.724,-262.2"/>
</g>
<!-- All4One -->
<g id="node29" class="node"><title>All4One</title>
<polygon fill="#b3b3b3" stroke="#b3b3b3" points="515,-324 461,-324 461,-288 515,-288 515,-324"/>
<text text-anchor="middle" x="488" y="-303.5" font-family="Myriad Condensed Web" font-size="10.00">All4One</text>
</g>
<!-- All4One&#45;&gt;Informatica -->
<g id="edge39" class="edge"><title>All4One&#45;&gt;Informatica</title>
<path fill="none" stroke="black" d="M470.697,-287.697C462.135,-279.135 451.656,-268.656 442.304,-259.304"/>
<polygon fill="black" stroke="black" points="444.65,-256.701 435.104,-252.104 439.701,-261.65 444.65,-256.701"/>
</g>
<!-- Wasstraat -->
<g id="node30" class="node"><title>Wasstraat</title>
<polygon fill="none" stroke="skyblue" points="139,-324 85,-324 85,-288 139,-288 139,-324"/>
<text text-anchor="middle" x="112" y="-303.5" font-family="Myriad Condensed Web" font-size="10.00">Wasstraat</text>
</g>
<!-- Wasstraat&#45;&gt;RMS -->
<g id="edge40" class="edge"><title>Wasstraat&#45;&gt;RMS</title>
<path fill="none" stroke="black" d="M130.455,-287.871C157.565,-262.711 208.268,-215.654 239.096,-187.042"/>
<polygon fill="black" stroke="black" points="241.53,-189.557 246.479,-180.189 236.769,-184.427 241.53,-189.557"/>
</g>
<!-- RMS Portal -->
<g id="node31" class="node"><title>RMS Portal</title>
<polygon fill="none" stroke="skyblue" points="732,-36 676,-36 676,-0 732,-0 732,-36"/>
<text text-anchor="middle" x="704" y="-15.5" font-family="Myriad Condensed Web" font-size="10.00">RMS Portal</text>
</g>
</g>
</svg>
