<?xml version="1.0" encoding="UTF-8" standalone="no"?>
<!DOCTYPE svg PUBLIC "-//W3C//DTD SVG 1.1//EN"
 "http://www.w3.org/Graphics/SVG/1.1/DTD/svg11.dtd">
<!-- Generated by graphviz version 2.32.0 (20130801.1934)
 -->
<!-- Title: G Pages: 1 -->
<svg width="988pt" height="332pt"
 viewBox="0.00 0.00 988.00 332.00" xmlns="http://www.w3.org/2000/svg" xmlns:xlink="http://www.w3.org/1999/xlink">
<g id="graph0" class="graph" transform="scale(1 1) rotate(0) translate(4 328)">
<title>G</title>
<polygon fill="white" stroke="white" points="-4,5 -4,-328 985,-328 985,5 -4,5"/>
<!-- Source -->
<g id="node1" class="node"><title>Source</title>
<text text-anchor="middle" x="45" y="-302.2" font-family="Myriad Condensed Web" font-size="16.00">Source</text>
</g>
<!-- ETL -->
<g id="node2" class="node"><title>ETL</title>
<text text-anchor="middle" x="45" y="-230.2" font-family="Myriad Condensed Web" font-size="16.00">ETL</text>
</g>
<!-- Source&#45;&gt;ETL -->
<g id="edge1" class="edge"><title>Source&#45;&gt;ETL</title>
<path fill="none" stroke="black" d="M45,-287.697C45,-279.983 45,-270.712 45,-262.112"/>
<polygon fill="black" stroke="black" points="48.5001,-262.104 45,-252.104 41.5001,-262.104 48.5001,-262.104"/>
</g>
<!-- Database -->
<g id="node3" class="node"><title>Database</title>
<text text-anchor="middle" x="45" y="-158.2" font-family="Myriad Condensed Web" font-size="16.00">Database</text>
</g>
<!-- ETL&#45;&gt;Database -->
<g id="edge2" class="edge"><title>ETL&#45;&gt;Database</title>
<path fill="none" stroke="black" d="M45,-215.697C45,-207.983 45,-198.712 45,-190.112"/>
<polygon fill="black" stroke="black" points="48.5001,-190.104 45,-180.104 41.5001,-190.104 48.5001,-190.104"/>
</g>
<!-- Application -->
<g id="node4" class="node"><title>Application</title>
<text text-anchor="middle" x="45" y="-86.2" font-family="Myriad Condensed Web" font-size="16.00">Application</text>
</g>
<!-- Database&#45;&gt;Application -->
<g id="edge3" class="edge"><title>Database&#45;&gt;Application</title>
<path fill="none" stroke="black" d="M45,-143.697C45,-135.983 45,-126.712 45,-118.112"/>
<polygon fill="black" stroke="black" points="48.5001,-118.104 45,-108.104 41.5001,-118.104 48.5001,-118.104"/>
</g>
<!-- Presentation -->
<g id="node5" class="node"><title>Presentation</title>
<text text-anchor="middle" x="45" y="-14.2" font-family="Myriad Condensed Web" font-size="16.00">Presentation</text>
</g>
<!-- Application&#45;&gt;Presentation -->
<g id="edge4" class="edge"><title>Application&#45;&gt;Presentation</title>
<path fill="none" stroke="black" d="M45,-71.6966C45,-63.9827 45,-54.7125 45,-46.1124"/>
<polygon fill="black" stroke="black" points="48.5001,-46.1043 45,-36.1043 41.5001,-46.1044 48.5001,-46.1043"/>
</g>
<!-- Aprimo -->
<g id="node6" class="node"><title>Aprimo</title>
<polygon fill="none" stroke="skyblue" points="298,-108 244,-108 244,-72 298,-72 298,-108"/>
<text text-anchor="middle" x="271" y="-87.5" font-family="Myriad Condensed Web" font-size="10.00">Aprimo</text>
</g>
<!-- RMS -->
<g id="node7" class="node"><title>RMS</title>
<polygon fill="none" stroke="skyblue" points="298,-180 244,-180 244,-144 298,-144 298,-180"/>
<text text-anchor="middle" x="271" y="-159.5" font-family="Myriad Condensed Web" font-size="10.00">RMS</text>
</g>
<!-- RMS&#45;&gt;Aprimo -->
<g id="edge5" class="edge"><title>RMS&#45;&gt;Aprimo</title>
<path fill="none" stroke="#999999" d="M271,-143.697C271,-135.983 271,-126.712 271,-118.112"/>
<polygon fill="#999999" stroke="#999999" points="274.5,-118.104 271,-108.104 267.5,-118.104 274.5,-118.104"/>
</g>
<!-- SAS -->
<g id="node20" class="node"><title>SAS</title>
<polygon fill="none" stroke="skyblue" points="226,-108 172,-108 172,-72 226,-72 226,-108"/>
<text text-anchor="middle" x="199" y="-87.5" font-family="Myriad Condensed Web" font-size="10.00">SAS</text>
</g>
<!-- RMS&#45;&gt;SAS -->
<g id="edge22" class="edge"><title>RMS&#45;&gt;SAS</title>
<path fill="none" stroke="#999999" d="M253.202,-143.697C244.396,-135.135 233.618,-124.656 223.999,-115.304"/>
<polygon fill="#999999" stroke="#999999" points="226.203,-112.566 216.593,-108.104 221.323,-117.585 226.203,-112.566"/>
</g>
<!-- XM2 -->
<g id="node8" class="node"><title>XM2</title>
<polygon fill="none" stroke="skyblue" points="377,-252 323,-252 323,-216 377,-216 377,-252"/>
<text text-anchor="middle" x="350" y="-231.5" font-family="Myriad Condensed Web" font-size="10.00">XM2</text>
</g>
<!-- XM2&#45;&gt;RMS -->
<g id="edge6" class="edge"><title>XM2&#45;&gt;RMS</title>
<path fill="none" stroke="#999999" d="M330.472,-215.697C320.618,-206.965 308.514,-196.24 297.804,-186.75"/>
<polygon fill="#999999" stroke="#999999" points="300.109,-184.117 290.303,-180.104 295.467,-189.356 300.109,-184.117"/>
</g>
<!-- Digip -->
<g id="node9" class="node"><title>Digip</title>
<polygon fill="none" stroke="skyblue" points="408,-108 354,-108 354,-72 408,-72 408,-108"/>
<text text-anchor="middle" x="381" y="-87.5" font-family="Myriad Condensed Web" font-size="10.00">Digip</text>
</g>
<!-- XM2&#45;&gt;Digip -->
<g id="edge7" class="edge"><title>XM2&#45;&gt;Digip</title>
<path fill="none" stroke="#ff7f00" d="M353.739,-215.871C359.046,-191.564 368.814,-146.819 375.103,-118.013"/>
<polygon fill="#ff7f00" stroke="#ff7f00" points="378.534,-118.706 377.247,-108.189 371.695,-117.213 378.534,-118.706"/>
</g>
<!-- Qlikview -->
<g id="node11" class="node"><title>Qlikview</title>
<polygon fill="none" stroke="skyblue" points="471,-36 417,-36 417,-0 471,-0 471,-36"/>
<text text-anchor="middle" x="444" y="-15.5" font-family="Myriad Condensed Web" font-size="10.00">Qlikview</text>
</g>
<!-- XM2&#45;&gt;Qlikview -->
<g id="edge12" class="edge"><title>XM2&#45;&gt;Qlikview</title>
<path fill="none" stroke="#999999" d="M343.889,-215.995C333.847,-184.891 317.555,-117.823 345,-72 358.438,-49.5635 384.977,-36.0877 407.197,-28.3425"/>
<polygon fill="#999999" stroke="#999999" points="408.279,-31.6712 416.722,-25.27 406.13,-25.0092 408.279,-31.6712"/>
</g>
<!-- iProcess -->
<g id="node12" class="node"><title>iProcess</title>
<polygon fill="#b3b3b3" stroke="#b3b3b3" points="593,-324 539,-324 539,-288 593,-288 593,-324"/>
<text text-anchor="middle" x="566" y="-303.5" font-family="Myriad Condensed Web" font-size="10.00">iProcess</text>
</g>
<!-- XM2&#45;&gt;iProcess -->
<g id="edge25" class="edge"><title>XM2&#45;&gt;iProcess</title>
<path fill="none" stroke="#999999" d="M377.397,-244.711C383.228,-247.306 389.272,-249.954 395,-252 453.613,-272.937 474.506,-266.659 528.854,-284.518"/>
<polygon fill="#999999" stroke="#999999" points="528.042,-287.94 538.636,-287.87 530.311,-281.318 528.042,-287.94"/>
</g>
<!-- Informatica -->
<g id="node15" class="node"><title>Informatica</title>
<polygon fill="none" stroke="skyblue" points="453,-252 395,-252 395,-216 453,-216 453,-252"/>
<text text-anchor="middle" x="424" y="-231.5" font-family="Myriad Condensed Web" font-size="10.00">Informatica</text>
</g>
<!-- XM2&#45;&gt;Informatica -->
<g id="edge26" class="edge"><title>XM2&#45;&gt;Informatica</title>
<path fill="none" stroke="#999999" d="M377.172,-234C379.641,-234 382.111,-234 384.58,-234"/>
<polygon fill="#999999" stroke="#999999" points="384.732,-237.5 394.732,-234 384.732,-230.5 384.732,-237.5"/>
</g>
<!-- PIF -->
<g id="node19" class="node"><title>PIF</title>
<polygon fill="none" stroke="skyblue" points="662,-108 608,-108 608,-72 662,-72 662,-108"/>
<text text-anchor="middle" x="635" y="-87.5" font-family="Myriad Condensed Web" font-size="10.00">PIF</text>
</g>
<!-- XM2&#45;&gt;PIF -->
<g id="edge20" class="edge"><title>XM2&#45;&gt;PIF</title>
<path fill="none" stroke="#ff7f00" d="M371.384,-215.871C401.98,-191.475 455.705,-149.093 466,-144 518.102,-118.226 539.348,-128.009 597.959,-107.984"/>
<polygon fill="#ff7f00" stroke="#ff7f00" points="599.457,-111.165 607.696,-104.504 597.102,-104.574 599.457,-111.165"/>
</g>
<!-- ACL -->
<g id="node21" class="node"><title>ACL</title>
<polygon fill="#b3b3b3" stroke="#b3b3b3" points="480,-108 426,-108 426,-72 480,-72 480,-108"/>
<text text-anchor="middle" x="453" y="-87.5" font-family="Myriad Condensed Web" font-size="10.00">ACL</text>
</g>
<!-- XM2&#45;&gt;ACL -->
<g id="edge23" class="edge"><title>XM2&#45;&gt;ACL</title>
<path fill="none" stroke="#999999" d="M362.424,-215.871C380.365,-191.137 413.655,-145.242 434.495,-116.512"/>
<polygon fill="#999999" stroke="#999999" points="437.493,-118.339 440.532,-108.189 431.827,-114.229 437.493,-118.339"/>
</g>
<!-- Digip&#45;&gt;Qlikview -->
<g id="edge36" class="edge"><title>Digip&#45;&gt;Qlikview</title>
<path fill="none" stroke="#999999" d="M396.573,-71.6966C404.202,-63.2198 413.523,-52.8636 421.876,-43.5826"/>
<polygon fill="#999999" stroke="#999999" points="424.518,-45.8787 428.606,-36.1043 419.315,-41.1959 424.518,-45.8787"/>
</g>
<!-- Digip&#45;&gt;PIF -->
<g id="edge29" class="edge"><title>Digip&#45;&gt;PIF</title>
<path fill="none" stroke="#ff7f00" d="M400.96,-108.064C407.517,-112.902 415.149,-117.484 423,-120 458.976,-131.529 557.024,-131.529 593,-120 597.661,-118.506 602.246,-116.284 606.574,-113.712"/>
<polygon fill="#ff7f00" stroke="#ff7f00" points="608.664,-116.525 615.04,-108.064 604.779,-110.702 608.664,-116.525"/>
</g>
<!-- Sharepoint -->
<g id="node10" class="node"><title>Sharepoint</title>
<polygon fill="#b3b3b3" stroke="#b3b3b3" points="663.25,-36 606.75,-36 606.75,-0 663.25,-0 663.25,-36"/>
<text text-anchor="middle" x="635" y="-15.5" font-family="Myriad Condensed Web" font-size="10.00">Sharepoint</text>
</g>
<!-- Sharepoint&#45;&gt;PIF -->
<g id="edge30" class="edge"><title>Sharepoint&#45;&gt;PIF</title>
<path fill="none" stroke="#ff7f00" d="M640.895,-36.1043C641.701,-43.7913 641.937,-53.0537 641.604,-61.6651"/>
<polygon fill="#ff7f00" stroke="#ff7f00" points="638.109,-61.4805 640.916,-71.6966 645.092,-61.9597 638.109,-61.4805"/>
</g>
<!-- iProcess&#45;&gt;XM2 -->
<g id="edge8" class="edge"><title>iProcess&#45;&gt;XM2</title>
<path fill="none" stroke="#999999" d="M538.603,-295.289C532.772,-292.694 526.728,-290.046 521,-288 462.387,-267.063 441.494,-273.341 387.146,-255.482"/>
<polygon fill="#999999" stroke="#999999" points="387.958,-252.06 377.364,-252.13 385.689,-258.682 387.958,-252.06"/>
</g>
<!-- iProcess&#45;&gt;Informatica -->
<g id="edge9" class="edge"><title>iProcess&#45;&gt;Informatica</title>
<path fill="none" stroke="#999999" d="M538.957,-291.669C517.361,-281.023 486.82,-265.968 462.645,-254.05"/>
<polygon fill="#999999" stroke="#999999" points="463.907,-250.77 453.39,-249.488 460.812,-257.049 463.907,-250.77"/>
</g>
<!-- iProcess&#45;&gt;PIF -->
<g id="edge21" class="edge"><title>iProcess&#45;&gt;PIF</title>
<path fill="none" stroke="#e41a1c" d="M567.652,-287.849C576.105,-250.597 604.398,-162.067 621.808,-117.539"/>
<polygon fill="#e41a1c" stroke="#e41a1c" points="625.067,-118.816 625.558,-108.232 618.574,-116.2 625.067,-118.816"/>
</g>
<!-- SAP ISU -->
<g id="node13" class="node"><title>SAP ISU</title>
<polygon fill="#b3b3b3" stroke="#b3b3b3" points="377,-324 323,-324 323,-288 377,-288 377,-324"/>
<text text-anchor="middle" x="350" y="-303.5" font-family="Myriad Condensed Web" font-size="10.00">SAP ISU</text>
</g>
<!-- SAP ISU&#45;&gt;XM2 -->
<g id="edge13" class="edge"><title>SAP ISU&#45;&gt;XM2</title>
<path fill="none" stroke="#e41a1c" d="M350,-287.697C350,-279.983 350,-270.712 350,-262.112"/>
<polygon fill="#e41a1c" stroke="#e41a1c" points="353.5,-262.104 350,-252.104 346.5,-262.104 353.5,-262.104"/>
</g>
<!-- SAP ISU&#45;&gt;Informatica -->
<g id="edge15" class="edge"><title>SAP ISU&#45;&gt;Informatica</title>
<path fill="none" stroke="#e41a1c" d="M368.292,-287.697C377.433,-279.05 388.64,-268.449 398.6,-259.027"/>
<polygon fill="#e41a1c" stroke="#e41a1c" points="401.059,-261.519 405.918,-252.104 396.248,-256.434 401.059,-261.519"/>
</g>
<!-- SAP CRM -->
<g id="node14" class="node"><title>SAP CRM</title>
<polygon fill="#b3b3b3" stroke="#b3b3b3" points="217,-324 163,-324 163,-288 217,-288 217,-324"/>
<text text-anchor="middle" x="190" y="-303.5" font-family="Myriad Condensed Web" font-size="10.00">SAP CRM</text>
</g>
<!-- SAP CRM&#45;&gt;XM2 -->
<g id="edge14" class="edge"><title>SAP CRM&#45;&gt;XM2</title>
<path fill="none" stroke="#e41a1c" d="M217.077,-292.082C220.08,-290.688 223.1,-289.304 226,-288 255.218,-274.863 288.629,-260.627 313.402,-250.221"/>
<polygon fill="#e41a1c" stroke="#e41a1c" points="314.911,-253.383 322.781,-246.291 312.205,-246.927 314.911,-253.383"/>
</g>
<!-- SAP CRM&#45;&gt;Informatica -->
<g id="edge16" class="edge"><title>SAP CRM&#45;&gt;Informatica</title>
<path fill="none" stroke="#e41a1c" d="M217.258,-291.369C220.173,-290.14 223.124,-288.989 226,-288 291.965,-265.313 314.865,-274.141 385.027,-251.952"/>
<polygon fill="#e41a1c" stroke="#e41a1c" points="386.352,-255.201 394.771,-248.77 384.179,-248.547 386.352,-255.201"/>
</g>
<!-- Vaultage -->
<g id="node16" class="node"><title>Vaultage</title>
<polygon fill="none" stroke="skyblue" points="529,-180 475,-180 475,-144 529,-144 529,-180"/>
<text text-anchor="middle" x="502" y="-159.5" font-family="Myriad Condensed Web" font-size="10.00">Vaultage</text>
</g>
<!-- Informatica&#45;&gt;Vaultage -->
<g id="edge10" class="edge"><title>Informatica&#45;&gt;Vaultage</title>
<path fill="none" stroke="#999999" d="M443.281,-215.697C452.915,-207.05 464.729,-196.449 475.227,-187.027"/>
<polygon fill="#999999" stroke="#999999" points="477.836,-189.388 482.941,-180.104 473.161,-184.179 477.836,-189.388"/>
</g>
<!-- Vaultage&#45;&gt;Qlikview -->
<g id="edge11" class="edge"><title>Vaultage&#45;&gt;Qlikview</title>
<path fill="none" stroke="#999999" d="M502.256,-143.82C501.916,-125.299 499.547,-95.3363 489,-72 484.404,-61.8308 477.258,-52.0941 470.004,-43.8039"/>
<polygon fill="#999999" stroke="#999999" points="472.454,-41.2983 463.096,-36.3319 467.314,-46.0505 472.454,-41.2983"/>
</g>
<!-- Avaya -->
<g id="node17" class="node"><title>Avaya</title>
<polygon fill="none" stroke="skyblue" points="665,-324 611,-324 611,-288 665,-288 665,-324"/>
<text text-anchor="middle" x="638" y="-303.5" font-family="Myriad Condensed Web" font-size="10.00">Avaya</text>
</g>
<!-- Totalview -->
<g id="node18" class="node"><title>Totalview</title>
<polygon fill="none" stroke="skyblue" points="590,-108 536,-108 536,-72 590,-72 590,-108"/>
<text text-anchor="middle" x="563" y="-87.5" font-family="Myriad Condensed Web" font-size="10.00">Totalview</text>
</g>
<!-- Avaya&#45;&gt;Totalview -->
<g id="edge17" class="edge"><title>Avaya&#45;&gt;Totalview</title>
<path fill="none" stroke="#999999" d="M631.989,-287.849C618.961,-250.675 588.037,-162.439 572.4,-117.82"/>
<polygon fill="#999999" stroke="#999999" points="575.65,-116.512 569.039,-108.232 569.044,-118.827 575.65,-116.512"/>
</g>
<!-- Avaya&#45;&gt;PIF -->
<g id="edge27" class="edge"><title>Avaya&#45;&gt;PIF</title>
<path fill="none" stroke="#ff7f00" d="M637.76,-287.849C637.241,-250.832 636.012,-163.181 635.384,-118.386"/>
<polygon fill="#ff7f00" stroke="#ff7f00" points="638.882,-118.182 635.242,-108.232 631.882,-118.281 638.882,-118.182"/>
</g>
<!-- Totalview&#45;&gt;PIF -->
<g id="edge18" class="edge"><title>Totalview&#45;&gt;PIF</title>
<path fill="none" stroke="#ffff33" d="M590.281,-77.2918C592.738,-76.8456 595.194,-76.588 597.651,-76.519"/>
<polygon fill="#ffff33" stroke="#ffff33" points="597.51,-80.0184 607.75,-77.2974 598.048,-73.0391 597.51,-80.0184"/>
</g>
<!-- Totalview&#45;&gt;PIF -->
<g id="edge19" class="edge"><title>Totalview&#45;&gt;PIF</title>
<path fill="none" stroke="#ffff33" d="M590.281,-102.708C592.738,-103.154 595.194,-103.412 597.651,-103.481"/>
<polygon fill="#ffff33" stroke="#ffff33" points="598.048,-106.961 607.75,-102.703 597.51,-99.9816 598.048,-106.961"/>
</g>
<!-- PIF&#45;&gt;RMS -->
<g id="edge44" class="edge"><title>PIF&#45;&gt;RMS</title>
<path fill="none" stroke="#4daf4a" d="M607.801,-104.813C604.874,-106.006 601.905,-107.099 599,-108 545.175,-124.691 382.439,-146.778 308.399,-156.301"/>
<polygon fill="#4daf4a" stroke="#4daf4a" points="307.618,-152.872 298.143,-157.613 308.506,-159.816 307.618,-152.872"/>
</g>
<!-- PIF&#45;&gt;Digip -->
<g id="edge41" class="edge"><title>PIF&#45;&gt;Digip</title>
<path fill="none" stroke="#ffff33" d="M620.127,-108.132C611.517,-117.166 599.853,-127.171 587,-132 554.132,-144.35 461.868,-144.35 429,-132 419.561,-128.453 410.763,-122.116 403.346,-115.421"/>
<polygon fill="#ffff33" stroke="#ffff33" points="405.475,-112.609 395.873,-108.132 400.587,-117.62 405.475,-112.609"/>
</g>
<!-- PIF&#45;&gt;Sharepoint -->
<g id="edge43" class="edge"><title>PIF&#45;&gt;Sharepoint</title>
<path fill="none" stroke="#999999" d="M629.084,-71.6966C628.289,-63.9827 628.062,-54.7125 628.405,-46.1124"/>
<polygon fill="#999999" stroke="#999999" points="631.898,-46.3243 629.105,-36.1043 624.915,-45.8356 631.898,-46.3243"/>
</g>
<!-- PIF&#45;&gt;Qlikview -->
<g id="edge32" class="edge"><title>PIF&#45;&gt;Qlikview</title>
<path fill="none" stroke="#ff7f00" d="M607.623,-75.6857C604.731,-74.3954 601.818,-73.1431 599,-72 559.287,-55.8922 512.62,-40.3835 480.947,-30.3499"/>
<polygon fill="#ff7f00" stroke="#ff7f00" points="481.807,-26.9515 471.218,-27.2908 479.708,-33.6292 481.807,-26.9515"/>
</g>
<!-- PIF&#45;&gt;iProcess -->
<g id="edge42" class="edge"><title>PIF&#45;&gt;iProcess</title>
<path fill="none" stroke="#4daf4a" d="M633.329,-108.232C624.847,-145.56 596.548,-234.095 579.154,-278.558"/>
<polygon fill="#4daf4a" stroke="#4daf4a" points="575.901,-277.266 575.407,-287.849 582.393,-279.884 575.901,-277.266"/>
</g>
<!-- Audit Base -->
<g id="node23" class="node"><title>Audit Base</title>
<polygon fill="#b3b3b3" stroke="#b3b3b3" points="735.25,-108 680.75,-108 680.75,-72 735.25,-72 735.25,-108"/>
<text text-anchor="middle" x="708" y="-87.5" font-family="Myriad Condensed Web" font-size="10.00">Audit Base</text>
</g>
<!-- PIF&#45;&gt;Audit Base -->
<g id="edge28" class="edge"><title>PIF&#45;&gt;Audit Base</title>
<path fill="none" stroke="#ffff33" d="M662.09,-90C664.907,-90 667.724,-90 670.541,-90"/>
<polygon fill="#ffff33" stroke="#ffff33" points="670.741,-93.5001 680.741,-90 670.741,-86.5001 670.741,-93.5001"/>
</g>
<!-- EDSN Gateway -->
<g id="node22" class="node"><title>EDSN Gateway</title>
<polygon fill="#b3b3b3" stroke="#b3b3b3" points="305,-324 235,-324 235,-288 305,-288 305,-324"/>
<text text-anchor="middle" x="270" y="-303.5" font-family="Myriad Condensed Web" font-size="10.00">EDSN Gateway</text>
</g>
<!-- EDSN Gateway&#45;&gt;XM2 -->
<g id="edge24" class="edge"><title>EDSN Gateway&#45;&gt;XM2</title>
<path fill="none" stroke="#ff7f00" d="M289.775,-287.697C299.754,-278.965 312.011,-268.24 322.857,-258.75"/>
<polygon fill="#ff7f00" stroke="#ff7f00" points="325.231,-261.323 330.452,-252.104 320.622,-256.055 325.231,-261.323"/>
</g>
<!-- EDSN Gateway&#45;&gt;Informatica -->
<g id="edge37" class="edge"><title>EDSN Gateway&#45;&gt;Informatica</title>
<path fill="none" stroke="#999999" d="M305.331,-288.941C329.163,-278.108 360.615,-263.811 385.152,-252.658"/>
<polygon fill="#999999" stroke="#999999" points="386.868,-255.723 394.524,-248.398 383.972,-249.35 386.868,-255.723"/>
</g>
<!-- Thinconnect -->
<g id="node24" class="node"><title>Thinconnect</title>
<polygon fill="#b3b3b3" stroke="#b3b3b3" points="817,-324 755,-324 755,-288 817,-288 817,-324"/>
<text text-anchor="middle" x="786" y="-303.5" font-family="Myriad Condensed Web" font-size="10.00">Thinconnect</text>
</g>
<!-- Thinconnect&#45;&gt;PIF -->
<g id="edge31" class="edge"><title>Thinconnect&#45;&gt;PIF</title>
<path fill="none" stroke="#ffff33" d="M774.376,-287.975C754.192,-258.484 711.251,-196.058 674,-144 667.518,-134.942 660.317,-125.095 653.884,-116.375"/>
<polygon fill="#ffff33" stroke="#ffff33" points="656.524,-114.059 647.762,-108.102 650.896,-118.222 656.524,-114.059"/>
</g>
<!-- BPS DWH -->
<g id="node25" class="node"><title>BPS DWH</title>
<polygon fill="#b3b3b3" stroke="#b3b3b3" points="889,-324 835,-324 835,-288 889,-288 889,-324"/>
<text text-anchor="middle" x="862" y="-303.5" font-family="Myriad Condensed Web" font-size="10.00">BPS DWH</text>
</g>
<!-- BPS DWH&#45;&gt;PIF -->
<g id="edge33" class="edge"><title>BPS DWH&#45;&gt;PIF</title>
<path fill="none" stroke="#ff7f00" d="M845.962,-287.995C817.448,-258.007 755.686,-194.154 700,-144 688.856,-133.963 676.157,-123.423 664.959,-114.41"/>
<polygon fill="#ff7f00" stroke="#ff7f00" points="667.112,-111.65 657.114,-108.145 662.744,-117.12 667.112,-111.65"/>
</g>
<!-- RWE AD servers -->
<g id="node26" class="node"><title>RWE AD servers</title>
<polygon fill="#b3b3b3" stroke="#b3b3b3" points="980.25,-324 907.75,-324 907.75,-288 980.25,-288 980.25,-324"/>
<text text-anchor="middle" x="944" y="-303.5" font-family="Myriad Condensed Web" font-size="10.00">RWE AD servers</text>
</g>
<!-- RWE AD servers&#45;&gt;PIF -->
<g id="edge34" class="edge"><title>RWE AD servers&#45;&gt;PIF</title>
<path fill="none" stroke="#ffff33" d="M923.688,-287.933C886.78,-257.301 805.7,-191.739 732,-144 712.572,-131.416 689.918,-118.924 671.39,-109.231"/>
<polygon fill="#ffff33" stroke="#ffff33" points="672.878,-106.06 662.388,-104.571 669.66,-112.277 672.878,-106.06"/>
</g>
<!-- TIJSS -->
<g id="node27" class="node"><title>TIJSS</title>
<polygon fill="#b3b3b3" stroke="#b3b3b3" points="737,-324 683,-324 683,-288 737,-288 737,-324"/>
<text text-anchor="middle" x="710" y="-303.5" font-family="Myriad Condensed Web" font-size="10.00">TIJSS</text>
</g>
<!-- TIJSS&#45;&gt;PIF -->
<g id="edge35" class="edge"><title>TIJSS&#45;&gt;PIF</title>
<path fill="none" stroke="#4daf4a" d="M703.989,-287.849C690.961,-250.675 660.037,-162.439 644.4,-117.82"/>
<polygon fill="#4daf4a" stroke="#4daf4a" points="647.65,-116.512 641.039,-108.232 641.044,-118.827 647.65,-116.512"/>
</g>
<!-- TPM -->
<g id="node28" class="node"><title>TPM</title>
<polygon fill="#b3b3b3" stroke="#b3b3b3" points="449,-324 395,-324 395,-288 449,-288 449,-324"/>
<text text-anchor="middle" x="422" y="-303.5" font-family="Myriad Condensed Web" font-size="10.00">TPM</text>
</g>
<!-- TPM&#45;&gt;Informatica -->
<g id="edge38" class="edge"><title>TPM&#45;&gt;Informatica</title>
<path fill="none" stroke="#999999" d="M422.494,-287.697C422.715,-279.983 422.98,-270.712 423.225,-262.112"/>
<polygon fill="#999999" stroke="#999999" points="426.724,-262.2 423.511,-252.104 419.727,-262 426.724,-262.2"/>
</g>
<!-- All4One -->
<g id="node29" class="node"><title>All4One</title>
<polygon fill="#b3b3b3" stroke="#b3b3b3" points="521,-324 467,-324 467,-288 521,-288 521,-324"/>
<text text-anchor="middle" x="494" y="-303.5" font-family="Myriad Condensed Web" font-size="10.00">All4One</text>
</g>
<!-- All4One&#45;&gt;Informatica -->
<g id="edge39" class="edge"><title>All4One&#45;&gt;Informatica</title>
<path fill="none" stroke="#999999" d="M476.697,-287.697C468.135,-279.135 457.656,-268.656 448.304,-259.304"/>
<polygon fill="#999999" stroke="#999999" points="450.65,-256.701 441.104,-252.104 445.701,-261.65 450.65,-256.701"/>
</g>
<!-- Wasstraat -->
<g id="node30" class="node"><title>Wasstraat</title>
<polygon fill="none" stroke="skyblue" points="145,-324 91,-324 91,-288 145,-288 145,-324"/>
<text text-anchor="middle" x="118" y="-303.5" font-family="Myriad Condensed Web" font-size="10.00">Wasstraat</text>
</g>
<!-- Wasstraat&#45;&gt;RMS -->
<g id="edge40" class="edge"><title>Wasstraat&#45;&gt;RMS</title>
<path fill="none" stroke="#999999" d="M136.455,-287.871C163.565,-262.711 214.268,-215.654 245.096,-187.042"/>
<polygon fill="#999999" stroke="#999999" points="247.53,-189.557 252.479,-180.189 242.769,-184.427 247.53,-189.557"/>
</g>
<!-- RMS Portal -->
<g id="node31" class="node"><title>RMS Portal</title>
<polygon fill="none" stroke="skyblue" points="738,-36 682,-36 682,-0 738,-0 738,-36"/>
<text text-anchor="middle" x="710" y="-15.5" font-family="Myriad Condensed Web" font-size="10.00">RMS Portal</text>
</g>
</g>
</svg>
