<?xml version="1.0" encoding="UTF-8" standalone="no"?>
<!DOCTYPE svg PUBLIC "-//W3C//DTD SVG 1.1//EN"
 "http://www.w3.org/Graphics/SVG/1.1/DTD/svg11.dtd">
<!-- Generated by graphviz version 2.32.0 (20130801.1934)
 -->
<!-- Title: G Pages: 1 -->
<svg width="500pt" height="155pt"
 viewBox="0.00 0.00 500.00 155.00" xmlns="http://www.w3.org/2000/svg" xmlns:xlink="http://www.w3.org/1999/xlink">
<g id="graph0" class="graph" transform="scale(1 1) rotate(0) translate(4 151)">
<title>G</title>
<polygon fill="white" stroke="white" points="-4,5 -4,-151 497,-151 497,5 -4,5"/>
<g id="clust1" class="cluster"><title>cluster_0</title>
<polygon fill="lightgrey" stroke="lightgrey" points="156,-46 156,-121 258,-121 258,-46 156,-46"/>
<text text-anchor="middle" x="207" y="-105.8" font-family="Myriad Condensed Web" font-size="14.00">Informatica</text>
</g>
<!-- 14. ETL
SUES&#45;NLAMS1&#45;020 -->
<g id="node1" class="node"><title>14. ETL
SUES&#45;NLAMS1&#45;020</title>
<polygon fill="white" stroke="white" points="249.25,-90 164.75,-90 164.75,-54 249.25,-54 249.25,-90"/>
<text text-anchor="middle" x="207" y="-75" font-family="Myriad Condensed Web" font-size="10.00">14. ETL</text>
<text text-anchor="middle" x="207" y="-64" font-family="Myriad Condensed Web" font-size="10.00">SUES&#45;NLAMS1&#45;020</text>
</g>
<!-- Vaultage -->
<g id="node9" class="node"><title>Vaultage</title>
<polygon fill="#999999" stroke="#999999" points="198,-17.5 144,-17.5 144,-0.5 198,-0.5 198,-17.5"/>
<text text-anchor="middle" x="171" y="-7.1" font-family="Myriad Condensed Web" font-size="8.00">Vaultage</text>
</g>
<!-- 14. ETL
SUES&#45;NLAMS1&#45;020&#45;&gt;Vaultage -->
<g id="edge13" class="edge"><title>14. ETL
SUES&#45;NLAMS1&#45;020&#45;&gt;Vaultage</title>
<path fill="none" stroke="#ff0000" d="M196.78,-53.683C191.76,-45.1766 185.74,-34.9761 180.78,-26.5722"/>
<polygon fill="#ff0000" stroke="#ff0000" points="183.665,-24.5743 175.569,-17.7412 177.637,-28.1322 183.665,-24.5743"/>
</g>
<!-- HISA -->
<g id="node10" class="node"><title>HISA</title>
<polygon fill="#999999" stroke="#999999" points="270,-17.5 216,-17.5 216,-0.5 270,-0.5 270,-17.5"/>
<text text-anchor="middle" x="243" y="-7.1" font-family="Myriad Condensed Web" font-size="8.00">HISA</text>
</g>
<!-- 14. ETL
SUES&#45;NLAMS1&#45;020&#45;&gt;HISA -->
<g id="edge14" class="edge"><title>14. ETL
SUES&#45;NLAMS1&#45;020&#45;&gt;HISA</title>
<path fill="none" stroke="#ff0000" d="M217.22,-53.683C222.24,-45.1766 228.26,-34.9761 233.22,-26.5722"/>
<polygon fill="#ff0000" stroke="#ff0000" points="236.363,-28.1322 238.431,-17.7412 230.335,-24.5743 236.363,-28.1322"/>
</g>
<!-- XM2 -->
<g id="node2" class="node"><title>XM2</title>
<polygon fill="#999999" stroke="#999999" points="54,-146.5 0,-146.5 0,-129.5 54,-129.5 54,-146.5"/>
<text text-anchor="middle" x="27" y="-136.1" font-family="Myriad Condensed Web" font-size="8.00">XM2</text>
</g>
<!-- XM2&#45;&gt;14. ETL
SUES&#45;NLAMS1&#45;020 -->
<g id="edge1" class="edge"><title>XM2&#45;&gt;14. ETL
SUES&#45;NLAMS1&#45;020</title>
<path fill="none" stroke="#00ff00" d="M48.3552,-129.407C74.4026,-120.146 119.337,-104.169 154.748,-91.5784"/>
<polygon fill="#00ff00" stroke="#00ff00" points="156.21,-94.7732 164.46,-88.1253 153.865,-88.1777 156.21,-94.7732"/>
</g>
<!-- iProcess -->
<g id="node3" class="node"><title>iProcess</title>
<polygon fill="#999999" stroke="#999999" points="126,-146.5 72,-146.5 72,-129.5 126,-129.5 126,-146.5"/>
<text text-anchor="middle" x="99" y="-136.1" font-family="Myriad Condensed Web" font-size="8.00">iProcess</text>
</g>
<!-- iProcess&#45;&gt;14. ETL
SUES&#45;NLAMS1&#45;020 -->
<g id="edge2" class="edge"><title>iProcess&#45;&gt;14. ETL
SUES&#45;NLAMS1&#45;020</title>
<path fill="none" stroke="#00ff00" d="M107.259,-129.407C119.44,-121.005 142.31,-107.076 163.142,-95.1626"/>
<polygon fill="#00ff00" stroke="#00ff00" points="164.929,-98.1731 171.909,-90.2021 161.482,-92.0808 164.929,-98.1731"/>
</g>
<!-- iProcess&#45;&gt;14. ETL
SUES&#45;NLAMS1&#45;020 -->
<g id="edge3" class="edge"><title>iProcess&#45;&gt;14. ETL
SUES&#45;NLAMS1&#45;020</title>
<path fill="none" stroke="#00ff00" d="M116.368,-129.407C132.399,-121.08 156.252,-107.325 175.539,-95.4822"/>
<polygon fill="#00ff00" stroke="#00ff00" points="177.388,-98.4535 184.034,-90.2021 173.693,-92.5083 177.388,-98.4535"/>
</g>
<!-- SAP ISU -->
<g id="node4" class="node"><title>SAP ISU</title>
<polygon fill="#999999" stroke="#999999" points="198,-146.5 144,-146.5 144,-129.5 198,-129.5 198,-146.5"/>
<text text-anchor="middle" x="171" y="-136.1" font-family="Myriad Condensed Web" font-size="8.00">SAP ISU</text>
</g>
<!-- SAP ISU&#45;&gt;14. ETL
SUES&#45;NLAMS1&#45;020 -->
<g id="edge4" class="edge"><title>SAP ISU&#45;&gt;14. ETL
SUES&#45;NLAMS1&#45;020</title>
<path fill="none" stroke="#00ff00" d="M166.186,-129.152C166.947,-121.514 172.371,-109.487 179.394,-98.5203"/>
<polygon fill="#00ff00" stroke="#00ff00" points="182.45,-100.258 185.31,-90.0563 176.712,-96.2474 182.45,-100.258"/>
</g>
<!-- SAP ISU&#45;&gt;14. ETL
SUES&#45;NLAMS1&#45;020 -->
<g id="edge5" class="edge"><title>SAP ISU&#45;&gt;14. ETL
SUES&#45;NLAMS1&#45;020</title>
<path fill="none" stroke="#00ff00" d="M175.414,-129.152C179.668,-121.59 186.342,-109.725 192.461,-98.8464"/>
<polygon fill="#00ff00" stroke="#00ff00" points="195.554,-100.488 197.406,-90.0563 189.453,-97.0561 195.554,-100.488"/>
</g>
<!-- SAP ISU&#45;&gt;14. ETL
SUES&#45;NLAMS1&#45;020 -->
<g id="edge6" class="edge"><title>SAP ISU&#45;&gt;14. ETL
SUES&#45;NLAMS1&#45;020</title>
<path fill="none" stroke="#00ff00" d="M184.38,-129.407C192.089,-121.98 200.097,-110.235 205.474,-99.3808"/>
<polygon fill="#00ff00" stroke="#00ff00" points="208.687,-100.77 209.449,-90.2021 202.263,-97.9877 208.687,-100.77"/>
</g>
<!-- SAP CRM -->
<g id="node5" class="node"><title>SAP CRM</title>
<polygon fill="#999999" stroke="#999999" points="270,-146.5 216,-146.5 216,-129.5 270,-129.5 270,-146.5"/>
<text text-anchor="middle" x="243" y="-136.1" font-family="Myriad Condensed Web" font-size="8.00">SAP CRM</text>
</g>
<!-- SAP CRM&#45;&gt;14. ETL
SUES&#45;NLAMS1&#45;020 -->
<g id="edge7" class="edge"><title>SAP CRM&#45;&gt;14. ETL
SUES&#45;NLAMS1&#45;020</title>
<path fill="none" stroke="#00ff00" d="M229.62,-129.407C221.911,-121.98 213.903,-110.235 208.526,-99.3808"/>
<polygon fill="#00ff00" stroke="#00ff00" points="211.737,-97.9877 204.551,-90.2021 205.313,-100.77 211.737,-97.9877"/>
</g>
<!-- SAP CRM&#45;&gt;14. ETL
SUES&#45;NLAMS1&#45;020 -->
<g id="edge8" class="edge"><title>SAP CRM&#45;&gt;14. ETL
SUES&#45;NLAMS1&#45;020</title>
<path fill="none" stroke="#00ff00" d="M238.586,-129.152C234.332,-121.59 227.658,-109.725 221.539,-98.8464"/>
<polygon fill="#00ff00" stroke="#00ff00" points="224.547,-97.0561 216.594,-90.0563 218.446,-100.488 224.547,-97.0561"/>
</g>
<!-- SAP CRM&#45;&gt;14. ETL
SUES&#45;NLAMS1&#45;020 -->
<g id="edge9" class="edge"><title>SAP CRM&#45;&gt;14. ETL
SUES&#45;NLAMS1&#45;020</title>
<path fill="none" stroke="#00ff00" d="M247.814,-129.152C247.053,-121.514 241.629,-109.487 234.606,-98.5203"/>
<polygon fill="#00ff00" stroke="#00ff00" points="237.288,-96.2474 228.69,-90.0563 231.55,-100.258 237.288,-96.2474"/>
</g>
<!-- EDSN Gateway -->
<g id="node6" class="node"><title>EDSN Gateway</title>
<polygon fill="#999999" stroke="#999999" points="347.25,-146.5 288.75,-146.5 288.75,-129.5 347.25,-129.5 347.25,-146.5"/>
<text text-anchor="middle" x="318" y="-136.1" font-family="Myriad Condensed Web" font-size="8.00">EDSN Gateway</text>
</g>
<!-- EDSN Gateway&#45;&gt;14. ETL
SUES&#45;NLAMS1&#45;020 -->
<g id="edge10" class="edge"><title>EDSN Gateway&#45;&gt;14. ETL
SUES&#45;NLAMS1&#45;020</title>
<path fill="none" stroke="#00ff00" d="M304.831,-129.407C290.324,-121.043 266.317,-107.201 245.715,-95.3223"/>
<polygon fill="#00ff00" stroke="#00ff00" points="247.246,-92.165 236.835,-90.2021 243.75,-98.2292 247.246,-92.165"/>
</g>
<!-- TPM -->
<g id="node7" class="node"><title>TPM</title>
<polygon fill="#999999" stroke="#999999" points="420,-146.5 366,-146.5 366,-129.5 420,-129.5 420,-146.5"/>
<text text-anchor="middle" x="393" y="-136.1" font-family="Myriad Condensed Web" font-size="8.00">TPM</text>
</g>
<!-- TPM&#45;&gt;14. ETL
SUES&#45;NLAMS1&#45;020 -->
<g id="edge11" class="edge"><title>TPM&#45;&gt;14. ETL
SUES&#45;NLAMS1&#45;020</title>
<path fill="none" stroke="#00ff00" d="M370.933,-129.407C343.549,-119.985 295.964,-103.611 259.092,-90.9242"/>
<polygon fill="#00ff00" stroke="#00ff00" points="260.081,-87.5631 249.486,-87.619 257.803,-94.1822 260.081,-87.5631"/>
</g>
<!-- All4One -->
<g id="node8" class="node"><title>All4One</title>
<polygon fill="#999999" stroke="#999999" points="492,-146.5 438,-146.5 438,-129.5 492,-129.5 492,-146.5"/>
<text text-anchor="middle" x="465" y="-136.1" font-family="Myriad Condensed Web" font-size="8.00">All4One</text>
</g>
<!-- All4One&#45;&gt;14. ETL
SUES&#45;NLAMS1&#45;020 -->
<g id="edge12" class="edge"><title>All4One&#45;&gt;14. ETL
SUES&#45;NLAMS1&#45;020</title>
<path fill="none" stroke="#00ff00" d="M437.877,-130.272C395.614,-119.788 313.297,-99.3682 259.24,-85.9588"/>
<polygon fill="#00ff00" stroke="#00ff00" points="260.04,-82.5512 249.492,-83.5406 258.355,-89.3453 260.04,-82.5512"/>
</g>
</g>
</svg>
