<?xml version="1.0" encoding="UTF-8" standalone="no"?>
<!DOCTYPE svg PUBLIC "-//W3C//DTD SVG 1.1//EN"
 "http://www.w3.org/Graphics/SVG/1.1/DTD/svg11.dtd">
<!-- Generated by graphviz version 2.30.1 (20130221.2233)
 -->
<!-- Title: G Pages: 1 -->
<svg width="286pt" height="275pt"
 viewBox="0.00 0.00 286.00 275.00" xmlns="http://www.w3.org/2000/svg" xmlns:xlink="http://www.w3.org/1999/xlink">
<g id="graph0" class="graph" transform="scale(1 1) rotate(0) translate(4 271)">
<title>G</title>
<polygon fill="white" stroke="white" points="-4,5 -4,-271 283,-271 283,5 -4,5"/>
<!-- Name -->
<g id="node1" class="node"><title>Name</title>
<polygon fill="none" stroke="skyblue" points="175,-58 121,-58 121,-22 175,-22 175,-58"/>
<text text-anchor="middle" x="148" y="-36.3" font-family="Myriad Condensed Web" font-size="14.00">Name</text>
</g>
<!-- Aprimo -->
<g id="node2" class="node"><title>Aprimo</title>
<polygon fill="none" stroke="skyblue" points="75.0366,-36 20.0366,-36 20.0366,-0 75.0366,-0 75.0366,-36"/>
<text text-anchor="middle" x="47.5366" y="-14.3" font-family="Myriad Condensed Web" font-size="14.00">Aprimo</text>
</g>
<!-- RMS -->
<g id="node3" class="node"><title>RMS</title>
<polygon fill="none" stroke="skyblue" points="93.588,-106.713 39.588,-106.713 39.588,-70.7131 93.588,-70.7131 93.588,-106.713"/>
<text text-anchor="middle" x="66.588" y="-85.0131" font-family="Myriad Condensed Web" font-size="14.00">RMS</text>
</g>
<!-- RMS&#45;&gt;Aprimo -->
<g id="edge1" class="edge"><title>RMS&#45;&gt;Aprimo</title>
<path fill="none" stroke="black" d="M61.6818,-70.5027C59.6973,-63.1369 57.3599,-54.461 55.1629,-46.3066"/>
<polygon fill="black" stroke="black" points="58.4734,-45.1396 52.4924,-36.3944 51.7144,-46.9607 58.4734,-45.1396"/>
</g>
<!-- XM2 -->
<g id="node4" class="node"><title>XM2</title>
<polygon fill="none" stroke="skyblue" points="109.024,-181.935 55.0243,-181.935 55.0243,-145.935 109.024,-145.935 109.024,-181.935"/>
<text text-anchor="middle" x="82.0243" y="-160.235" font-family="Myriad Condensed Web" font-size="14.00">XM2</text>
</g>
<!-- XM2&#45;&gt;RMS -->
<g id="edge2" class="edge"><title>XM2&#45;&gt;RMS</title>
<path fill="none" stroke="black" d="M78.2876,-145.726C76.5053,-137.041 74.3329,-126.455 72.3461,-116.773"/>
<polygon fill="black" stroke="black" points="75.7292,-115.847 70.2903,-106.755 68.872,-117.254 75.7292,-115.847"/>
</g>
<!-- Digip -->
<g id="node5" class="node"><title>Digip</title>
<polygon fill="none" stroke="skyblue" points="54,-236.916 0,-236.916 0,-200.916 54,-200.916 54,-236.916"/>
<text text-anchor="middle" x="27" y="-215.216" font-family="Myriad Condensed Web" font-size="14.00">Digip</text>
</g>
<!-- XM2&#45;&gt;Digip -->
<g id="edge3" class="edge"><title>XM2&#45;&gt;Digip</title>
<path fill="none" stroke="black" d="M64.0073,-181.938C60.3402,-185.602 56.4166,-189.523 52.5452,-193.391"/>
<polygon fill="black" stroke="black" points="49.8458,-191.14 45.2459,-200.685 54.7937,-196.092 49.8458,-191.14"/>
</g>
<!-- Sharepoint -->
<g id="node6" class="node"><title>Sharepoint</title>
<polygon fill="none" stroke="skyblue" points="191.063,-209.926 118.063,-209.926 118.063,-173.926 191.063,-173.926 191.063,-209.926"/>
<text text-anchor="middle" x="154.563" y="-188.226" font-family="Myriad Condensed Web" font-size="14.00">Sharepoint</text>
</g>
<!-- XM2&#45;&gt;Sharepoint -->
<g id="edge4" class="edge"><title>XM2&#45;&gt;Sharepoint</title>
<path fill="none" stroke="black" d="M109.035,-174.358C109.126,-174.393 109.216,-174.428 109.307,-174.463"/>
<polygon fill="black" stroke="black" points="107.319,-177.447 117.908,-177.782 109.839,-170.917 107.319,-177.447"/>
</g>
<!-- Qlikview -->
<g id="node7" class="node"><title>Qlikview</title>
<polygon fill="none" stroke="skyblue" points="192,-124 132,-124 132,-88 192,-88 192,-124"/>
<text text-anchor="middle" x="162" y="-102.3" font-family="Myriad Condensed Web" font-size="14.00">Qlikview</text>
</g>
<!-- iProcess -->
<g id="node8" class="node"><title>iProcess</title>
<polygon fill="none" stroke="skyblue" points="278,-124 220,-124 220,-88 278,-88 278,-124"/>
<text text-anchor="middle" x="249" y="-102.3" font-family="Myriad Condensed Web" font-size="14.00">iProcess</text>
</g>
<!-- SAP -->
<g id="node9" class="node"><title>SAP</title>
<polygon fill="none" stroke="skyblue" points="252,-58 198,-58 198,-22 252,-22 252,-58"/>
<text text-anchor="middle" x="225" y="-36.3" font-family="Myriad Condensed Web" font-size="14.00">SAP</text>
</g>
<!-- ISU -->
<g id="node10" class="node"><title>ISU</title>
<polygon fill="none" stroke="skyblue" points="263,-267 209,-267 209,-231 263,-231 263,-267"/>
<text text-anchor="middle" x="236" y="-245.3" font-family="Myriad Condensed Web" font-size="14.00">ISU</text>
</g>
<!-- CRM -->
<g id="node11" class="node"><title>CRM</title>
<polygon fill="none" stroke="skyblue" points="186,-267 132,-267 132,-231 186,-231 186,-267"/>
<text text-anchor="middle" x="159" y="-245.3" font-family="Myriad Condensed Web" font-size="14.00">CRM</text>
</g>
</g>
</svg>
